SplineFontDB: 3.2
FontName: Fanism
FullName: Fanism
FamilyName: Fanism
Weight: Book
Copyright: Copyright (c) 2019-2021, fANhAN iNSiDE
Version: 001.000
ItalicAngle: 0
UnderlinePosition: -100
UnderlineWidth: 51
Ascent: 820
Descent: 204
InvalidEm: 0
sfntRevision: 0x00010000
LayerCount: 2
Layer: 0 1 "Back" 1
Layer: 1 1 "Fore" 0
HasVMetrics: 1
XUID: [1021 991 -1287261736 25459]
StyleMap: 0x0000
FSType: 0
OS2Version: 4
OS2_WeightWidthSlopeOnly: 0
OS2_UseTypoMetrics: 1
CreationTime: 1555766522
ModificationTime: 1624234067
PfmFamily: 17
TTFWeight: 400
TTFWidth: 5
LineGap: 92
VLineGap: 92
Panose: 2 0 5 9 0 0 0 0 0 0
OS2TypoAscent: 820
OS2TypoAOffset: 0
OS2TypoDescent: -204
OS2TypoDOffset: 0
OS2TypoLinegap: 92
OS2WinAscent: 805
OS2WinAOffset: 0
OS2WinDescent: 189
OS2WinDOffset: 0
HheadAscent: 805
HheadAOffset: 0
HheadDescent: -189
HheadDOffset: 0
OS2SubXSize: 665
OS2SubYSize: 716
OS2SubXOff: 0
OS2SubYOff: 143
OS2SupXSize: 665
OS2SupYSize: 716
OS2SupXOff: 0
OS2SupYOff: 491
OS2StrikeYSize: 51
OS2StrikeYPos: 265
OS2CapHeight: 704
OS2XHeight: 502
OS2Vendor: 'PfEd'
OS2CodePages: 00000001.00000000
OS2UnicodeRanges: 00000000.08000000.00000000.00000000
Lookup: 4 0 1 "'liga' Standard Ligatures lookup 0" { "'liga' Standard Ligatures lookup 0 subtable"  } ['liga' ('DFLT' <'dflt' > 'egyp' <'dflt' > 'hani' <'dflt' > 'kana' <'dflt' > 'latn' <'dflt' > ) ]
Lookup: 4 0 1 "'liga' Standard Ligatures lookup 1" { "'liga' Standard Ligatures lookup 1 subtable"  } ['liga' ('DFLT' <'dflt' > 'egyp' <'dflt' > 'hani' <'dflt' > 'kana' <'dflt' > 'latn' <'dflt' > ) ]
Lookup: 1 0 0 "'ss02' Style Set 2 lookup 2" { "'ss02' Style Set 2 lookup 2 subtable"  } ['ss02' ('DFLT' <'dflt' > 'egyp' <'dflt' > 'hani' <'dflt' > 'kana' <'dflt' > 'latn' <'dflt' > ) ]
Lookup: 1 0 0 "'ss03' Style Set 3 lookup 3" { "'ss03' Style Set 3 lookup 3 subtable"  } ['ss03' ('DFLT' <'dflt' > 'egyp' <'dflt' > 'hani' <'dflt' > 'kana' <'dflt' > 'latn' <'dflt' > ) ]

StartChar: .notdef
Encoding: 1114112 -1 0
Width: 1024
Flags: W
LayerCount: 2
Fore
SplineSet
34 0 m 1,0,-1
 34 682 l 1,1,-1
 486 682 l 1,2,-1
 486 0 l 1,3,-1
 34 0 l 1,0,-1
68 34 m 1,4,-1
 452 34 l 1,5,-1
 452 648 l 1,6,-1
 68 648 l 1,7,-1
 68 34 l 1,4,-1
EndSplineSet
EndChar

StartChar: numbersign
Encoding: 35 35 3
Width: 768
GlyphClass: 2
Flags: W
LayerCount: 2
Fore
SplineSet
644 432 m 1,0,-1
 526 432 l 1,1,-1
 500 288 l 1,2,-1
 614 288 l 1,3,-1
 614 232 l 1,4,-1
 490 232 l 1,5,-1
 456 50 l 1,6,-1
 402 60 l 1,7,-1
 432 232 l 1,8,-1
 290 232 l 1,9,-1
 256 50 l 1,10,-1
 202 60 l 1,11,-1
 232 232 l 1,12,-1
 124 232 l 1,13,-1
 124 288 l 1,14,-1
 242 288 l 1,15,-1
 268 432 l 1,16,-1
 154 432 l 1,17,-1
 154 488 l 1,18,-1
 278 488 l 1,19,-1
 312 671 l 1,20,-1
 366 661 l 1,21,-1
 336 488 l 1,22,-1
 478 488 l 1,23,-1
 512 671 l 1,24,-1
 566 661 l 1,25,-1
 536 488 l 1,26,-1
 644 488 l 1,27,-1
 644 432 l 1,0,-1
468 432 m 1,28,-1
 326 432 l 1,29,-1
 300 288 l 1,30,-1
 442 288 l 1,31,-1
 468 432 l 1,28,-1
EndSplineSet
EndChar

StartChar: hyphen
Encoding: 45 45 4
Width: 768
GlyphClass: 2
Flags: W
LayerCount: 2
Fore
SplineSet
520 280 m 1,0,-1
 248 280 l 1,1,-1
 248 336 l 1,2,-1
 520 336 l 1,3,-1
 520 280 l 1,0,-1
EndSplineSet
EndChar

StartChar: zero
Encoding: 48 48 5
Width: 768
GlyphClass: 2
Flags: W
LayerCount: 2
Fore
SplineSet
618 267 m 2,0,1
 618 146 618 146 564 78 c 0,2,3
 503 3 503 3 384 3 c 0,4,5
 268 3 268 3 206 78 c 0,6,7
 150 148 150 148 150 267 c 2,8,-1
 150 468 l 2,9,10
 150 580 150 580 210 648 c 0,11,12
 274 718 274 718 384 718 c 0,13,14
 490 718 490 718 556 646 c 0,15,16
 618 576 618 576 618 468 c 2,17,-1
 618 267 l 2,0,1
562 267 m 2,18,-1
 562 468 l 2,19,20
 562 553 562 553 516 606 c 0,21,22
 468 662 468 662 384 662 c 0,23,24
 297 662 297 662 250 608 c 0,25,26
 206 557 206 557 206 468 c 2,27,-1
 206 267 l 2,28,29
 206 59 206 59 384 59 c 128,-1,30
 562 59 562 59 562 267 c 2,18,-1
EndSplineSet
EndChar

StartChar: one
Encoding: 49 49 6
Width: 768
GlyphClass: 2
Flags: W
LayerCount: 2
Fore
SplineSet
490 676 m 1,0,-1
 489 17 l 1,1,-1
 433 17 l 1,2,-1
 434 648 l 1,3,-1
 278 648 l 1,4,-1
 278 704 l 1,5,-1
 462 704 l 1,6,-1
 490 676 l 1,0,-1
EndSplineSet
EndChar

StartChar: two
Encoding: 50 50 7
Width: 768
GlyphClass: 2
Flags: W
LayerCount: 2
Fore
SplineSet
602 520 m 0,0,1
 602 456 602 456 562 395 c 0,2,3
 538 356 538 356 476 294 c 2,4,-1
 253 73 l 1,5,-1
 588 73 l 1,6,-1
 588 17 l 1,7,-1
 186 17 l 1,8,-1
 166 65 l 1,9,10
 272 166 272 166 478 378 c 1,11,12
 546 454 546 454 546 520 c 0,13,14
 546 578 546 578 502.5 620 c 128,-1,15
 459 662 459 662 401 662 c 0,16,17
 327 662 327 662 285 615 c 0,18,19
 246 570 246 570 246 495 c 2,20,-1
 246 467 l 1,21,-1
 190 467 l 1,22,-1
 190 495 l 2,23,24
 190 594 190 594 246 654 c 0,25,26
 304 718 304 718 401 718 c 0,27,28
 482 718 482 718 542 659 c 128,-1,29
 602 600 602 600 602 520 c 0,0,1
EndSplineSet
EndChar

StartChar: three
Encoding: 51 51 8
Width: 768
GlyphClass: 2
Flags: W
LayerCount: 2
Fore
SplineSet
608 210 m 0,0,1
 608 121 608 121 542 60 c 0,2,3
 478 2 478 2 388 2 c 0,4,5
 234 2 234 2 160 179 c 1,6,-1
 212 200 l 1,7,8
 271 58 271 58 388 58 c 0,9,10
 455 58 455 58 502 100 c 0,11,12
 552 144 552 144 552 210 c 0,13,14
 552 284 552 284 491 324 c 0,15,16
 438 359 438 359 361 355 c 1,17,-1
 354 410 l 1,18,19
 514 440 514 440 514 552 c 0,20,21
 514 602 514 602 473 633 c 0,22,23
 436 662 436 662 384 662 c 0,24,25
 304 662 304 662 252 570 c 1,26,-1
 204 598 l 1,27,28
 272 718 272 718 384 718 c 0,29,30
 459 718 459 718 513 673 c 0,31,32
 570 625 570 625 570 552 c 0,33,34
 570 450 570 450 478 394 c 1,35,36
 608 344 608 344 608 210 c 0,0,1
EndSplineSet
EndChar

StartChar: four
Encoding: 52 52 9
Width: 768
GlyphClass: 2
Flags: W
LayerCount: 2
Fore
SplineSet
636 152 m 1,0,-1
 528 152 l 1,1,-1
 528 17 l 1,2,-1
 472 17 l 1,3,-1
 472 152 l 1,4,-1
 156 152 l 1,5,-1
 132 196 l 1,6,-1
 476 720 l 1,7,-1
 528 705 l 1,8,-1
 528 208 l 1,9,-1
 636 208 l 1,10,-1
 636 152 l 1,0,-1
472 208 m 1,11,-1
 472 612 l 1,12,-1
 208 208 l 1,13,-1
 472 208 l 1,11,-1
EndSplineSet
EndChar

StartChar: five
Encoding: 53 53 10
Width: 768
GlyphClass: 2
Flags: W
LayerCount: 2
Fore
SplineSet
607 232 m 0,0,1
 607 136 607 136 542.5 69.5 c 128,-1,2
 478 3 478 3 383 3 c 0,3,4
 280 3 280 3 219 75 c 0,5,6
 163 142 163 142 161 248 c 1,7,-1
 217 248 l 1,8,9
 218 166 218 166 259 115 c 0,10,11
 303 59 303 59 383 59 c 0,12,13
 455 59 455 59 503 110 c 0,14,15
 551 160 551 160 551 232 c 0,16,17
 551 303 551 303 506 354 c 0,18,19
 459 406 459 406 389 406 c 0,20,21
 342 406 342 406 309 384 c 128,-1,22
 276 362 276 362 243 340 c 1,23,-1
 202 370 l 1,24,-1
 260 681 l 1,25,-1
 287 704 l 1,26,-1
 575 704 l 1,27,-1
 575 648 l 1,28,-1
 311 648 l 1,29,-1
 270 428 l 1,30,31
 329 462 329 462 389 462 c 0,32,33
 483 462 483 462 546 394 c 0,34,35
 607 326 607 326 607 232 c 0,0,1
EndSplineSet
EndChar

StartChar: six
Encoding: 54 54 11
Width: 768
GlyphClass: 2
Flags: W
LayerCount: 2
Fore
SplineSet
607 230 m 0,0,1
 607 134 607 134 543 68.5 c 128,-1,2
 479 3 479 3 383 3 c 0,3,4
 289 3 289 3 225 70.5 c 128,-1,5
 161 138 161 138 161 232 c 0,6,7
 161 288 161 288 186 341 c 0,8,9
 201 370 201 370 246 436 c 2,10,-1
 442 715 l 1,11,-1
 488 683 l 1,12,-1
 292 404 l 2,13,14
 252 346 252 346 241 324 c 0,15,16
 217 278 217 278 217 232 c 0,17,18
 217 162 217 162 264 111 c 0,19,20
 312 59 312 59 383 59 c 0,21,22
 456 59 456 59 503.5 108 c 128,-1,23
 551 157 551 157 551 230 c 0,24,25
 551 293 551 293 509 344 c 0,26,27
 464 399 464 399 402 399 c 2,28,-1
 374 399 l 1,29,-1
 374 455 l 1,30,-1
 402 455 l 2,31,32
 487 455 487 455 549 384 c 0,33,34
 607 316 607 316 607 230 c 0,0,1
EndSplineSet
EndChar

StartChar: seven
Encoding: 55 55 12
Width: 768
GlyphClass: 2
Flags: W
LayerCount: 2
Fore
SplineSet
584 664 m 1,0,-1
 282 8 l 1,1,-1
 232 32 l 1,2,-1
 515 648 l 1,3,-1
 184 648 l 1,4,-1
 184 704 l 1,5,-1
 559 704 l 1,6,-1
 584 664 l 1,0,-1
EndSplineSet
EndChar

StartChar: eight
Encoding: 56 56 13
Width: 768
GlyphClass: 2
Flags: W
LayerCount: 2
Fore
SplineSet
599 216 m 0,0,1
 599 126 599 126 535 64.5 c 128,-1,2
 471 3 471 3 381 3 c 0,3,4
 293 3 293 3 231 63.5 c 128,-1,5
 169 124 169 124 169 211 c 0,6,7
 169 270 169 270 198 320 c 128,-1,8
 227 370 227 370 278 398 c 1,9,10
 200 448 200 448 200 543 c 0,11,12
 200 618 200 618 254 668 c 256,13,14
 308 718 308 718 383 718 c 0,15,16
 456 718 456 718 508 666.5 c 128,-1,17
 560 615 560 615 560 542 c 0,18,19
 560 452 560 452 482 399 c 1,20,21
 536 372 536 372 567.5 323 c 128,-1,22
 599 274 599 274 599 216 c 0,0,1
504 543 m 128,-1,24
 504 592 504 592 468 627 c 128,-1,25
 432 662 432 662 383 662 c 0,26,27
 331 662 331 662 293.5 628 c 128,-1,28
 256 594 256 594 256 543 c 0,29,30
 256 490 256 490 292.5 457 c 128,-1,31
 329 424 329 424 382 424 c 0,32,33
 431 424 431 424 467.5 459 c 128,-1,23
 504 494 504 494 504 543 c 128,-1,24
543 216 m 0,34,35
 543 280 543 280 494.5 324 c 128,-1,36
 446 368 446 368 382 368 c 0,37,38
 316 368 316 368 270.5 322.5 c 128,-1,39
 225 277 225 277 225 211 c 0,40,41
 225 146 225 146 270.5 102.5 c 128,-1,42
 316 59 316 59 381 59 c 0,43,44
 448 59 448 59 495.5 104 c 128,-1,45
 543 149 543 149 543 216 c 0,34,35
EndSplineSet
EndChar

StartChar: nine
Encoding: 57 57 14
Width: 768
GlyphClass: 2
Flags: W
LayerCount: 2
Fore
SplineSet
607 486 m 0,0,1
 607 430 607 430 581 378 c 0,2,3
 568 352 568 352 522 283 c 2,4,-1
 336 6 l 1,5,-1
 289 38 l 1,6,7
 342 114 342 114 446 268 c 1,8,9
 417 260 417 260 386 260 c 0,10,11
 292 260 292 260 226 328 c 0,12,13
 161 396 161 396 161 490 c 256,14,15
 161 584 161 584 226.5 651 c 128,-1,16
 292 718 292 718 386 718 c 0,17,18
 479 718 479 718 544 648 c 0,19,20
 607 580 607 580 607 486 c 0,0,1
551 486 m 0,21,22
 551 557 551 557 504 608 c 0,23,24
 456 662 456 662 386 662 c 256,25,26
 316 662 316 662 266.5 611 c 128,-1,27
 217 560 217 560 217 490 c 256,28,29
 217 420 217 420 266 368 c 128,-1,30
 315 316 315 316 386 316 c 0,31,32
 454 316 454 316 520 382 c 1,33,34
 551 436 551 436 551 486 c 0,21,22
EndSplineSet
EndChar

StartChar: A
Encoding: 65 65 15
Width: 768
GlyphClass: 2
Flags: W
LayerCount: 2
Fore
SplineSet
687 30 m 1,0,-1
 636 8 l 1,1,-1
 536 244 l 1,2,-1
 232 244 l 1,3,-1
 132 8 l 1,4,-1
 81 30 l 1,5,-1
 358 687 l 1,6,-1
 410 687 l 1,7,-1
 687 30 l 1,0,-1
512 300 m 1,8,-1
 384 604 l 1,9,-1
 256 300 l 1,10,-1
 512 300 l 1,8,-1
EndSplineSet
Substitution2: "'ss04' Style Set 4 lookup 4 subtable" u1313F
Substitution2: "'ss03' Style Set 3 lookup 3 subtable" A.hier
Substitution2: "'ss02' Style Set 2 lookup 2 subtable" A.tran
EndChar

StartChar: B
Encoding: 66 66 16
Width: 768
GlyphClass: 2
Flags: W
LayerCount: 2
Fore
SplineSet
597 202 m 0,0,1
 597 36 597 36 200 17 c 1,2,-1
 171 45 l 1,3,-1
 171 676 l 1,4,-1
 200 704 l 1,5,6
 597 684 597 684 597 518 c 0,7,8
 597 406 597 406 434 360 c 1,9,10
 597 315 597 315 597 202 c 0,0,1
541 518 m 0,11,12
 541 584 541 584 412 620 c 0,13,14
 336 640 336 640 227 646 c 1,15,-1
 227 388 l 1,16,17
 332 391 332 391 413 412 c 0,18,19
 541 447 541 447 541 518 c 0,11,12
541 202 m 0,20,21
 541 274 541 274 413 308 c 0,22,23
 332 330 332 330 227 332 c 1,24,-1
 227 74 l 1,25,26
 336 82 336 82 412 102 c 0,27,28
 541 136 541 136 541 202 c 0,20,21
EndSplineSet
EndChar

StartChar: C
Encoding: 67 67 17
Width: 768
GlyphClass: 2
Flags: W
LayerCount: 2
Fore
SplineSet
650 47 m 1,0,1
 557 3 557 3 476 3 c 0,2,3
 328 3 328 3 223 107.5 c 128,-1,4
 118 212 118 212 118 360 c 128,-1,5
 118 508 118 508 223 613 c 128,-1,6
 328 718 328 718 476 718 c 0,7,8
 556 718 556 718 650 674 c 1,9,-1
 627 624 l 1,10,11
 544 662 544 662 476 662 c 0,12,13
 351 662 351 662 262.5 573.5 c 128,-1,14
 174 485 174 485 174 360.5 c 128,-1,15
 174 236 174 236 262.5 147.5 c 128,-1,16
 351 59 351 59 476 59 c 0,17,18
 543 59 543 59 627 98 c 1,19,-1
 650 47 l 1,0,1
EndSplineSet
Substitution2: "'ss01' Style Set 1 lookup 5 subtable" u1337F
EndChar

StartChar: D
Encoding: 68 68 18
Width: 768
GlyphClass: 2
Flags: W
LayerCount: 2
Fore
SplineSet
610 360.5 m 128,-1,1
 610 203 610 203 473 105 c 0,2,3
 350 17 350 17 186 17 c 1,4,-1
 158 45 l 1,5,-1
 158 676 l 1,6,-1
 186 704 l 1,7,8
 350 704 350 704 473 616 c 0,9,0
 610 518 610 518 610 360.5 c 128,-1,1
554 360 m 128,-1,11
 554 486 554 486 444 568 c 0,12,13
 348 639 348 639 214 647 c 1,14,-1
 214 74 l 1,15,16
 348 82 348 82 444 154 c 0,17,10
 554 234 554 234 554 360 c 128,-1,11
EndSplineSet
Substitution2: "'ss04' Style Set 4 lookup 4 subtable" u13193
Substitution2: "'ss03' Style Set 3 lookup 3 subtable" D.hier
Substitution2: "'ss02' Style Set 2 lookup 2 subtable" D.tran
EndChar

StartChar: E
Encoding: 69 69 19
Width: 768
GlyphClass: 2
Flags: W
LayerCount: 2
Fore
SplineSet
564 17 m 1,0,-1
 232 17 l 1,1,-1
 204 45 l 1,2,-1
 204 676 l 1,3,-1
 232 704 l 1,4,-1
 564 704 l 1,5,-1
 564 648 l 1,6,-1
 260 648 l 1,7,-1
 260 388 l 1,8,-1
 564 388 l 1,9,-1
 564 332 l 1,10,-1
 260 332 l 1,11,-1
 260 73 l 1,12,-1
 564 73 l 1,13,-1
 564 17 l 1,0,-1
EndSplineSet
EndChar

StartChar: F
Encoding: 70 70 20
Width: 768
GlyphClass: 2
Flags: W
LayerCount: 2
Fore
SplineSet
564 332 m 1,0,-1
 260 332 l 1,1,-1
 260 17 l 1,2,-1
 204 17 l 1,3,-1
 204 676 l 1,4,-1
 232 704 l 1,5,-1
 564 704 l 1,6,-1
 564 648 l 1,7,-1
 260 648 l 1,8,-1
 260 388 l 1,9,-1
 564 388 l 1,10,-1
 564 332 l 1,0,-1
EndSplineSet
EndChar

StartChar: G
Encoding: 71 71 21
Width: 768
GlyphClass: 2
Flags: W
LayerCount: 2
Fore
SplineSet
650 674 m 1,0,-1
 627 624 l 1,1,2
 544 662 544 662 476 662 c 0,3,4
 351 662 351 662 262.5 573.5 c 128,-1,5
 174 485 174 485 174 360 c 0,6,7
 174 236 174 236 262.5 147.5 c 128,-1,8
 351 59 351 59 476 59 c 0,9,10
 532 59 532 59 585 80 c 1,11,-1
 585 282 l 1,12,-1
 448 282 l 1,13,-1
 448 338 l 1,14,-1
 613 338 l 1,15,-1
 641 310 l 1,16,-1
 641 61 l 1,17,-1
 624 36 l 1,18,19
 554 3 554 3 476 3 c 0,20,21
 328 3 328 3 223 107.5 c 128,-1,22
 118 212 118 212 118 360 c 128,-1,23
 118 508 118 508 223 613 c 128,-1,24
 328 718 328 718 476 718 c 0,25,26
 556 718 556 718 650 674 c 1,0,-1
EndSplineSet
EndChar

StartChar: H
Encoding: 72 72 22
Width: 768
GlyphClass: 2
Flags: W
LayerCount: 2
Fore
SplineSet
594 17 m 1,0,-1
 538 17 l 1,1,-1
 538 332 l 1,2,-1
 230 332 l 1,3,-1
 230 17 l 1,4,-1
 174 17 l 1,5,-1
 174 704 l 1,6,-1
 230 704 l 1,7,-1
 230 388 l 1,8,-1
 538 388 l 1,9,-1
 538 704 l 1,10,-1
 594 704 l 1,11,-1
 594 17 l 1,0,-1
EndSplineSet
Substitution2: "'ss04' Style Set 4 lookup 4 subtable" u1339B
Substitution2: "'ss03' Style Set 3 lookup 3 subtable" H.hier
Substitution2: "'ss02' Style Set 2 lookup 2 subtable" H.tran
EndChar

StartChar: I
Encoding: 73 73 23
Width: 768
GlyphClass: 2
Flags: W
LayerCount: 2
Fore
SplineSet
412 17 m 1,0,-1
 356 17 l 1,1,-1
 356 704 l 1,2,-1
 412 704 l 1,3,-1
 412 17 l 1,0,-1
EndSplineSet
Substitution2: "'ss04' Style Set 4 lookup 4 subtable" u133ED
Substitution2: "'ss03' Style Set 3 lookup 3 subtable" I.hier
Substitution2: "'ss02' Style Set 2 lookup 2 subtable" I.tran
EndChar

StartChar: J
Encoding: 74 74 24
Width: 768
GlyphClass: 2
Flags: W
LayerCount: 2
Fore
SplineSet
544 110 m 2,0,1
 544 -147 544 -147 252 -147 c 2,2,-1
 224 -147 l 1,3,-1
 224 -91 l 1,4,-1
 252 -91 l 2,5,6
 488 -91 488 -91 488 110 c 2,7,-1
 488 704 l 1,8,-1
 544 704 l 1,9,-1
 544 110 l 2,0,1
EndSplineSet
EndChar

StartChar: K
Encoding: 75 75 25
Width: 768
GlyphClass: 2
Flags: W
LayerCount: 2
Fore
SplineSet
580 76 m 1,0,-1
 542 36 l 1,1,-1
 244 316 l 1,2,-1
 244 17 l 1,3,-1
 188 17 l 1,4,-1
 188 704 l 1,5,-1
 244 704 l 1,6,-1
 244 406 l 1,7,-1
 542 686 l 1,8,-1
 580 644 l 1,9,-1
 278 360 l 1,10,-1
 580 76 l 1,0,-1
EndSplineSet
Substitution2: "'ss01' Style Set 1 lookup 5 subtable" uniE200
Substitution2: "'ss04' Style Set 4 lookup 4 subtable" uniE200
Substitution2: "'ss03' Style Set 3 lookup 3 subtable" K.hier
Substitution2: "'ss02' Style Set 2 lookup 2 subtable" K.tran
EndChar

StartChar: L
Encoding: 76 76 26
Width: 768
GlyphClass: 2
Flags: W
LayerCount: 2
Fore
SplineSet
594 17 m 1,0,-1
 202 17 l 1,1,-1
 174 45 l 1,2,-1
 174 704 l 1,3,-1
 230 704 l 1,4,-1
 230 73 l 1,5,-1
 594 73 l 1,6,-1
 594 17 l 1,0,-1
EndSplineSet
EndChar

StartChar: M
Encoding: 77 77 27
Width: 768
GlyphClass: 2
Flags: W
LayerCount: 2
Fore
SplineSet
674 17 m 1,0,-1
 618 17 l 1,1,-1
 618 590 l 1,2,-1
 406 299 l 1,3,-1
 362 299 l 1,4,-1
 150 590 l 1,5,-1
 150 17 l 1,6,-1
 94 17 l 1,7,-1
 94 676 l 1,8,-1
 145 692 l 1,9,-1
 384 363 l 1,10,-1
 623 692 l 1,11,-1
 674 676 l 1,12,-1
 674 17 l 1,0,-1
EndSplineSet
Substitution2: "'ss04' Style Set 4 lookup 4 subtable" u1341D
Substitution2: "'ss03' Style Set 3 lookup 3 subtable" M.hier
Substitution2: "'ss02' Style Set 2 lookup 2 subtable" M.tran
EndChar

StartChar: N
Encoding: 78 78 28
Width: 768
GlyphClass: 2
Flags: W
LayerCount: 2
Fore
SplineSet
619 45 m 1,0,-1
 568 30 l 1,1,-1
 205 582 l 1,2,-1
 205 17 l 1,3,-1
 149 17 l 1,4,-1
 149 676 l 1,5,-1
 200 692 l 1,6,-1
 563 138 l 1,7,-1
 563 704 l 1,8,-1
 619 704 l 1,9,-1
 619 45 l 1,0,-1
EndSplineSet
Substitution2: "'ss01' Style Set 1 lookup 5 subtable" u132D4
Substitution2: "'ss04' Style Set 4 lookup 4 subtable" u132D4
Substitution2: "'ss03' Style Set 3 lookup 3 subtable" N.hier
Substitution2: "'ss02' Style Set 2 lookup 2 subtable" N.tran
EndChar

StartChar: O
Encoding: 79 79 29
Width: 768
GlyphClass: 2
Flags: W
LayerCount: 2
Fore
SplineSet
714 360.5 m 128,-1,1
 714 224 714 224 617 127.5 c 128,-1,2
 520 31 520 31 384 31 c 128,-1,3
 248 31 248 31 151 127.5 c 128,-1,4
 54 224 54 224 54 360.5 c 128,-1,5
 54 497 54 497 151 593.5 c 128,-1,6
 248 690 248 690 384 690 c 128,-1,7
 520 690 520 690 617 593.5 c 128,-1,0
 714 497 714 497 714 360.5 c 128,-1,1
658 361 m 128,-1,9
 658 474 658 474 577.5 554 c 128,-1,10
 497 634 497 634 384 634 c 128,-1,11
 271 634 271 634 190.5 554 c 128,-1,12
 110 474 110 474 110 361 c 128,-1,13
 110 248 110 248 190.5 167.5 c 128,-1,14
 271 87 271 87 384 87 c 128,-1,15
 497 87 497 87 577.5 167.5 c 128,-1,8
 658 248 658 248 658 361 c 128,-1,9
EndSplineSet
EndChar

StartChar: P
Encoding: 80 80 30
Width: 768
GlyphClass: 2
Flags: W
LayerCount: 2
Fore
SplineSet
599 492 m 0,0,1
 599 314 599 314 225 284 c 1,2,-1
 225 17 l 1,3,-1
 169 17 l 1,4,-1
 169 676 l 1,5,-1
 199 704 l 1,6,7
 599 676 599 676 599 492 c 0,0,1
543 492.5 m 128,-1,9
 543 619 543 619 225 646 c 1,10,-1
 225 340 l 1,11,8
 543 366 543 366 543 492.5 c 128,-1,9
EndSplineSet
EndChar

StartChar: Q
Encoding: 81 81 31
Width: 768
GlyphClass: 2
Flags: W
LayerCount: 2
Fore
SplineSet
714 360 m 0,0,1
 714 269 714 269 666 190 c 0,2,3
 620 115 620 115 542 72 c 1,4,-1
 690 -83 l 1,5,-1
 650 -122 l 1,6,-1
 488 48 l 1,7,8
 437 31 437 31 384 31 c 0,9,10
 248 31 248 31 151 127.5 c 128,-1,11
 54 224 54 224 54 360.5 c 128,-1,12
 54 497 54 497 151 593.5 c 128,-1,13
 248 690 248 690 384 690 c 128,-1,14
 520 690 520 690 617 593.5 c 128,-1,15
 714 497 714 497 714 360 c 0,0,1
658 360 m 0,16,17
 658 474 658 474 577.5 554 c 128,-1,18
 497 634 497 634 384 634 c 128,-1,19
 271 634 271 634 190.5 554 c 128,-1,20
 110 474 110 474 110 361 c 128,-1,21
 110 248 110 248 190.5 167.5 c 128,-1,22
 271 87 271 87 384 87 c 0,23,24
 416 87 416 87 444 94 c 1,25,-1
 351 192 l 1,26,-1
 392 230 l 1,27,-1
 502 114 l 1,28,29
 572 148 572 148 614 213 c 0,30,31
 658 280 658 280 658 360 c 0,16,17
EndSplineSet
EndChar

StartChar: R
Encoding: 82 82 32
Width: 768
GlyphClass: 2
Flags: W
LayerCount: 2
Fore
SplineSet
599 492 m 0,0,1
 599 326 599 326 282 289 c 1,2,-1
 595 56 l 1,3,-1
 562 11 l 1,4,-1
 225 262 l 1,5,-1
 225 17 l 1,6,-1
 169 17 l 1,7,-1
 169 676 l 1,8,-1
 199 704 l 1,9,10
 599 676 599 676 599 492 c 0,0,1
543 492 m 0,11,12
 543 619 543 619 225 646 c 1,13,-1
 225 340 l 1,14,15
 543 364 543 364 543 492 c 0,11,12
EndSplineSet
Substitution2: "'ss01' Style Set 1 lookup 5 subtable" u13090
Substitution2: "'ss04' Style Set 4 lookup 4 subtable" u13090
Substitution2: "'ss03' Style Set 3 lookup 3 subtable" R.hier
Substitution2: "'ss02' Style Set 2 lookup 2 subtable" R.tran
EndChar

StartChar: S
Encoding: 83 83 33
Width: 768
GlyphClass: 2
Flags: W
LayerCount: 2
Fore
SplineSet
628 642 m 1,0,-1
 600 593 l 1,1,2
 480 662 480 662 388 662 c 0,3,4
 312 662 312 662 262 634 c 0,5,6
 202 598 202 598 202 528 c 0,7,8
 202 438 202 438 310 408 c 1,9,-1
 514 360 l 1,10,11
 622 318 622 318 622 196 c 0,12,13
 622 104 622 104 545 50 c 0,14,15
 476 3 476 3 380 3 c 0,16,17
 278 3 278 3 140 56 c 1,18,-1
 160 108 l 1,19,20
 285 59 285 59 380 59 c 0,21,22
 452 59 452 59 504 91 c 0,23,24
 566 129 566 129 566 196 c 0,25,26
 566 289 566 289 458 320 c 1,27,28
 356 344 356 344 254 366 c 1,29,30
 146 408 146 408 146 528 c 0,31,32
 146 623 146 623 222 674 c 0,33,34
 288 718 288 718 388 718 c 0,35,36
 494 718 494 718 628 642 c 1,0,-1
EndSplineSet
Substitution2: "'ss01' Style Set 1 lookup 5 subtable" u13219
Substitution2: "'ss04' Style Set 4 lookup 4 subtable" u13219
Substitution2: "'ss03' Style Set 3 lookup 3 subtable" S.hier
Substitution2: "'ss02' Style Set 2 lookup 2 subtable" S.tran
EndChar

StartChar: T
Encoding: 84 84 34
Width: 768
GlyphClass: 2
Flags: W
LayerCount: 2
Fore
SplineSet
666 648 m 1,0,-1
 412 648 l 1,1,-1
 412 17 l 1,2,-1
 356 17 l 1,3,-1
 356 648 l 1,4,-1
 102 648 l 1,5,-1
 102 704 l 1,6,-1
 666 704 l 1,7,-1
 666 648 l 1,0,-1
EndSplineSet
Substitution2: "'ss04' Style Set 4 lookup 4 subtable" u13380
Substitution2: "'ss03' Style Set 3 lookup 3 subtable" T.hier
Substitution2: "'ss02' Style Set 2 lookup 2 subtable" T.tran
EndChar

StartChar: U
Encoding: 85 85 35
Width: 768
GlyphClass: 2
Flags: W
LayerCount: 2
Fore
SplineSet
676 310 m 2,0,1
 676 176 676 176 598 91 c 0,2,3
 518 3 518 3 384 3 c 128,-1,4
 250 3 250 3 170 91 c 0,5,6
 92 176 92 176 92 310 c 2,7,-1
 92 704 l 1,8,-1
 148 704 l 1,9,-1
 148 310 l 2,10,11
 148 199 148 199 210 130 c 0,12,13
 274 59 274 59 384 59 c 128,-1,14
 494 59 494 59 558 130 c 0,15,16
 620 199 620 199 620 310 c 2,17,-1
 620 704 l 1,18,-1
 676 704 l 1,19,-1
 676 310 l 2,0,1
EndSplineSet
EndChar

StartChar: V
Encoding: 86 86 36
Width: 768
GlyphClass: 2
Flags: W
LayerCount: 2
Fore
SplineSet
705 688 m 1,0,-1
 410 17 l 1,1,-1
 358 17 l 1,2,-1
 63 688 l 1,3,-1
 114 710 l 1,4,-1
 384 98 l 1,5,-1
 654 710 l 1,6,-1
 705 688 l 1,0,-1
EndSplineSet
EndChar

StartChar: W
Encoding: 87 87 37
Width: 768
GlyphClass: 2
Flags: W
LayerCount: 2
Fore
SplineSet
840 688 m 1,0,-1
 544 17 l 1,1,-1
 494 17 l 1,2,-1
 384 266 l 1,3,-1
 274 17 l 1,4,-1
 224 17 l 1,5,-1
 -72 688 l 1,6,-1
 -20 710 l 1,7,-1
 249 98 l 1,8,-1
 354 335 l 1,9,-1
 198 688 l 1,10,-1
 250 710 l 1,11,-1
 384 404 l 1,12,-1
 518 710 l 1,13,-1
 570 688 l 1,14,-1
 414 335 l 1,15,-1
 519 98 l 1,16,-1
 788 710 l 1,17,-1
 840 688 l 1,0,-1
EndSplineSet
Substitution2: "'ss04' Style Set 4 lookup 4 subtable" u133F2
Substitution2: "'ss03' Style Set 3 lookup 3 subtable" W.hier
Substitution2: "'ss02' Style Set 2 lookup 2 subtable" W.tran
EndChar

StartChar: X
Encoding: 88 88 38
Width: 768
GlyphClass: 2
Flags: W
LayerCount: 2
Fore
SplineSet
655 39 m 1,0,-1
 610 6 l 1,1,-1
 384 313 l 1,2,-1
 158 6 l 1,3,-1
 113 39 l 1,4,-1
 349 360 l 1,5,-1
 113 682 l 1,6,-1
 158 715 l 1,7,-1
 384 408 l 1,8,-1
 610 715 l 1,9,-1
 655 682 l 1,10,-1
 419 360 l 1,11,-1
 655 39 l 1,0,-1
EndSplineSet
Substitution2: "'ss04' Style Set 4 lookup 4 subtable" u13121
Substitution2: "'ss03' Style Set 3 lookup 3 subtable" X.hier
Substitution2: "'ss02' Style Set 2 lookup 2 subtable" X.tran
EndChar

StartChar: Y
Encoding: 89 89 39
Width: 768
GlyphClass: 2
Flags: W
LayerCount: 2
Fore
SplineSet
674 682 m 1,0,-1
 412 337 l 1,1,-1
 412 17 l 1,2,-1
 356 17 l 1,3,-1
 356 337 l 1,4,-1
 94 682 l 1,5,-1
 138 715 l 1,6,-1
 384 392 l 1,7,-1
 630 715 l 1,8,-1
 674 682 l 1,0,-1
EndSplineSet
EndChar

StartChar: Z
Encoding: 90 90 40
Width: 768
GlyphClass: 2
Flags: W
LayerCount: 2
Fore
SplineSet
594 17 m 1,0,-1
 202 17 l 1,1,-1
 178 59 l 1,2,-1
 518 648 l 1,3,-1
 174 648 l 1,4,-1
 174 704 l 1,5,-1
 566 704 l 1,6,-1
 590 662 l 1,7,-1
 250 73 l 1,8,-1
 594 73 l 1,9,-1
 594 17 l 1,0,-1
EndSplineSet
Substitution2: "'ss01' Style Set 1 lookup 5 subtable" u13193
EndChar

StartChar: asciicircum
Encoding: 94 94 41
Width: 768
GlyphClass: 2
Flags: W
LayerCount: 2
Fore
SplineSet
582 508 m 1,0,-1
 534 478 l 1,1,-1
 384 722 l 1,2,-1
 234 478 l 1,3,-1
 186 508 l 1,4,-1
 360 790 l 1,5,-1
 408 790 l 1,6,-1
 582 508 l 1,0,-1
EndSplineSet
EndChar

StartChar: grave
Encoding: 96 96 42
Width: 768
GlyphClass: 2
Flags: W
LayerCount: 2
Fore
SplineSet
463 548 m 1,0,-1
 412 526 l 1,1,-1
 305 772 l 1,2,-1
 356 794 l 1,3,-1
 463 548 l 1,0,-1
EndSplineSet
EndChar

StartChar: a
Encoding: 97 97 43
Width: 768
GlyphClass: 2
Flags: W
LayerCount: 2
Fore
SplineSet
621 32 m 1,0,-1
 570 8 l 1,1,-1
 494 172 l 1,2,-1
 274 172 l 1,3,-1
 198 8 l 1,4,-1
 147 32 l 1,5,-1
 359 486 l 1,6,-1
 410 486 l 1,7,-1
 621 32 l 1,0,-1
468 228 m 1,8,-1
 384 408 l 1,9,-1
 300 228 l 1,10,-1
 468 228 l 1,8,-1
EndSplineSet
Substitution2: "'ss01' Style Set 1 lookup 5 subtable" u1313F
Substitution2: "'ss04' Style Set 4 lookup 4 subtable" u1309D
Substitution2: "'ss03' Style Set 3 lookup 3 subtable" a.hier
Substitution2: "'ss02' Style Set 2 lookup 2 subtable" a.tran
EndChar

StartChar: b
Encoding: 98 98 44
Width: 768
GlyphClass: 2
Flags: W
LayerCount: 2
Fore
SplineSet
557 152 m 0,0,1
 557 34 557 34 240 17 c 1,2,-1
 211 45 l 1,3,-1
 211 474 l 1,4,-1
 240 502 l 1,5,6
 557 484 557 484 557 366 c 0,7,8
 557 292 557 292 444 260 c 1,9,10
 557 226 557 226 557 152 c 0,0,1
501 366 m 0,11,12
 501 403 501 403 404 425 c 0,13,14
 344 439 344 439 267 444 c 1,15,-1
 267 289 l 1,16,17
 501 306 501 306 501 366 c 0,11,12
501 152 m 0,18,19
 501 213 501 213 267 230 c 1,20,-1
 267 75 l 1,21,22
 501 90 501 90 501 152 c 0,18,19
EndSplineSet
Substitution2: "'ss01' Style Set 1 lookup 5 subtable" u130C0
Substitution2: "'ss04' Style Set 4 lookup 4 subtable" u130C0
Substitution2: "'ss03' Style Set 3 lookup 3 subtable" b.hier
Substitution2: "'ss02' Style Set 2 lookup 2 subtable" b.tran
EndChar

StartChar: c
Encoding: 99 99 45
Width: 768
GlyphClass: 2
Flags: W
LayerCount: 2
Fore
SplineSet
591 41 m 1,0,1
 513 8 513 8 452 8 c 0,2,3
 342 8 342 8 261 78 c 0,4,5
 177 152 177 152 177 260 c 128,-1,6
 177 368 177 368 261 441 c 0,7,8
 342 512 342 512 452 512 c 0,9,10
 512 512 512 512 591 478 c 1,11,-1
 570 427 l 1,12,13
 502 456 502 456 452 456 c 0,14,15
 365 456 365 456 301 402 c 0,16,17
 233 344 233 344 233 259 c 128,-1,18
 233 174 233 174 301 118 c 0,19,20
 365 64 365 64 452 64 c 0,21,22
 501 64 501 64 570 92 c 1,23,-1
 591 41 l 1,0,1
EndSplineSet
Substitution2: "'ss01' Style Set 1 lookup 5 subtable" u1340D
EndChar

StartChar: d
Encoding: 100 100 46
Width: 768
GlyphClass: 2
Flags: W
LayerCount: 2
Fore
SplineSet
579 260 m 128,-1,1
 579 120 579 120 485 62 c 0,2,3
 411 16 411 16 262 16 c 2,4,-1
 217 16 l 1,5,-1
 189 44 l 1,6,-1
 189 474 l 1,7,-1
 217 502 l 1,8,-1
 262 502 l 2,9,10
 411 502 411 502 485 457 c 0,11,0
 579 400 579 400 579 260 c 128,-1,1
523 260 m 0,12,13
 523 379 523 379 437 420 c 0,14,15
 381 446 381 446 245 446 c 1,16,-1
 245 72 l 1,17,-1
 262 72 l 2,18,19
 388 72 388 72 444 103 c 0,20,21
 523 145 523 145 523 260 c 0,12,13
EndSplineSet
Substitution2: "'ss01' Style Set 1 lookup 5 subtable" u130A7
Substitution2: "'ss04' Style Set 4 lookup 4 subtable" u130A7
Substitution2: "'ss03' Style Set 3 lookup 3 subtable" d.hier
Substitution2: "'ss02' Style Set 2 lookup 2 subtable" d.tran
EndChar

StartChar: e
Encoding: 101 101 47
Width: 768
GlyphClass: 2
Flags: W
LayerCount: 2
Fore
SplineSet
526 17 m 1,0,-1
 270 17 l 1,1,-1
 242 45 l 1,2,-1
 242 474 l 1,3,-1
 270 502 l 1,4,-1
 526 502 l 1,5,-1
 526 446 l 1,6,-1
 298 446 l 1,7,-1
 298 288 l 1,8,-1
 526 288 l 1,9,-1
 526 232 l 1,10,-1
 298 232 l 1,11,-1
 298 73 l 1,12,-1
 526 73 l 1,13,-1
 526 17 l 1,0,-1
EndSplineSet
Substitution2: "'ss01' Style Set 1 lookup 5 subtable" u133ED
EndChar

StartChar: f
Encoding: 102 102 48
Width: 768
GlyphClass: 2
Flags: W
LayerCount: 2
Fore
SplineSet
526 232 m 1,0,-1
 298 232 l 1,1,-1
 298 17 l 1,2,-1
 242 17 l 1,3,-1
 242 474 l 1,4,-1
 270 502 l 1,5,-1
 526 502 l 1,6,-1
 526 446 l 1,7,-1
 298 446 l 1,8,-1
 298 288 l 1,9,-1
 526 288 l 1,10,-1
 526 232 l 1,0,-1
EndSplineSet
Substitution2: "'ss01' Style Set 1 lookup 5 subtable" u13191
Substitution2: "'ss04' Style Set 4 lookup 4 subtable" u13191
Substitution2: "'ss03' Style Set 3 lookup 3 subtable" f.hier
Substitution2: "'ss02' Style Set 2 lookup 2 subtable" f.tran
EndChar

StartChar: g
Encoding: 103 103 49
Width: 768
GlyphClass: 2
Flags: W
LayerCount: 2
Fore
SplineSet
591 478 m 1,0,-1
 570 427 l 1,1,2
 502 456 502 456 452 456 c 0,3,4
 365 456 365 456 301 402 c 0,5,6
 233 344 233 344 233 259 c 128,-1,7
 233 174 233 174 301 118 c 0,8,9
 365 64 365 64 452 64 c 0,10,11
 490 64 490 64 527 76 c 1,12,-1
 527 198 l 1,13,-1
 424 198 l 1,14,-1
 424 254 l 1,15,-1
 555 254 l 1,16,-1
 583 226 l 1,17,-1
 583 56 l 1,18,-1
 566 30 l 1,19,20
 512 8 512 8 452 8 c 0,21,22
 342 8 342 8 261 78 c 0,23,24
 177 152 177 152 177 260 c 128,-1,25
 177 368 177 368 261 441 c 0,26,27
 342 512 342 512 452 512 c 0,28,29
 512 512 512 512 591 478 c 1,0,-1
EndSplineSet
Substitution2: "'ss01' Style Set 1 lookup 5 subtable" u133BC
Substitution2: "'ss04' Style Set 4 lookup 4 subtable" u133BC
Substitution2: "'ss03' Style Set 3 lookup 3 subtable" g.hier
Substitution2: "'ss02' Style Set 2 lookup 2 subtable" g.tran
EndChar

StartChar: h
Encoding: 104 104 50
Width: 768
GlyphClass: 2
Flags: W
LayerCount: 2
Fore
SplineSet
567 17 m 1,0,-1
 511 17 l 1,1,-1
 511 232 l 1,2,-1
 257 232 l 1,3,-1
 257 17 l 1,4,-1
 201 17 l 1,5,-1
 201 502 l 1,6,-1
 257 502 l 1,7,-1
 257 288 l 1,8,-1
 511 288 l 1,9,-1
 511 502 l 1,10,-1
 567 502 l 1,11,-1
 567 17 l 1,0,-1
EndSplineSet
Substitution2: "'ss01' Style Set 1 lookup 5 subtable" u13254
Substitution2: "'ss04' Style Set 4 lookup 4 subtable" u13254
Substitution2: "'ss03' Style Set 3 lookup 3 subtable" h.hier
Substitution2: "'ss02' Style Set 2 lookup 2 subtable" h.tran
EndChar

StartChar: i
Encoding: 105 105 51
Width: 768
GlyphClass: 2
Flags: W
LayerCount: 2
Fore
SplineSet
412 17 m 1,0,-1
 356 17 l 1,1,-1
 356 502 l 1,2,-1
 412 502 l 1,3,-1
 412 17 l 1,0,-1
EndSplineSet
Substitution2: "'ss01' Style Set 1 lookup 5 subtable" u131CB
Substitution2: "'ss04' Style Set 4 lookup 4 subtable" u131CB
Substitution2: "'ss03' Style Set 3 lookup 3 subtable" i.hier
Substitution2: "'ss02' Style Set 2 lookup 2 subtable" i.tran
EndChar

StartChar: j
Encoding: 106 106 52
Width: 768
GlyphClass: 2
Flags: W
LayerCount: 2
Fore
SplineSet
511 90 m 2,0,1
 511 -94 511 -94 285 -94 c 2,2,-1
 257 -94 l 1,3,-1
 257 -38 l 1,4,-1
 285 -38 l 2,5,6
 455 -38 455 -38 455 90 c 2,7,-1
 455 502 l 1,8,-1
 511 502 l 1,9,-1
 511 90 l 2,0,1
EndSplineSet
Substitution2: "'ss01' Style Set 1 lookup 5 subtable" u1339B
Substitution2: "'ss04' Style Set 4 lookup 4 subtable" u133ED
Substitution2: "'ss03' Style Set 3 lookup 3 subtable" I.hier
Substitution2: "'ss02' Style Set 2 lookup 2 subtable" I.tran
EndChar

StartChar: k
Encoding: 107 107 53
Width: 768
GlyphClass: 2
Flags: W
LayerCount: 2
Fore
SplineSet
548 104 m 1,0,-1
 515 60 l 1,1,-1
 276 241 l 1,2,-1
 276 17 l 1,3,-1
 220 17 l 1,4,-1
 220 502 l 1,5,-1
 276 502 l 1,6,-1
 276 304 l 1,7,-1
 515 486 l 1,8,-1
 548 442 l 1,9,-1
 327 272 l 1,10,-1
 548 104 l 1,0,-1
EndSplineSet
Substitution2: "'ss01' Style Set 1 lookup 5 subtable" u133A1
Substitution2: "'ss04' Style Set 4 lookup 4 subtable" u133A1
Substitution2: "'ss03' Style Set 3 lookup 3 subtable" k.hier
Substitution2: "'ss02' Style Set 2 lookup 2 subtable" k.tran
EndChar

StartChar: l
Encoding: 108 108 54
Width: 768
GlyphClass: 2
Flags: W
LayerCount: 2
Fore
SplineSet
552 17 m 1,0,-1
 244 17 l 1,1,-1
 216 45 l 1,2,-1
 216 502 l 1,3,-1
 272 502 l 1,4,-1
 272 73 l 1,5,-1
 552 73 l 1,6,-1
 552 17 l 1,0,-1
EndSplineSet
Substitution2: "'ss01' Style Set 1 lookup 5 subtable" u130ED
Substitution2: "'ss04' Style Set 4 lookup 4 subtable" u130ED
Substitution2: "'ss03' Style Set 3 lookup 3 subtable" l.hier
Substitution2: "'ss02' Style Set 2 lookup 2 subtable" l.tran
EndChar

StartChar: m
Encoding: 109 109 55
Width: 768
GlyphClass: 2
Flags: W
LayerCount: 2
Fore
SplineSet
608 17 m 1,0,-1
 552 17 l 1,1,-1
 552 404 l 1,2,-1
 406 218 l 1,3,-1
 362 218 l 1,4,-1
 216 404 l 1,5,-1
 216 17 l 1,6,-1
 160 17 l 1,7,-1
 160 484 l 1,8,-1
 210 502 l 1,9,-1
 384 281 l 1,10,-1
 558 502 l 1,11,-1
 608 484 l 1,12,-1
 608 17 l 1,0,-1
EndSplineSet
Substitution2: "'ss01' Style Set 1 lookup 5 subtable" u13153
Substitution2: "'ss04' Style Set 4 lookup 4 subtable" u13153
Substitution2: "'ss03' Style Set 3 lookup 3 subtable" m.hier
Substitution2: "'ss02' Style Set 2 lookup 2 subtable" m.tran
EndChar

StartChar: n
Encoding: 110 110 56
Width: 768
GlyphClass: 2
Flags: W
LayerCount: 2
Fore
SplineSet
560 62 m 1,0,-1
 510 45 l 1,1,-1
 264 373 l 1,2,-1
 264 17 l 1,3,-1
 208 17 l 1,4,-1
 208 457 l 1,5,-1
 258 474 l 1,6,-1
 504 146 l 1,7,-1
 504 502 l 1,8,-1
 560 502 l 1,9,-1
 560 62 l 1,0,-1
EndSplineSet
Substitution2: "'ss01' Style Set 1 lookup 5 subtable" u13216
Substitution2: "'ss04' Style Set 4 lookup 4 subtable" u13216
Substitution2: "'ss03' Style Set 3 lookup 3 subtable" n.hier
Substitution2: "'ss02' Style Set 2 lookup 2 subtable" n.tran
EndChar

StartChar: o
Encoding: 111 111 57
Width: 768
GlyphClass: 2
Flags: W
LayerCount: 2
Fore
SplineSet
638 260 m 128,-1,1
 638 160 638 160 560 92 c 0,2,3
 485 26 485 26 383.5 26 c 128,-1,4
 282 26 282 26 208 92 c 0,5,6
 130 160 130 160 130 260 c 128,-1,7
 130 360 130 360 208 428 c 0,8,9
 282 492 282 492 383.5 492 c 128,-1,10
 485 492 485 492 560 428 c 0,11,0
 638 360 638 360 638 260 c 128,-1,1
582 259.5 m 128,-1,13
 582 336 582 336 520 388 c 0,14,15
 462 436 462 436 384 436 c 128,-1,16
 306 436 306 436 247 388 c 0,17,18
 186 336 186 336 186 259.5 c 128,-1,19
 186 183 186 183 247 132 c 0,20,21
 306 82 306 82 384 82 c 128,-1,22
 462 82 462 82 520 132 c 0,23,12
 582 183 582 183 582 259.5 c 128,-1,13
EndSplineSet
Substitution2: "'ss01' Style Set 1 lookup 5 subtable" u1309D
EndChar

StartChar: p
Encoding: 112 112 58
Width: 768
GlyphClass: 2
Flags: W
LayerCount: 2
Fore
SplineSet
557 350 m 0,0,1
 557 220 557 220 267 198 c 1,2,-1
 267 17 l 1,3,-1
 211 17 l 1,4,-1
 211 474 l 1,5,-1
 241 502 l 1,6,7
 557 482 557 482 557 350 c 0,0,1
501 350 m 256,8,9
 501 426 501 426 267 444 c 1,10,-1
 267 254 l 1,11,12
 501 274 501 274 501 350 c 256,8,9
EndSplineSet
Substitution2: "'ss01' Style Set 1 lookup 5 subtable" u132AA
Substitution2: "'ss04' Style Set 4 lookup 4 subtable" u132AA
Substitution2: "'ss03' Style Set 3 lookup 3 subtable" p.hier
Substitution2: "'ss02' Style Set 2 lookup 2 subtable" p.tran
EndChar

StartChar: q
Encoding: 113 113 59
Width: 768
GlyphClass: 2
Flags: W
LayerCount: 2
Fore
SplineSet
659 260 m 0,0,1
 659 190 659 190 621 132 c 0,2,3
 586 76 586 76 525 44 c 1,4,-1
 642 -68 l 1,5,-1
 603 -108 l 1,6,-1
 468 20 l 1,7,8
 426 8 426 8 384 8 c 0,9,10
 274 8 274 8 193 78 c 0,11,12
 109 152 109 152 109 260 c 128,-1,13
 109 368 109 368 193 441 c 0,14,15
 274 512 274 512 384 512 c 128,-1,16
 494 512 494 512 575 441 c 0,17,18
 659 368 659 368 659 260 c 0,0,1
603 260 m 0,19,20
 603 344 603 344 535 402 c 0,21,22
 470 456 470 456 383.5 456 c 128,-1,23
 297 456 297 456 233 402 c 0,24,25
 165 344 165 344 165 259 c 128,-1,26
 165 174 165 174 233 118 c 0,27,28
 297 64 297 64 384 64 c 0,29,30
 403 64 403 64 419 66 c 1,31,-1
 350 132 l 1,32,-1
 388 173 l 1,33,-1
 481 84 l 1,34,35
 536 108 536 108 568 153 c 0,36,37
 603 201 603 201 603 260 c 0,19,20
EndSplineSet
Substitution2: "'ss01' Style Set 1 lookup 5 subtable" u1320E
Substitution2: "'ss04' Style Set 4 lookup 4 subtable" u1320E
Substitution2: "'ss03' Style Set 3 lookup 3 subtable" q.hier
Substitution2: "'ss02' Style Set 2 lookup 2 subtable" q.tran
EndChar

StartChar: r
Encoding: 114 114 60
Width: 768
GlyphClass: 2
Flags: W
LayerCount: 2
Fore
SplineSet
558 56 m 1,0,-1
 526 10 l 1,1,-1
 266 182 l 1,2,-1
 266 17 l 1,3,-1
 210 17 l 1,4,-1
 210 474 l 1,5,-1
 240 502 l 1,6,7
 556 482 556 482 556 350 c 0,8,9
 556 235 556 235 332 205 c 1,10,-1
 558 56 l 1,0,-1
500 350 m 256,11,12
 500 426 500 426 266 444 c 1,13,-1
 266 254 l 1,14,15
 500 274 500 274 500 350 c 256,11,12
EndSplineSet
Substitution2: "'ss01' Style Set 1 lookup 5 subtable" u1308B
Substitution2: "'ss04' Style Set 4 lookup 4 subtable" u1308B
Substitution2: "'ss03' Style Set 3 lookup 3 subtable" r.hier
Substitution2: "'ss02' Style Set 2 lookup 2 subtable" r.tran
EndChar

StartChar: s
Encoding: 115 115 61
Width: 768
GlyphClass: 2
Flags: W
LayerCount: 2
Fore
SplineSet
576 456 m 1,0,-1
 550 406 l 1,1,2
 455 456 455 456 386 456 c 0,3,4
 336 456 336 456 301 440 c 0,5,6
 254 418 254 418 254 374 c 0,7,8
 254 318 254 318 336 298 c 0,9,10
 412 282 412 282 488 266 c 1,11,12
 570 234 570 234 570 148 c 0,13,14
 570 79 570 79 507 40 c 0,15,16
 454 8 454 8 381 8 c 0,17,18
 302 8 302 8 192 46 c 1,19,-1
 210 99 l 1,20,21
 310 64 310 64 381 64 c 0,22,23
 429 64 429 64 466 82 c 0,24,25
 514 105 514 105 514 148 c 0,26,27
 514 206 514 206 432 224 c 0,28,29
 356 241 356 241 280 257 c 1,30,31
 198 288 198 288 198 374 c 0,32,33
 198 444 198 444 260 481 c 0,34,35
 311 512 311 512 386 512 c 0,36,37
 468 512 468 512 576 456 c 1,0,-1
EndSplineSet
Substitution2: "'ss01' Style Set 1 lookup 5 subtable" u132F4
Substitution2: "'ss04' Style Set 4 lookup 4 subtable" u132F4
Substitution2: "'ss03' Style Set 3 lookup 3 subtable" s.hier
Substitution2: "'ss02' Style Set 2 lookup 2 subtable" s.tran
EndChar

StartChar: t
Encoding: 116 116 62
Width: 768
GlyphClass: 2
Flags: W
LayerCount: 2
Fore
SplineSet
603 446 m 1,0,-1
 412 446 l 1,1,-1
 412 17 l 1,2,-1
 356 17 l 1,3,-1
 356 446 l 1,4,-1
 165 446 l 1,5,-1
 165 502 l 1,6,-1
 603 502 l 1,7,-1
 603 446 l 1,0,-1
EndSplineSet
Substitution2: "'ss01' Style Set 1 lookup 5 subtable" u133CF
Substitution2: "'ss04' Style Set 4 lookup 4 subtable" u133CF
Substitution2: "'ss03' Style Set 3 lookup 3 subtable" t.hier
Substitution2: "'ss02' Style Set 2 lookup 2 subtable" t.tran
EndChar

StartChar: u
Encoding: 117 117 63
Width: 768
GlyphClass: 2
Flags: W
LayerCount: 2
Fore
SplineSet
610 226 m 2,0,1
 610 126 610 126 546.5 67 c 128,-1,2
 483 8 483 8 383.5 8 c 128,-1,3
 284 8 284 8 221 67 c 128,-1,4
 158 126 158 126 158 226 c 2,5,-1
 158 502 l 1,6,-1
 214 502 l 1,7,-1
 214 226 l 2,8,9
 214 150 214 150 262 106 c 0,10,11
 308 64 308 64 384 64 c 128,-1,12
 460 64 460 64 507 107 c 128,-1,13
 554 150 554 150 554 226 c 2,14,-1
 554 502 l 1,15,-1
 610 502 l 1,16,-1
 610 226 l 2,0,1
EndSplineSet
Substitution2: "'ss01' Style Set 1 lookup 5 subtable" u13171
EndChar

StartChar: v
Encoding: 118 118 64
Width: 768
GlyphClass: 2
Flags: W
LayerCount: 2
Fore
SplineSet
634 480 m 1,0,-1
 409 17 l 1,1,-1
 359 17 l 1,2,-1
 134 480 l 1,3,-1
 184 505 l 1,4,-1
 384 93 l 1,5,-1
 584 505 l 1,6,-1
 634 480 l 1,0,-1
EndSplineSet
EndChar

StartChar: w
Encoding: 119 119 65
Width: 768
GlyphClass: 2
Flags: W
LayerCount: 2
Fore
SplineSet
736 480 m 1,0,-1
 510 17 l 1,1,-1
 460 17 l 1,2,-1
 384 174 l 1,3,-1
 308 17 l 1,4,-1
 258 17 l 1,5,-1
 32 480 l 1,6,-1
 83 505 l 1,7,-1
 283 93 l 1,8,-1
 353 238 l 1,9,-1
 235 480 l 1,10,-1
 285 505 l 1,11,-1
 384 302 l 1,12,-1
 483 505 l 1,13,-1
 533 480 l 1,14,-1
 415 238 l 1,15,-1
 485 93 l 1,16,-1
 685 505 l 1,17,-1
 736 480 l 1,0,-1
EndSplineSet
Substitution2: "'ss04' Style Set 4 lookup 4 subtable" u13171
Substitution2: "'ss03' Style Set 3 lookup 3 subtable" w.hier
Substitution2: "'ss02' Style Set 2 lookup 2 subtable" w.tran
EndChar

StartChar: x
Encoding: 120 120 66
Width: 768
GlyphClass: 2
Flags: W
LayerCount: 2
Fore
SplineSet
614 42 m 1,0,-1
 572 6 l 1,1,-1
 384 218 l 1,2,-1
 196 6 l 1,3,-1
 154 42 l 1,4,-1
 347 260 l 1,5,-1
 154 476 l 1,6,-1
 196 514 l 1,7,-1
 384 302 l 1,8,-1
 572 514 l 1,9,-1
 614 476 l 1,10,-1
 421 260 l 1,11,-1
 614 42 l 1,0,-1
EndSplineSet
Substitution2: "'ss01' Style Set 1 lookup 5 subtable" u13121
Substitution2: "'ss04' Style Set 4 lookup 4 subtable" u1340D
Substitution2: "'ss03' Style Set 3 lookup 3 subtable" x.hier
Substitution2: "'ss02' Style Set 2 lookup 2 subtable" x.tran
EndChar

StartChar: y
Encoding: 121 121 67
Width: 768
GlyphClass: 2
Flags: W
LayerCount: 2
Fore
SplineSet
612 476 m 1,0,-1
 412 239 l 1,1,-1
 412 17 l 1,2,-1
 356 17 l 1,3,-1
 356 239 l 1,4,-1
 156 476 l 1,5,-1
 199 512 l 1,6,-1
 384 292 l 1,7,-1
 569 512 l 1,8,-1
 612 476 l 1,0,-1
EndSplineSet
Substitution2: "'ss01' Style Set 1 lookup 5 subtable" u133F2
Substitution2: "'ss04' Style Set 4 lookup 4 subtable" u131CC
Substitution2: "'ss03' Style Set 3 lookup 3 subtable" y.hier
Substitution2: "'ss02' Style Set 2 lookup 2 subtable" y.tran
EndChar

StartChar: z
Encoding: 122 122 68
Width: 768
GlyphClass: 2
Flags: W
LayerCount: 2
Fore
SplineSet
539 460 m 1,0,-1
 303 73 l 1,1,-1
 528 73 l 1,2,-1
 528 17 l 1,3,-1
 253 17 l 1,4,-1
 229 60 l 1,5,-1
 465 446 l 1,6,-1
 240 446 l 1,7,-1
 240 502 l 1,8,-1
 515 502 l 1,9,-1
 539 460 l 1,0,-1
EndSplineSet
Substitution2: "'ss01' Style Set 1 lookup 5 subtable" u13283
Substitution2: "'ss04' Style Set 4 lookup 4 subtable" u13283
Substitution2: "'ss03' Style Set 3 lookup 3 subtable" z.hier
Substitution2: "'ss02' Style Set 2 lookup 2 subtable" z.tran
EndChar

StartChar: asciitilde
Encoding: 126 126 69
Width: 768
GlyphClass: 2
Flags: W
LayerCount: 2
Fore
SplineSet
630 350 m 1,0,1
 611 300 611 300 576 266 c 0,2,3
 536 228 536 228 488 228 c 256,4,5
 440 228 440 228 374 280 c 128,-1,6
 308 332 308 332 279 332 c 128,-1,7
 250 332 250 332 224 303 c 0,8,9
 203 279 203 279 191 247 c 1,10,-1
 138 266 l 1,11,12
 157 316 157 316 192 350 c 0,13,14
 232 388 232 388 280 388 c 256,15,16
 328 388 328 388 394 336 c 128,-1,17
 460 284 460 284 489 284 c 128,-1,18
 518 284 518 284 544 313 c 0,19,20
 565 337 565 337 577 369 c 1,21,-1
 630 350 l 1,0,1
EndSplineSet
EndChar

StartChar: currency
Encoding: 164 164 70
Width: 768
GlyphClass: 2
Flags: W
LayerCount: 2
Fore
SplineSet
616 116 m 1,0,-1
 576 76 l 1,1,-1
 510 143 l 1,2,3
 454 100 454 100 384 100 c 128,-1,4
 314 100 314 100 258 143 c 1,5,-1
 192 76 l 1,6,-1
 152 116 l 1,7,-1
 219 182 l 1,8,9
 176 238 176 238 176 308 c 128,-1,10
 176 378 176 378 219 434 c 1,11,-1
 152 500 l 1,12,-1
 192 540 l 1,13,-1
 258 473 l 1,14,15
 314 516 314 516 384 516 c 128,-1,16
 454 516 454 516 510 473 c 1,17,-1
 576 540 l 1,18,-1
 616 500 l 1,19,-1
 549 434 l 1,20,21
 592 378 592 378 592 308 c 128,-1,22
 592 238 592 238 549 182 c 1,23,-1
 616 116 l 1,0,-1
536 308 m 128,-1,25
 536 370 536 370 491 415 c 128,-1,26
 446 460 446 460 384 460 c 128,-1,27
 322 460 322 460 277 415 c 128,-1,28
 232 370 232 370 232 308 c 128,-1,29
 232 246 232 246 277 201 c 128,-1,30
 322 156 322 156 384 156 c 128,-1,31
 446 156 446 156 491 201 c 128,-1,24
 536 246 536 246 536 308 c 128,-1,25
EndSplineSet
EndChar

StartChar: section
Encoding: 167 167 71
Width: 768
GlyphClass: 2
Flags: W
LayerCount: 2
Fore
SplineSet
560 226 m 0,0,1
 560 155 560 155 464 124 c 1,2,3
 534 63 534 63 534 3 c 0,4,5
 534 -56 534 -56 490 -99 c 128,-1,6
 446 -142 446 -142 386 -142 c 0,7,8
 294 -142 294 -142 227 -46 c 1,9,-1
 264 -20 l 1,10,11
 318 -96 318 -96 386 -96 c 0,12,13
 427 -96 427 -96 457.5 -66.5 c 128,-1,14
 488 -37 488 -37 488 3 c 0,15,16
 488 49 488 49 415 104 c 2,17,-1
 281 204 l 1,18,19
 208 268 208 268 208 330 c 0,20,21
 208 402 208 402 304 434 c 1,22,23
 234 494 234 494 234 554 c 256,24,25
 234 614 234 614 278 656.5 c 128,-1,26
 322 699 322 699 382 699 c 0,27,28
 474 699 474 699 541 604 c 1,29,-1
 504 577 l 1,30,31
 450 653 450 653 382 653 c 0,32,33
 341 653 341 653 310.5 623.5 c 128,-1,34
 280 594 280 594 280 554 c 0,35,36
 280 508 280 508 353 452 c 2,37,-1
 487 352 l 1,38,39
 560 290 560 290 560 226 c 0,0,1
514 226 m 0,40,41
 514 269 514 269 460 316 c 0,42,43
 454 321 454 321 348 398 c 1,44,45
 254 378 254 378 254 330 c 0,46,47
 254 288 254 288 308 241 c 0,48,49
 314 236 314 236 420 158 c 1,50,51
 514 179 514 179 514 226 c 0,40,41
EndSplineSet
EndChar

StartChar: guillemotleft
Encoding: 171 171 72
Width: 768
GlyphClass: 2
Flags: W
LayerCount: 2
Fore
SplineSet
610 4 m 0,0,1
 610 -10 610 -10 587 -10 c 0,2,3
 577 -10 577 -10 566 12 c 0,4,5
 560 27 560 27 553 42 c 0,6,7
 514 125 514 125 420 176 c 0,8,9
 405 184 405 184 377 199 c 0,10,11
 370 204 370 204 370 211.5 c 128,-1,12
 370 219 370 219 377 224 c 0,13,14
 392 232 392 232 421 247 c 0,15,16
 514 297 514 297 553 380 c 0,17,18
 560 396 560 396 566 412 c 0,19,20
 576 433 576 433 590 433 c 0,21,22
 610 433 610 433 610 420 c 0,23,24
 610 418 610 418 609 414 c 0,25,26
 547 272 547 272 437 212 c 1,27,28
 548 150 548 150 609 8 c 0,29,30
 610 5 610 5 610 4 c 0,0,1
398 4 m 0,31,32
 398 -10 398 -10 374 -10 c 0,33,34
 364 -10 364 -10 354 12 c 0,35,36
 348 27 348 27 341 42 c 0,37,38
 302 125 302 125 208 176 c 0,39,40
 194 184 194 184 165 199 c 0,41,42
 158 204 158 204 158 211.5 c 128,-1,43
 158 219 158 219 165 224 c 0,44,45
 180 232 180 232 209 247 c 0,46,47
 302 297 302 297 341 380 c 0,48,49
 348 396 348 396 354 412 c 0,50,51
 364 433 364 433 379 433 c 0,52,53
 398 433 398 433 398 420 c 0,54,55
 398 418 398 418 397 414 c 0,56,57
 335 272 335 272 225 212 c 1,58,59
 336 150 336 150 397 8 c 0,60,61
 398 5 398 5 398 4 c 0,31,32
EndSplineSet
EndChar

StartChar: degree
Encoding: 176 176 73
Width: 768
GlyphClass: 2
Flags: W
LayerCount: 2
Fore
SplineSet
542 561 m 128,-1,1
 542 496 542 496 495.5 449.5 c 128,-1,2
 449 403 449 403 384 403 c 128,-1,3
 319 403 319 403 272.5 449.5 c 128,-1,4
 226 496 226 496 226 561 c 128,-1,5
 226 626 226 626 272.5 672 c 128,-1,6
 319 718 319 718 384 718 c 128,-1,7
 449 718 449 718 495.5 672 c 128,-1,0
 542 626 542 626 542 561 c 128,-1,1
486 560 m 128,-1,9
 486 602 486 602 456 632 c 128,-1,10
 426 662 426 662 384 662 c 128,-1,11
 342 662 342 662 312 632 c 128,-1,12
 282 602 282 602 282 560 c 128,-1,13
 282 518 282 518 312 488.5 c 128,-1,14
 342 459 342 459 384 459 c 128,-1,15
 426 459 426 459 456 488.5 c 128,-1,8
 486 518 486 518 486 560 c 128,-1,9
EndSplineSet
EndChar

StartChar: paragraph
Encoding: 182 182 74
Width: 768
GlyphClass: 2
Flags: W
LayerCount: 2
Fore
SplineSet
589 -142 m 1,0,-1
 543 -142 l 1,1,-1
 543 651 l 1,2,3
 478 646 478 646 424 634 c 1,4,-1
 424 -142 l 1,5,-1
 378 -142 l 1,6,-1
 378 305 l 1,7,8
 179 353 179 353 179 488 c 0,9,10
 179 672 179 672 564 699 c 1,11,-1
 589 676 l 1,12,-1
 589 -142 l 1,0,-1
EndSplineSet
EndChar

StartChar: guillemotright
Encoding: 187 187 75
Width: 768
GlyphClass: 2
Flags: W
LayerCount: 2
Fore
SplineSet
610 211.5 m 128,-1,1
 610 204 610 204 603 199 c 0,2,3
 588 192 588 192 560 176 c 0,4,5
 466 124 466 124 426 42 c 1,6,-1
 414 10 l 2,7,8
 404 -10 404 -10 390 -10 c 0,9,10
 370 -10 370 -10 370 4 c 0,11,12
 370 6 370 6 370 8 c 0,13,14
 429 148 429 148 544 212 c 1,15,16
 430 274 430 274 370 414 c 0,17,18
 370 416 370 416 370 420 c 0,19,20
 370 433 370 433 390 433 c 0,21,22
 404 433 404 433 414 412 c 0,23,24
 420 396 420 396 426 380 c 0,25,26
 466 298 466 298 559 247 c 0,27,28
 574 240 574 240 603 224 c 0,29,0
 610 219 610 219 610 211.5 c 128,-1,1
398 211.5 m 128,-1,31
 398 204 398 204 391 199 c 2,32,-1
 348 176 l 2,33,34
 254 124 254 124 214 42 c 1,35,-1
 202 10 l 2,36,37
 192 -10 192 -10 178 -10 c 0,38,39
 158 -10 158 -10 158 4 c 0,40,41
 158 6 158 6 159 8 c 0,42,43
 217 148 217 148 332 212 c 1,44,45
 218 274 218 274 159 414 c 0,46,47
 158 416 158 416 158 420 c 0,48,49
 158 433 158 433 178 433 c 0,50,51
 192 433 192 433 202 412 c 0,52,53
 208 396 208 396 214 380 c 0,54,55
 254 298 254 298 347 247 c 0,56,57
 362 240 362 240 391 224 c 0,58,30
 398 219 398 219 398 211.5 c 128,-1,31
EndSplineSet
EndChar

StartChar: uni2618
Encoding: 9752 9752 76
Width: 1024
GlyphClass: 2
Flags: W
LayerCount: 2
Fore
SplineSet
930 332 m 0,0,1
 930 312 930 312 921.5 274 c 128,-1,2
 913 236 913 236 913 216 c 0,3,4
 913 204 913 204 916 182 c 128,-1,5
 919 160 919 160 919 148 c 0,6,7
 919 104 919 104 886 80 c 0,8,9
 857 58 857 58 812 58 c 0,10,11
 763 58 763 58 700 98 c 0,12,13
 668 118 668 118 602 173 c 0,14,15
 553 213 553 213 539 213 c 0,16,17
 526 213 526 213 526 198 c 1,18,19
 526 204 526 204 529 170 c 0,20,21
 530 150 530 150 530 124 c 0,22,23
 530 86 530 86 517 12 c 0,24,25
 504 -67 504 -67 491 -96 c 0,26,27
 475 -132 475 -132 447 -132 c 0,28,29
 415 -132 415 -132 415 -109 c 1,30,31
 415 -110 415 -110 454 -12 c 0,32,33
 491 81 491 81 491 156 c 0,34,35
 491 212 491 212 473 212 c 0,36,37
 459 212 459 212 413 170 c 0,38,39
 375 136 375 136 317 106 c 0,40,41
 251 70 251 70 210 70 c 0,42,43
 161 70 161 70 129 96 c 0,44,45
 94 125 94 125 94 173 c 0,46,47
 94 196 94 196 102.5 239 c 128,-1,48
 111 282 111 282 111 304 c 0,49,50
 111 314 111 314 108.5 331.5 c 128,-1,51
 106 349 106 349 106 358 c 0,52,53
 106 458 106 458 208 458 c 0,54,55
 257 458 257 458 325 420 c 2,56,-1
 432 354 l 1,57,58
 420 391 420 391 352 482 c 0,59,60
 294 558 294 558 294 619 c 0,61,62
 294 678 294 678 329.5 716 c 128,-1,63
 365 754 365 754 423 754 c 0,64,65
 445 754 445 754 489.5 745 c 128,-1,66
 534 736 534 736 557 736 c 0,67,68
 572 736 572 736 601.5 743.5 c 128,-1,69
 631 751 631 751 646 751 c 0,70,71
 699 751 699 751 728 705 c 0,72,73
 752 666 752 666 752 610 c 0,74,75
 752 566 752 566 686 478 c 0,76,77
 637 416 637 416 589 354 c 1,78,-1
 699 416 l 2,79,80
 767 453 767 453 817 453 c 0,81,82
 930 453 930 453 930 332 c 0,0,1
EndSplineSet
EndChar

StartChar: uni2693
Encoding: 9875 9875 77
Width: 1024
GlyphClass: 2
Flags: W
LayerCount: 2
Fore
SplineSet
937 246 m 1,0,-1
 860 12 l 1,1,-1
 824 77 l 1,2,3
 675 -116 675 -116 537 -121 c 1,4,-1
 537 -195 l 1,5,-1
 487 -195 l 1,6,-1
 487 -121 l 1,7,8
 349 -116 349 -116 200 77 c 1,9,-1
 164 12 l 1,10,-1
 87 246 l 1,11,-1
 308 124 l 1,12,-1
 228 102 l 1,13,14
 270 52 270 52 346 14 c 0,15,16
 424 -26 424 -26 487 -28 c 1,17,-1
 487 532 l 1,18,-1
 308 532 l 1,19,-1
 308 582 l 1,20,-1
 418 582 l 1,21,22
 391 616 391 616 391 658 c 0,23,24
 391 708 391 708 426.5 743.5 c 128,-1,25
 462 779 462 779 512 779 c 128,-1,26
 562 779 562 779 597.5 743.5 c 128,-1,27
 633 708 633 708 633 658 c 0,28,29
 633 616 633 616 606 582 c 1,30,-1
 716 582 l 1,31,-1
 716 532 l 1,32,-1
 537 532 l 1,33,-1
 537 -28 l 1,34,35
 600 -26 600 -26 678 14 c 0,36,37
 754 52 754 52 796 102 c 1,38,-1
 716 124 l 1,39,-1
 937 246 l 1,0,-1
588 658 m 128,-1,41
 588 690 588 690 566 712 c 128,-1,42
 544 734 544 734 512 734 c 128,-1,43
 480 734 480 734 458 712 c 128,-1,44
 436 690 436 690 436 658 c 128,-1,45
 436 626 436 626 458 604 c 128,-1,46
 480 582 480 582 512 582 c 128,-1,47
 544 582 544 582 566 604 c 128,-1,40
 588 626 588 626 588 658 c 128,-1,41
EndSplineSet
EndChar

StartChar: uni26E4
Encoding: 9956 9956 78
Width: 1024
GlyphClass: 2
Flags: W
LayerCount: 2
Fore
SplineSet
974 396 m 1,0,-1
 688 188 l 1,1,-1
 798 -148 l 1,2,-1
 512 60 l 1,3,-1
 226 -148 l 1,4,-1
 336 188 l 1,5,-1
 50 396 l 1,6,-1
 403 396 l 1,7,-1
 512 732 l 1,8,-1
 621 396 l 1,9,-1
 974 396 l 1,0,-1
790 336 m 1,10,-1
 640 336 l 1,11,-1
 669 248 l 1,12,-1
 790 336 l 1,10,-1
558 396 m 1,13,-1
 512 537 l 1,14,-1
 466 396 l 1,15,-1
 558 396 l 1,13,-1
618 211 m 1,16,-1
 578 336 l 1,17,-1
 446 336 l 1,18,-1
 406 211 l 1,19,-1
 512 134 l 1,20,-1
 618 211 l 1,16,-1
684 10 m 1,21,-1
 638 151 l 1,22,-1
 563 97 l 1,23,-1
 684 10 l 1,21,-1
384 336 m 1,24,-1
 234 336 l 1,25,-1
 355 248 l 1,26,-1
 384 336 l 1,24,-1
461 97 m 1,27,-1
 386 151 l 1,28,-1
 340 10 l 1,29,-1
 461 97 l 1,27,-1
EndSplineSet
EndChar

StartChar: uni26E7
Encoding: 9959 9959 79
Width: 1024
GlyphClass: 2
Flags: W
LayerCount: 2
Fore
SplineSet
974 188 m 1,0,-1
 621 188 l 1,1,-1
 512 -148 l 1,2,-1
 403 188 l 1,3,-1
 50 188 l 1,4,-1
 336 396 l 1,5,-1
 226 732 l 1,6,-1
 512 524 l 1,7,-1
 798 732 l 1,8,-1
 688 396 l 1,9,-1
 974 188 l 1,0,-1
684 574 m 1,10,-1
 563 487 l 1,11,-1
 638 433 l 1,12,-1
 684 574 l 1,10,-1
790 248 m 1,13,-1
 669 336 l 1,14,-1
 640 248 l 1,15,-1
 790 248 l 1,13,-1
461 487 m 1,16,-1
 340 574 l 1,17,-1
 386 433 l 1,18,-1
 461 487 l 1,16,-1
618 373 m 1,19,-1
 512 450 l 1,20,-1
 406 373 l 1,21,-1
 446 248 l 1,22,-1
 578 248 l 1,23,-1
 618 373 l 1,19,-1
558 188 m 1,24,-1
 466 188 l 1,25,-1
 512 47 l 1,26,-1
 558 188 l 1,24,-1
384 248 m 1,27,-1
 355 336 l 1,28,-1
 234 248 l 1,29,-1
 384 248 l 1,27,-1
EndSplineSet
EndChar

StartChar: uni26EC
Encoding: 9964 9964 80
Width: 1024
GlyphClass: 2
Flags: W
LayerCount: 2
Fore
SplineSet
640 552 m 0,0,1
 640 500 640 500 602 462.5 c 128,-1,2
 564 425 564 425 512 425 c 128,-1,3
 460 425 460 425 422 462.5 c 128,-1,4
 384 500 384 500 384 552 c 0,5,6
 384 605 384 605 421 642.5 c 128,-1,7
 458 680 458 680 512 680 c 128,-1,8
 566 680 566 680 603 642.5 c 128,-1,9
 640 605 640 605 640 552 c 0,0,1
906 104 m 0,10,11
 906 51 906 51 869 13.5 c 128,-1,12
 832 -24 832 -24 779 -24 c 128,-1,13
 726 -24 726 -24 689 14 c 128,-1,14
 652 52 652 52 652 104 c 0,15,16
 652 158 652 158 689 194.5 c 128,-1,17
 726 231 726 231 779 231 c 0,18,19
 831 231 831 231 868.5 193.5 c 128,-1,20
 906 156 906 156 906 104 c 0,10,11
374 104 m 256,21,22
 374 52 374 52 335 14 c 128,-1,23
 296 -24 296 -24 245 -24 c 0,24,25
 193 -24 193 -24 155.5 14 c 128,-1,26
 118 52 118 52 118 104 c 128,-1,27
 118 156 118 156 155.5 193.5 c 128,-1,28
 193 231 193 231 245 231 c 0,29,30
 298 231 298 231 336 193.5 c 128,-1,31
 374 156 374 156 374 104 c 256,21,22
EndSplineSet
EndChar

StartChar: uni3001
Encoding: 12289 12289 81
Width: 512
GlyphClass: 2
Flags: W
LayerCount: 2
Fore
SplineSet
387 -178 m 1,0,1
 298 -189 298 -189 256 -189 c 128,-1,2
 214 -189 214 -189 125 -178 c 1,3,-1
 218 -2 l 2,4,5
 234 28 234 28 234 50 c 2,6,-1
 236 166 l 2,7,8
 236 178 236 178 256 178 c 128,-1,9
 276 178 276 178 276 166 c 2,10,-1
 278 50 l 2,11,12
 278 28 278 28 294 -2 c 2,13,-1
 387 -178 l 1,0,1
EndSplineSet
EndChar

StartChar: uni3002
Encoding: 12290 12290 82
Width: 768
GlyphClass: 2
Flags: W
LayerCount: 2
Fore
SplineSet
646 -186 m 1,0,1
 558 -196 558 -196 515 -196 c 128,-1,2
 472 -196 472 -196 384 -186 c 1,3,-1
 476 -10 l 2,4,5
 492 21 492 21 493 44 c 2,6,-1
 495 159 l 2,7,8
 495 172 495 172 515 172 c 128,-1,9
 535 172 535 172 535 159 c 2,10,-1
 537 44 l 2,11,12
 538 21 538 21 554 -10 c 2,13,-1
 646 -186 l 1,0,1
384 -186 m 1,14,15
 296 -196 296 -196 253 -196 c 128,-1,16
 210 -196 210 -196 122 -186 c 1,17,-1
 214 -10 l 2,18,19
 230 21 230 21 231 44 c 2,20,-1
 233 159 l 2,21,22
 233 172 233 172 253 172 c 128,-1,23
 273 172 273 172 273 159 c 2,24,-1
 275 44 l 2,25,26
 276 21 276 21 292 -10 c 2,27,-1
 384 -186 l 1,14,15
EndSplineSet
EndChar

StartChar: uni3005
Encoding: 12293 12293 83
Width: 1024
GlyphClass: 2
Flags: W
LayerCount: 2
Fore
SplineSet
494 798 m 1,0,-1
 399 576 l 2,1,2
 388 549 388 549 388 511 c 2,3,-1
 379 -180 l 2,4,5
 379 -196 379 -196 359 -196 c 128,-1,6
 339 -196 339 -196 339 -180 c 2,7,-1
 330 511 l 2,8,9
 329 549 329 549 318 576 c 2,10,-1
 224 798 l 1,11,12
 317 812 317 812 359 812 c 128,-1,13
 401 812 401 812 494 798 c 1,0,-1
307 311.5 m 128,-1,15
 307 301 307 301 301.5 294.5 c 128,-1,16
 296 288 296 288 290 288 c 0,17,18
 285 287 285 287 85 180 c 1,19,20
 74 273 74 273 74 312 c 128,-1,21
 74 351 74 351 85 443 c 1,22,23
 285 336 285 336 290 336 c 0,24,25
 296 335 296 335 301.5 328.5 c 128,-1,14
 307 322 307 322 307 311.5 c 128,-1,15
662 443 m 128,-1,27
 662 423 662 423 650 423 c 1,28,-1
 439 312 l 1,29,30
 429 400 429 400 429 443 c 128,-1,31
 429 486 429 486 439 574 c 1,32,-1
 650 463 l 1,33,26
 662 463 662 463 662 443 c 128,-1,27
662 173 m 128,-1,35
 662 153 662 153 650 153 c 1,36,-1
 439 42 l 1,37,38
 429 130 429 130 429 173 c 128,-1,39
 429 216 429 216 439 304 c 1,40,-1
 650 193 l 1,41,34
 662 193 662 193 662 173 c 128,-1,35
950 -188 m 1,42,-1
 940 -196 l 1,43,44
 878 -122 878 -122 762 62 c 128,-1,45
 646 246 646 246 622 308 c 1,46,47
 646 370 646 370 762 554 c 128,-1,48
 878 738 878 738 940 812 c 1,49,-1
 950 804 l 1,50,51
 922 707 922 707 879 529 c 0,52,53
 834 339 834 339 834 308 c 128,-1,54
 834 277 834 277 879 87 c 0,55,56
 922 -91 922 -91 950 -188 c 1,42,-1
EndSplineSet
EndChar

StartChar: uni300C
Encoding: 12300 12300 84
Width: 768
GlyphClass: 2
Flags: W
LayerCount: 2
Fore
SplineSet
140 812 m 1,0,-1
 316 720 l 2,1,2
 347 704 347 704 370 703 c 2,3,-1
 626 701 l 2,4,5
 638 701 638 701 638 681 c 128,-1,6
 638 661 638 661 626 661 c 2,7,-1
 370 659 l 2,8,9
 347 658 347 658 316 642 c 2,10,-1
 140 550 l 1,11,12
 130 638 130 638 130 681 c 128,-1,13
 130 724 130 724 140 812 c 1,0,-1
392 -186 m 1,14,15
 304 -196 304 -196 261 -196 c 128,-1,16
 218 -196 218 -196 130 -186 c 1,17,-1
 222 -10 l 2,18,19
 238 21 238 21 239 44 c 2,20,-1
 241 584 l 2,21,22
 241 596 241 596 261 596 c 128,-1,23
 281 596 281 596 281 584 c 2,24,-1
 283 44 l 2,25,26
 284 21 284 21 300 -10 c 2,27,-1
 392 -186 l 1,14,15
EndSplineSet
EndChar

StartChar: uni300D
Encoding: 12301 12301 85
Width: 768
GlyphClass: 2
Flags: W
LayerCount: 2
Fore
SplineSet
628 -196 m 1,0,-1
 452 -104 l 2,1,2
 421 -88 421 -88 398 -87 c 2,3,-1
 142 -85 l 2,4,5
 130 -85 130 -85 130 -65 c 128,-1,6
 130 -45 130 -45 142 -45 c 2,7,-1
 398 -43 l 2,8,9
 421 -42 421 -42 452 -26 c 2,10,-1
 628 66 l 1,11,12
 638 -22 638 -22 638 -65 c 128,-1,13
 638 -108 638 -108 628 -196 c 1,0,-1
376 802 m 1,14,15
 464 812 464 812 507 812 c 128,-1,16
 550 812 550 812 638 802 c 1,17,-1
 546 626 l 2,18,19
 530 595 530 595 529 572 c 2,20,-1
 527 32 l 2,21,22
 527 20 527 20 507 20 c 128,-1,23
 487 20 487 20 487 32 c 2,24,-1
 485 572 l 2,25,26
 484 595 484 595 468 626 c 2,27,-1
 376 802 l 1,14,15
EndSplineSet
EndChar

StartChar: uni300E
Encoding: 12302 12302 86
Width: 768
GlyphClass: 2
Flags: W
LayerCount: 2
Fore
SplineSet
677 677 m 128,-1,1
 677 657 677 657 665 657 c 2,2,-1
 613 652 l 2,3,4
 590 652 590 652 561 636 c 2,5,-1
 382 542 l 1,6,7
 377 578 377 578 371 648 c 1,8,-1
 333 648 l 2,9,10
 302 648 302 648 281 636 c 2,11,-1
 102 542 l 1,12,13
 91 635 91 635 91 677 c 128,-1,14
 91 719 91 719 102 812 c 1,15,-1
 281 718 l 2,16,17
 302 706 302 706 333 706 c 2,18,-1
 371 706 l 1,19,20
 373 735 373 735 382 812 c 1,21,-1
 561 718 l 2,22,23
 590 702 590 702 613 702 c 2,24,-1
 665 697 l 2,25,0
 677 697 677 697 677 677 c 128,-1,1
361 95 m 1,26,27
 284 86 284 86 254 84 c 1,28,-1
 255 46 l 2,29,30
 255 15 255 15 266 -6 c 2,31,-1
 361 -185 l 1,32,33
 268 -196 268 -196 226 -196 c 128,-1,34
 184 -196 184 -196 91 -185 c 1,35,-1
 185 -6 l 2,36,37
 196 15 196 15 197 46 c 2,38,-1
 197 84 l 1,39,40
 126 90 126 90 91 95 c 1,41,-1
 185 274 l 2,42,43
 201 303 201 303 201 326 c 2,44,-1
 206 580 l 2,45,46
 206 592 206 592 226 592 c 128,-1,47
 246 592 246 592 246 580 c 2,48,-1
 250 326 l 2,49,50
 251 303 251 303 266 274 c 2,51,-1
 361 95 l 1,26,27
EndSplineSet
EndChar

StartChar: uni300F
Encoding: 12303 12303 87
Width: 768
GlyphClass: 2
Flags: W
LayerCount: 2
Fore
SplineSet
91 -61 m 128,-1,1
 91 -41 91 -41 103 -41 c 2,2,-1
 155 -37 l 2,3,4
 178 -36 178 -36 207 -21 c 2,5,-1
 386 74 l 1,6,7
 391 38 391 38 397 -33 c 1,8,-1
 435 -32 l 2,9,10
 466 -32 466 -32 487 -21 c 2,11,-1
 666 74 l 1,12,13
 677 -19 677 -19 677 -61 c 128,-1,14
 677 -103 677 -103 666 -196 c 1,15,-1
 487 -102 l 2,16,17
 466 -91 466 -91 435 -90 c 2,18,-1
 397 -90 l 1,19,20
 395 -119 395 -119 386 -196 c 1,21,-1
 207 -102 l 2,22,23
 178 -86 178 -86 155 -86 c 2,24,-1
 103 -81 l 2,25,0
 91 -81 91 -81 91 -61 c 128,-1,1
407 521 m 1,26,27
 484 530 484 530 514 531 c 1,28,-1
 513 570 l 2,29,30
 513 601 513 601 502 622 c 2,31,-1
 407 801 l 1,32,33
 500 812 500 812 542 812 c 128,-1,34
 584 812 584 812 677 801 c 1,35,-1
 583 622 l 2,36,37
 572 601 572 601 571 570 c 2,38,-1
 571 531 l 1,39,40
 642 526 642 526 677 521 c 1,41,-1
 583 342 l 2,42,43
 567 312 567 312 567 290 c 2,44,-1
 562 36 l 2,45,46
 562 23 562 23 542 23 c 128,-1,47
 522 23 522 23 522 36 c 2,48,-1
 518 290 l 2,49,50
 517 312 517 312 502 342 c 2,51,-1
 407 521 l 1,26,27
EndSplineSet
EndChar

StartChar: uni3014
Encoding: 12308 12308 88
Width: 768
GlyphClass: 2
Flags: W
LayerCount: 2
Fore
SplineSet
296 342 m 2,0,-1
 296 274 l 2,1,2
 297 243 297 243 308 222 c 2,3,-1
 402 43 l 1,4,5
 309 32 309 32 267 32 c 128,-1,6
 225 32 225 32 132 43 c 1,7,-1
 227 222 l 2,8,9
 238 243 238 243 238 274 c 2,10,-1
 238 342 l 2,11,12
 238 373 238 373 227 394 c 2,13,-1
 132 573 l 1,14,15
 225 584 225 584 267 584 c 128,-1,16
 309 584 309 584 402 573 c 1,17,-1
 308 394 l 2,18,19
 297 373 297 373 296 342 c 2,0,-1
568 820 m 1,20,21
 583 782 583 782 593 754 c 0,22,23
 617 693 617 693 636 567 c 1,24,-1
 489 600 l 2,25,26
 482 602 482 602 459.5 607 c 128,-1,27
 437 612 437 612 422 614 c 128,-1,28
 407 616 407 616 392 614 c 0,29,30
 369 609 369 609 327 598.5 c 128,-1,31
 285 588 285 588 274 585 c 0,32,33
 262 583 262 583 257 599 c 128,-1,34
 252 615 252 615 261 623 c 1,35,36
 279 628 279 628 312 637.5 c 128,-1,37
 345 647 345 647 354 649 c 0,38,39
 394 660 394 660 412 677 c 0,40,41
 443 704 443 704 498.5 756 c 128,-1,42
 554 808 554 808 568 820 c 1,20,21
568 -204 m 1,43,44
 554 -191 554 -191 498.5 -139.5 c 128,-1,45
 443 -88 443 -88 412 -60 c 0,46,47
 394 -43 394 -43 354 -33 c 0,48,49
 345 -30 345 -30 312 -21 c 128,-1,50
 279 -12 279 -12 261 -6 c 0,51,52
 252 1 252 1 257 17 c 128,-1,53
 262 33 262 33 274 31 c 0,54,55
 285 29 285 29 327 18.5 c 128,-1,56
 369 8 369 8 392 2 c 0,57,58
 407 0 407 0 422 2 c 128,-1,59
 437 4 437 4 459.5 9.5 c 128,-1,60
 482 15 482 15 489 16 c 2,61,-1
 636 50 l 1,62,63
 617 -77 617 -77 593 -137 c 0,64,65
 583 -166 583 -166 568 -204 c 1,43,44
EndSplineSet
EndChar

StartChar: uni3015
Encoding: 12309 12309 89
Width: 768
GlyphClass: 2
Flags: W
LayerCount: 2
Fore
SplineSet
472 342 m 2,0,1
 471 373 471 373 460 394 c 2,2,-1
 366 573 l 1,3,4
 459 584 459 584 501 584 c 128,-1,5
 543 584 543 584 636 573 c 1,6,-1
 541 394 l 2,7,8
 530 373 530 373 530 342 c 2,9,-1
 530 274 l 2,10,11
 530 243 530 243 541 222 c 2,12,-1
 636 43 l 1,13,14
 543 32 543 32 501 32 c 128,-1,15
 459 32 459 32 366 43 c 1,16,-1
 460 222 l 2,17,18
 471 243 471 243 472 274 c 2,19,-1
 472 342 l 2,0,1
200 820 m 1,20,21
 214 808 214 808 269.5 756 c 128,-1,22
 325 704 325 704 356 677 c 0,23,24
 374 660 374 660 414 649 c 0,25,26
 423 647 423 647 456 637.5 c 128,-1,27
 489 628 489 628 507 623 c 1,28,29
 516 615 516 615 511 599 c 128,-1,30
 506 583 506 583 494 585 c 0,31,32
 483 588 483 588 441 598.5 c 128,-1,33
 399 609 399 609 376 614 c 0,34,35
 361 616 361 616 346 614 c 128,-1,36
 331 612 331 612 308.5 607 c 128,-1,37
 286 602 286 602 279 600 c 2,38,-1
 132 567 l 1,39,40
 151 693 151 693 175 754 c 0,41,42
 185 783 185 783 200 820 c 1,20,21
200 -204 m 1,43,44
 185 -166 185 -166 175 -137 c 0,45,46
 151 -77 151 -77 132 50 c 1,47,-1
 279 16 l 2,48,49
 286 15 286 15 308.5 9.5 c 128,-1,50
 331 4 331 4 346 2 c 128,-1,51
 361 0 361 0 376 2 c 0,52,53
 399 8 399 8 441.5 18.5 c 128,-1,54
 484 29 484 29 494 31 c 0,55,56
 506 33 506 33 511 17 c 128,-1,57
 516 1 516 1 507 -6 c 0,58,59
 489 -12 489 -12 456 -21 c 128,-1,60
 423 -30 423 -30 414 -33 c 0,61,62
 374 -43 374 -43 356 -60 c 0,63,64
 325 -88 325 -88 269.5 -139.5 c 128,-1,65
 214 -191 214 -191 200 -204 c 1,43,44
EndSplineSet
EndChar

StartChar: uni3041
Encoding: 12353 12353 90
Width: 512
GlyphClass: 2
Flags: W
LayerCount: 2
Fore
SplineSet
389 -190 m 1,0,-1
 379 -196 l 1,1,2
 317 -137 317 -137 201 9 c 128,-1,3
 85 155 85 155 61 204 c 1,4,5
 85 253 85 253 201 399 c 128,-1,6
 317 545 317 545 379 604 c 1,7,-1
 389 598 l 1,8,9
 361 521 361 521 318 379 c 0,10,11
 273 228 273 228 273 204 c 128,-1,12
 273 180 273 180 318 29 c 0,13,14
 361 -113 361 -113 389 -190 c 1,15,-1
 389 -190 l 1,0,-1
EndSplineSet
EndChar

StartChar: uni3042
Encoding: 12354 12354 91
Width: 1024
GlyphClass: 2
Flags: W
LayerCount: 2
Fore
SplineSet
375 812 m 1,0,1
 380 795 380 795 402.5 722 c 128,-1,2
 425 649 425 649 438 610 c 0,3,4
 445 586 445 586 475 557 c 0,5,6
 481 551 481 551 505 526 c 128,-1,7
 529 501 529 501 542 488 c 1,8,9
 546 477 546 477 533.5 465.5 c 128,-1,10
 521 454 521 454 512 462 c 0,11,12
 504 469 504 469 472.5 499.5 c 128,-1,13
 441 530 441 530 424 546 c 0,14,15
 412 555 412 555 398 561 c 128,-1,16
 384 567 384 567 362 573.5 c 128,-1,17
 340 580 340 580 333 582 c 2,18,-1
 190 627 l 1,19,20
 269 727 269 727 319 767 c 0,21,22
 343 787 343 787 375 812 c 1,0,1
834 -188 m 1,23,-1
 824 -196 l 1,24,25
 762 -122 762 -122 646 62 c 128,-1,26
 530 246 530 246 506 308 c 1,27,28
 530 370 530 370 646 554 c 128,-1,29
 762 738 762 738 824 812 c 1,30,-1
 834 804 l 1,31,32
 806 707 806 707 764 529 c 0,33,34
 718 339 718 339 718 308 c 128,-1,35
 718 277 718 277 764 87 c 0,36,37
 806 -91 806 -91 834 -188 c 1,23,-1
EndSplineSet
EndChar

StartChar: uni3043
Encoding: 12355 12355 92
Width: 768
GlyphClass: 2
Flags: W
LayerCount: 2
Fore
SplineSet
388 -190 m 1,0,-1
 378 -196 l 1,1,2
 316 -137 316 -137 200 9 c 128,-1,3
 84 155 84 155 60 204 c 1,4,5
 84 253 84 253 200 399 c 128,-1,6
 316 545 316 545 378 604 c 1,7,-1
 388 598 l 1,8,9
 360 521 360 521 317 379 c 0,10,11
 272 228 272 228 272 204 c 128,-1,12
 272 180 272 180 317 29 c 0,13,14
 360 -113 360 -113 388 -190 c 1,0,-1
647 -190 m 1,15,-1
 637 -196 l 1,16,17
 575 -137 575 -137 459 9 c 128,-1,18
 343 155 343 155 319 204 c 1,19,20
 343 253 343 253 459 399 c 128,-1,21
 575 545 575 545 637 604 c 1,22,-1
 647 598 l 1,23,24
 619 521 619 521 576 379 c 0,25,26
 531 228 531 228 531 204 c 128,-1,27
 531 180 531 180 576 29 c 0,28,29
 619 -113 619 -113 647 -190 c 1,30,-1
 647 -190 l 1,15,-1
EndSplineSet
EndChar

StartChar: uni3044
Encoding: 12356 12356 93
Width: 1024
GlyphClass: 2
Flags: W
LayerCount: 2
Fore
SplineSet
705 -188 m 1,0,-1
 695 -196 l 1,1,2
 633 -122 633 -122 517 62 c 128,-1,3
 401 246 401 246 377 308 c 1,4,5
 401 370 401 370 517 554 c 128,-1,6
 633 738 633 738 695 812 c 1,7,-1
 705 804 l 1,8,9
 677 707 677 707 634 529 c 0,10,11
 588 339 588 339 588 308 c 128,-1,12
 588 277 588 277 634 87 c 0,13,14
 677 -91 677 -91 705 -188 c 1,0,-1
964 -188 m 1,15,-1
 953 -196 l 1,16,17
 892 -122 892 -122 776 62 c 128,-1,18
 660 246 660 246 636 308 c 1,19,20
 660 370 660 370 776 554 c 128,-1,21
 892 738 892 738 953 812 c 1,22,-1
 964 804 l 1,23,24
 935 707 935 707 893 529 c 0,25,26
 847 339 847 339 847.5 308 c 128,-1,27
 848 277 848 277 893 87 c 0,28,29
 935 -91 935 -91 964 -188 c 1,15,-1
245 812 m 1,30,31
 251 795 251 795 273.5 722 c 128,-1,32
 296 649 296 649 308 610 c 0,33,34
 316 586 316 586 345 557 c 0,35,36
 351 551 351 551 375 526 c 128,-1,37
 399 501 399 501 412 488 c 1,38,39
 416 477 416 477 404 465.5 c 128,-1,40
 392 454 392 454 382 462 c 0,41,42
 374 469 374 469 343 499.5 c 128,-1,43
 312 530 312 530 295 546 c 0,44,45
 283 555 283 555 269 561 c 128,-1,46
 255 567 255 567 233 573.5 c 128,-1,47
 211 580 211 580 204 582 c 2,48,-1
 60 627 l 1,49,50
 139 727 139 727 190 767 c 0,51,52
 214 787 214 787 245 812 c 1,30,31
EndSplineSet
EndChar

StartChar: uni3045
Encoding: 12357 12357 94
Width: 768
GlyphClass: 2
Flags: W
LayerCount: 2
Fore
SplineSet
28 -196 m 1,0,-1
 23 -185 l 1,1,2
 74 -124 74 -124 202 -8 c 128,-1,3
 330 108 330 108 373 132 c 1,4,5
 415 108 415 108 543 -8 c 128,-1,6
 671 -124 671 -124 723 -185 c 1,7,-1
 717 -196 l 1,8,9
 650 -167 650 -167 526 -125 c 0,10,11
 394 -79 394 -79 372.5 -79.5 c 128,-1,12
 351 -80 351 -80 219 -125 c 0,13,14
 96 -168 96 -168 28 -196 c 1,0,-1
28 115 m 1,15,-1
 23 126 l 1,16,17
 74 187 74 187 202 303 c 128,-1,18
 330 419 330 419 373 443 c 1,19,20
 415 419 415 419 543 303 c 128,-1,21
 671 187 671 187 723 126 c 1,22,-1
 717 115 l 1,23,24
 650 144 650 144 526 186 c 0,25,26
 394 232 394 232 372.5 232 c 128,-1,27
 351 232 351 232 219 186 c 0,28,29
 96 144 96 144 28 115 c 1,15,-1
EndSplineSet
EndChar

StartChar: uni3046
Encoding: 12358 12358 95
Width: 1024
GlyphClass: 2
Flags: W
LayerCount: 2
Fore
SplineSet
67 115 m 1,0,-1
 60 126 l 1,1,2
 127 187 127 187 292 303 c 128,-1,3
 457 419 457 419 512 443 c 1,4,5
 567 419 567 419 732 303 c 128,-1,6
 897 187 897 187 964 126 c 1,7,-1
 957 115 l 1,8,9
 870 144 870 144 710 186 c 0,10,11
 540 232 540 232 512 232 c 128,-1,12
 484 232 484 232 314 186 c 0,13,14
 154 144 154 144 67 115 c 1,0,-1
67 -196 m 1,15,-1
 60 -185 l 1,16,17
 127 -124 127 -124 292 -8 c 128,-1,18
 457 108 457 108 512 132 c 1,19,20
 567 108 567 108 732 -8 c 128,-1,21
 897 -124 897 -124 964 -185 c 1,22,-1
 957 -196 l 1,23,24
 870 -167 870 -167 710 -125 c 0,25,26
 540 -79 540 -79 512 -79.5 c 128,-1,27
 484 -80 484 -80 314 -125 c 0,28,29
 154 -168 154 -168 67 -196 c 1,15,-1
245 812 m 1,30,31
 251 795 251 795 273.5 722 c 128,-1,32
 296 649 296 649 308 610 c 0,33,34
 316 586 316 586 345 557 c 0,35,36
 351 551 351 551 375 526 c 128,-1,37
 399 501 399 501 412 488 c 1,38,39
 416 477 416 477 404 465.5 c 128,-1,40
 392 454 392 454 382 462 c 0,41,42
 374 469 374 469 343 499.5 c 128,-1,43
 312 530 312 530 295 546 c 0,44,45
 283 555 283 555 269 561 c 128,-1,46
 255 567 255 567 233 573.5 c 128,-1,47
 211 580 211 580 204 582 c 2,48,-1
 60 627 l 1,49,50
 139 727 139 727 190 767 c 0,51,52
 214 787 214 787 245 812 c 1,30,31
EndSplineSet
EndChar

StartChar: uni3047
Encoding: 12359 12359 96
Width: 768
GlyphClass: 2
Flags: W
LayerCount: 2
Fore
SplineSet
679 545 m 128,-1,1
 679 524 679 524 666 524 c 2,2,-1
 287 516 l 2,3,4
 256 515 256 515 235 504 c 2,5,-1
 56 410 l 1,6,7
 45 503 45 503 45 545 c 128,-1,8
 45 587 45 587 56 680 c 1,9,-1
 235 586 l 2,10,11
 256 574 256 574 287 574 c 2,12,-1
 666 566 l 2,13,0
 679 566 679 566 679 545 c 128,-1,1
673 -190 m 1,14,-1
 664 -196 l 1,15,16
 582 -116 582 -116 469 7 c 0,17,18
 411 70 411 70 404 78 c 0,19,20
 368 119 368 119 345 154 c 1,21,22
 374 197 374 197 469 301 c 0,23,24
 582 424 582 424 664 504 c 1,25,-1
 673 498 l 1,26,27
 644 419 644 419 624 359 c 0,28,29
 590 262 590 262 589 258 c 0,30,31
 571 199 571 199 563 154 c 1,32,33
 572 100 572 100 624 -51 c 0,34,35
 644 -111 644 -111 673 -190 c 1,14,-1
373 -190 m 1,36,-1
 364 -196 l 1,37,38
 282 -116 282 -116 169 7 c 0,39,40
 111 70 111 70 104 78 c 0,41,42
 68 119 68 119 45 154 c 1,43,44
 74 197 74 197 169 301 c 0,45,46
 282 424 282 424 364 504 c 1,47,-1
 373 498 l 1,48,49
 344 419 344 419 324 359 c 0,50,51
 290 262 290 262 289 258 c 0,52,53
 271 199 271 199 263 154 c 1,54,55
 272 100 272 100 324 -51 c 0,56,57
 344 -111 344 -111 373 -190 c 1,36,-1
EndSplineSet
EndChar

StartChar: uni3048
Encoding: 12360 12360 97
Width: 1024
GlyphClass: 2
Flags: W
LayerCount: 2
Fore
SplineSet
480 -189 m 1,0,-1
 472 -196 l 1,1,2
 389 -105 389 -105 276 36 c 0,3,4
 219 108 219 108 212 117 c 0,5,6
 175 164 175 164 152 204 c 1,7,8
 181 253 181 253 276 372 c 0,9,10
 389 513 389 513 472 604 c 1,11,-1
 480 597 l 1,12,13
 451 506 451 506 431 438 c 0,14,15
 398 327 398 327 397 323 c 0,16,17
 378 256 378 256 370 204 c 1,18,19
 379 142 379 142 431 -30 c 0,20,21
 451 -98 451 -98 480 -189 c 1,0,-1
842 -189 m 1,22,-1
 834 -196 l 1,23,24
 751 -105 751 -105 638 36 c 0,25,26
 581 108 581 108 574 117 c 0,27,28
 537 164 537 164 514 204 c 1,29,30
 543 253 543 253 638 372 c 0,31,32
 751 513 751 513 834 604 c 1,33,-1
 842 597 l 1,34,35
 813 506 813 506 793 438 c 0,36,37
 760 327 760 327 759 323 c 0,38,39
 740 256 740 256 732 204 c 1,40,41
 741 142 741 142 793 -30 c 0,42,43
 813 -98 813 -98 842 -189 c 1,22,-1
899 677 m 256,44,45
 899 656 899 656 886 656 c 2,46,-1
 367 648 l 2,47,48
 337 648 337 648 315 636 c 2,49,-1
 136 542 l 1,50,51
 125 635 125 635 125 677 c 128,-1,52
 125 719 125 719 136 812 c 1,53,-1
 315 718 l 2,54,55
 335 706 335 706 367 706 c 2,56,-1
 886 698 l 2,57,58
 899 698 899 698 899 677 c 256,44,45
EndSplineSet
EndChar

StartChar: uni3049
Encoding: 12361 12361 98
Width: 768
GlyphClass: 2
Flags: W
LayerCount: 2
Fore
SplineSet
672 -190 m 1,0,-1
 662 -196 l 1,1,2
 600 -137 600 -137 484 9 c 128,-1,3
 368 155 368 155 344 204 c 1,4,5
 368 253 368 253 484 399 c 128,-1,6
 600 545 600 545 662 604 c 1,7,-1
 672 598 l 1,8,9
 644 521 644 521 601 379 c 0,10,11
 556 228 556 228 556 204 c 128,-1,12
 556 180 556 180 601 29 c 0,13,14
 644 -113 644 -113 672 -190 c 1,15,-1
 672 -190 l 1,0,-1
390 339 m 128,-1,17
 390 319 390 319 378 319 c 2,18,-1
 288 316 l 2,19,20
 262 315 262 315 234 300 c 2,21,-1
 58 208 l 1,22,23
 48 296 48 296 48 339 c 128,-1,24
 48 382 48 382 58 470 c 1,25,-1
 234 378 l 2,26,27
 262 363 262 363 288 362 c 2,28,-1
 378 359 l 2,29,16
 390 359 390 359 390 339 c 128,-1,17
390 69 m 128,-1,31
 390 49 390 49 378 49 c 2,32,-1
 288 46 l 2,33,34
 262 45 262 45 234 30 c 2,35,-1
 58 -62 l 1,36,37
 48 26 48 26 48 69 c 128,-1,38
 48 112 48 112 58 200 c 1,39,-1
 234 108 l 2,40,41
 262 93 262 93 288 92 c 2,42,-1
 378 89 l 2,43,30
 390 89 390 89 390 69 c 128,-1,31
EndSplineSet
EndChar

StartChar: uni304A
Encoding: 12362 12362 99
Width: 1024
GlyphClass: 2
Flags: W
LayerCount: 2
Fore
SplineSet
642 173 m 128,-1,1
 642 153 642 153 630 153 c 2,2,-1
 300 150 l 2,3,4
 274 149 274 149 246 134 c 2,5,-1
 70 42 l 1,6,7
 60 130 60 130 60 173 c 128,-1,8
 60 216 60 216 70 304 c 1,9,-1
 246 212 l 2,10,11
 274 197 274 197 300 196 c 2,12,-1
 630 193 l 2,13,0
 642 193 642 193 642 173 c 128,-1,1
642 443 m 128,-1,15
 642 423 642 423 630 423 c 2,16,-1
 300 420 l 2,17,18
 274 419 274 419 246 404 c 2,19,-1
 70 312 l 1,20,21
 60 400 60 400 60 443 c 128,-1,22
 60 486 60 486 70 574 c 1,23,-1
 246 482 l 2,24,25
 274 467 274 467 300 466 c 2,26,-1
 630 463 l 2,27,14
 642 463 642 463 642 443 c 128,-1,15
964 -186 m 1,28,-1
 954 -194 l 1,29,30
 892 -120 892 -120 776 64 c 128,-1,31
 660 248 660 248 636 310 c 1,32,33
 660 372 660 372 776 556 c 128,-1,34
 892 740 892 740 954 814 c 1,35,-1
 964 806 l 1,36,37
 936 709 936 709 893 531 c 0,38,39
 848 341 848 341 848 310 c 128,-1,40
 848 279 848 279 893 89 c 0,41,42
 936 -89 936 -89 964 -186 c 1,28,-1
EndSplineSet
EndChar

StartChar: uni304B
Encoding: 12363 12363 100
Width: 1024
GlyphClass: 2
Flags: W
LayerCount: 2
Fore
SplineSet
455 798 m 1,0,-1
 361 576 l 2,1,2
 350 549 350 549 349 511 c 2,3,-1
 340 -180 l 2,4,5
 340 -196 340 -196 320 -196 c 128,-1,6
 300 -196 300 -196 300 -180 c 2,7,-1
 291 511 l 2,8,9
 290 549 290 549 280 576 c 2,10,-1
 185 798 l 1,11,12
 278 812 278 812 320 812 c 128,-1,13
 362 812 362 812 455 798 c 1,14,-1
 455 798 l 1,0,-1
839 -188 m 1,15,-1
 828 -196 l 1,16,17
 767 -122 767 -122 651 62 c 128,-1,18
 535 246 535 246 511 308 c 1,19,20
 535 370 535 370 651 554 c 128,-1,21
 767 738 767 738 828 812 c 1,22,-1
 839 804 l 1,23,24
 811 707 811 707 768 529 c 0,25,26
 722 339 722 339 722 308 c 128,-1,27
 722 277 722 277 768 87 c 0,28,29
 810 -91 810 -91 839 -188 c 1,15,-1
EndSplineSet
EndChar

StartChar: uni304C
Encoding: 12364 12364 101
Width: 1298
GlyphClass: 2
Flags: W
LayerCount: 2
Fore
SplineSet
370 798 m 1,0,-1
 276 576 l 2,1,2
 264 549 264 549 264 511 c 2,3,-1
 255 -180 l 2,4,5
 255 -196 255 -196 235 -196 c 128,-1,6
 215 -196 215 -196 215 -180 c 2,7,-1
 206 511 l 2,8,9
 206 549 206 549 194 576 c 2,10,-1
 100 798 l 1,11,12
 193 812 193 812 235 812 c 128,-1,13
 277 812 277 812 370 798 c 1,14,-1
 370 798 l 1,0,-1
754 -188 m 1,15,-1
 744 -196 l 1,16,17
 682 -122 682 -122 566 62 c 128,-1,18
 450 246 450 246 426 308 c 1,19,20
 450 370 450 370 566 554 c 128,-1,21
 682 738 682 738 744 812 c 1,22,-1
 754 804 l 1,23,24
 726 707 726 707 683 529 c 0,25,26
 638 339 638 339 638 308 c 128,-1,27
 638 277 638 277 683 87 c 0,28,29
 726 -91 726 -91 754 -188 c 1,15,-1
1199 627 m 1,30,31
 1181 621 1181 621 1108.5 598.5 c 128,-1,32
 1036 576 1036 576 997 564 c 0,33,34
 973 556 973 556 944 527 c 0,35,36
 938 521 938 521 913 497 c 128,-1,37
 888 473 888 473 874 460 c 1,38,39
 863 456 863 456 852 468 c 128,-1,40
 841 480 841 480 848 490 c 0,41,42
 856 498 856 498 886 529 c 128,-1,43
 916 560 916 560 932 577 c 0,44,45
 942 589 942 589 948 603 c 128,-1,46
 954 617 954 617 960 639 c 128,-1,47
 966 661 966 661 969 668 c 2,48,-1
 1014 812 l 1,49,50
 1113 733 1113 733 1154 682 c 0,51,52
 1174 658 1174 658 1199 627 c 1,30,31
EndSplineSet
EndChar

StartChar: uni304D
Encoding: 12365 12365 102
Width: 1024
GlyphClass: 2
Flags: W
LayerCount: 2
Fore
SplineSet
355 798 m 1,0,-1
 261 576 l 2,1,2
 250 549 250 549 249 511 c 2,3,-1
 240 -180 l 2,4,5
 240 -196 240 -196 220 -196 c 128,-1,6
 200 -196 200 -196 200 -180 c 2,7,-1
 191 511 l 2,8,9
 191 549 191 549 180 576 c 2,10,-1
 86 798 l 1,11,12
 178 812 178 812 220 812 c 128,-1,13
 262 812 262 812 356 798 c 1,14,-1
 355 798 l 1,0,-1
938 -188 m 1,15,-1
 928 -196 l 1,16,17
 866 -122 866 -122 750 62 c 128,-1,18
 634 246 634 246 610 308 c 1,19,20
 634 370 634 370 750 554 c 128,-1,21
 866 738 866 738 928 812 c 1,22,-1
 938 804 l 1,23,24
 910 707 910 707 867 529 c 0,25,26
 822 339 822 339 822 308 c 128,-1,27
 822 277 822 277 867 87 c 0,28,29
 910 -91 910 -91 938 -188 c 1,30,-1
 938 -188 l 1,15,-1
648 -188 m 1,31,-1
 638 -196 l 1,32,33
 576 -122 576 -122 460 62 c 128,-1,34
 344 246 344 246 320 308 c 1,35,36
 344 370 344 370 460 554 c 128,-1,37
 576 738 576 738 638 812 c 1,38,-1
 648 804 l 1,39,40
 620 707 620 707 578 529 c 0,41,42
 532 339 532 339 532 308 c 128,-1,43
 532 277 532 277 577 87 c 0,44,45
 620 -91 620 -91 648 -188 c 1,46,-1
 648 -188 l 1,31,-1
EndSplineSet
EndChar

StartChar: uni304E
Encoding: 12366 12366 103
Width: 1415
GlyphClass: 2
Flags: W
LayerCount: 2
Fore
SplineSet
370 798 m 1,0,-1
 275 576 l 2,1,2
 264 549 264 549 264 511 c 2,3,-1
 255 -180 l 2,4,5
 255 -196 255 -196 235 -196 c 128,-1,6
 215 -196 215 -196 215 -180 c 2,7,-1
 206 511 l 2,8,9
 205 549 205 549 194 576 c 2,10,-1
 100 798 l 1,11,12
 193 812 193 812 235 812 c 128,-1,13
 277 812 277 812 370 798 c 1,14,-1
 370 798 l 1,0,-1
953 -188 m 1,15,-1
 942 -196 l 1,16,17
 881 -122 881 -122 765 62 c 128,-1,18
 649 246 649 246 625 308 c 1,19,20
 649 370 649 370 765 554 c 128,-1,21
 881 738 881 738 942 812 c 1,22,-1
 953 804 l 1,23,24
 924 707 924 707 882 529 c 0,25,26
 836 339 836 339 836 308 c 128,-1,27
 836 277 836 277 882 87 c 0,28,29
 924 -91 924 -91 953 -188 c 1,30,-1
 953 -188 l 1,15,-1
663 -188 m 1,31,-1
 652 -196 l 1,32,33
 591 -122 591 -122 475 62 c 128,-1,34
 359 246 359 246 335 308 c 1,35,36
 359 370 359 370 475 554 c 128,-1,37
 591 738 591 738 652 812 c 1,38,-1
 663 804 l 1,39,40
 634 707 634 707 592 529 c 0,41,42
 546 339 546 339 546 308 c 128,-1,43
 546 277 546 277 592 87 c 0,44,45
 634 -91 634 -91 663 -188 c 1,46,-1
 663 -188 l 1,31,-1
1315 627 m 1,47,48
 1298 621 1298 621 1225.5 598.5 c 128,-1,49
 1153 576 1153 576 1114 564 c 0,50,51
 1090 556 1090 556 1061 527 c 0,52,53
 1054 521 1054 521 1029.5 497 c 128,-1,54
 1005 473 1005 473 991 460 c 1,55,56
 980 456 980 456 968.5 468 c 128,-1,57
 957 480 957 480 965 490 c 0,58,59
 972 498 972 498 1002.5 529 c 128,-1,60
 1033 560 1033 560 1049 577 c 0,61,62
 1058 589 1058 589 1064 603 c 128,-1,63
 1070 617 1070 617 1076.5 639 c 128,-1,64
 1083 661 1083 661 1085 668 c 2,65,-1
 1130 812 l 1,66,67
 1230 733 1230 733 1271 682 c 0,68,69
 1290 658 1290 658 1315 627 c 1,47,48
EndSplineSet
EndChar

StartChar: uni304F
Encoding: 12367 12367 104
Width: 1024
GlyphClass: 2
Flags: W
LayerCount: 2
Fore
SplineSet
295 242 m 1,0,-1
 290 253 l 1,1,2
 340 314 340 314 463 430 c 128,-1,3
 586 546 586 546 627 570 c 1,4,5
 668 546 668 546 791 430 c 128,-1,6
 914 314 914 314 964 253 c 1,7,-1
 959 242 l 1,8,9
 894 271 894 271 774 313 c 0,10,11
 648 358 648 358 627 358 c 128,-1,12
 606 358 606 358 480 313 c 0,13,14
 360 270 360 270 295 242 c 1,0,-1
215 -180 m 0,15,16
 215 -196 215 -196 195 -196 c 128,-1,17
 175 -196 175 -196 175 -180 c 0,18,19
 172 41 172 41 166 463 c 1,20,-1
 166 511 l 2,21,22
 165 549 165 549 154 576 c 2,23,-1
 60 798 l 1,24,25
 153 812 153 812 195 812 c 128,-1,26
 237 812 237 812 330 798 c 1,27,-1
 236 576 l 2,28,29
 225 549 225 549 224 511 c 2,30,-1
 224 463 l 2,31,32
 221 272 221 272 215 -180 c 0,15,16
295 -58 m 1,33,-1
 290 -47 l 1,34,35
 340 14 340 14 463 130 c 128,-1,36
 586 246 586 246 627 270 c 1,37,38
 668 246 668 246 791 130 c 128,-1,39
 914 14 914 14 964 -47 c 1,40,-1
 959 -58 l 1,41,42
 894 -29 894 -29 774 13 c 0,43,44
 648 58 648 58 627 58 c 128,-1,45
 606 58 606 58 480 13 c 0,46,47
 360 -30 360 -30 295 -58 c 1,33,-1
EndSplineSet
EndChar

StartChar: uni3050
Encoding: 12368 12368 105
Width: 1383
GlyphClass: 2
Flags: W
LayerCount: 2
Fore
SplineSet
335 242 m 1,0,-1
 330 253 l 1,1,2
 380 314 380 314 503 430 c 128,-1,3
 626 546 626 546 667 570 c 1,4,5
 708 546 708 546 831 430 c 128,-1,6
 954 314 954 314 1004 253 c 1,7,-1
 999 242 l 1,8,9
 934 271 934 271 814 313 c 0,10,11
 688 358 688 358 667 358 c 128,-1,12
 646 358 646 358 520 313 c 0,13,14
 400 270 400 270 335 242 c 1,0,-1
255 -180 m 0,15,16
 255 -196 255 -196 235 -196 c 128,-1,17
 215 -196 215 -196 215 -180 c 0,18,19
 212 41 212 41 206 463 c 1,20,-1
 206 511 l 2,21,22
 205 549 205 549 194 576 c 2,23,-1
 100 798 l 1,24,25
 193 812 193 812 235 812 c 128,-1,26
 277 812 277 812 370 798 c 1,27,-1
 276 576 l 2,28,29
 265 549 265 549 264 511 c 2,30,-1
 264 463 l 2,31,32
 261 272 261 272 255 -180 c 0,15,16
335 -58 m 1,33,-1
 330 -47 l 1,34,35
 380 14 380 14 503 130 c 128,-1,36
 626 246 626 246 667 270 c 1,37,38
 708 246 708 246 831 130 c 128,-1,39
 954 14 954 14 1004 -47 c 1,40,-1
 999 -58 l 1,41,42
 934 -29 934 -29 814 13 c 0,43,44
 688 58 688 58 667 58 c 128,-1,45
 646 58 646 58 520 13 c 0,46,47
 400 -30 400 -30 335 -58 c 1,33,-1
1284 627 m 1,48,49
 1266 621 1266 621 1193.5 598.5 c 128,-1,50
 1121 576 1121 576 1082 564 c 0,51,52
 1058 556 1058 556 1029 527 c 0,53,54
 1023 521 1023 521 998 497 c 128,-1,55
 973 473 973 473 959 460 c 1,56,57
 948 456 948 456 937 468 c 128,-1,58
 926 480 926 480 933 490 c 0,59,60
 941 498 941 498 971 529 c 128,-1,61
 1001 560 1001 560 1017 577 c 0,62,63
 1027 589 1027 589 1032.5 603 c 128,-1,64
 1038 617 1038 617 1044.5 639 c 128,-1,65
 1051 661 1051 661 1054 668 c 2,66,-1
 1098 812 l 1,67,68
 1198 733 1198 733 1239 682 c 0,69,70
 1259 658 1259 658 1284 627 c 1,48,49
EndSplineSet
EndChar

StartChar: uni3051
Encoding: 12369 12369 106
Width: 1024
GlyphClass: 2
Flags: W
LayerCount: 2
Fore
SplineSet
964 677 m 128,-1,1
 964 656 964 656 951 656 c 2,2,-1
 635 648 l 2,3,4
 604 648 604 648 583 636 c 2,5,-1
 404 542 l 1,6,7
 393 635 393 635 393 677 c 128,-1,8
 393 719 393 719 404 812 c 1,9,-1
 583 717 l 2,10,11
 604 707 604 707 635 706 c 2,12,-1
 951 698 l 2,13,0
 964 698 964 698 964 677 c 128,-1,1
958 -173 m 1,14,-1
 950 -180 l 1,15,16
 867 -89 867 -89 754 52 c 0,17,18
 697 124 697 124 690 133 c 0,19,20
 653 180 653 180 630 220 c 1,21,22
 659 269 659 269 754 388 c 0,23,24
 867 529 867 529 950 620 c 1,25,-1
 958 613 l 1,26,27
 929 522 929 522 909 454 c 0,28,29
 876 343 876 343 875 339 c 0,30,31
 856 272 856 272 848 220 c 1,32,33
 857 158 857 158 909 -14 c 0,34,35
 929 -82 929 -82 958 -173 c 1,14,-1
658 -173 m 1,36,-1
 650 -180 l 1,37,38
 567 -89 567 -89 454 52 c 0,39,40
 397 124 397 124 390 133 c 0,41,42
 353 180 353 180 330 220 c 1,43,44
 359 269 359 269 454 388 c 0,45,46
 567 529 567 529 650 620 c 1,47,-1
 658 613 l 1,48,49
 629 522 629 522 609 454 c 0,50,51
 576 343 576 343 575 339 c 0,52,53
 556 272 556 272 548 220 c 1,54,55
 557 158 557 158 609 -14 c 0,56,57
 629 -82 629 -82 658 -173 c 1,36,-1
215 -180 m 2,58,59
 215 -196 215 -196 195 -196 c 128,-1,60
 175 -196 175 -196 175 -180 c 2,61,-1
 166 511 l 2,62,63
 165 549 165 549 154 576 c 2,64,-1
 60 798 l 1,65,66
 153 812 153 812 195 812 c 128,-1,67
 237 812 237 812 330 798 c 1,68,-1
 236 576 l 2,69,70
 225 549 225 549 224 511 c 2,71,-1
 215 -180 l 2,58,59
EndSplineSet
EndChar

StartChar: uni3052
Encoding: 12370 12370 107
Width: 1496
GlyphClass: 2
Flags: W
LayerCount: 2
Fore
SplineSet
1004 677 m 128,-1,1
 1004 656 1004 656 991 656 c 2,2,-1
 675 648 l 2,3,4
 644 648 644 648 623 636 c 2,5,-1
 444 542 l 1,6,7
 433 635 433 635 433 677 c 128,-1,8
 433 719 433 719 444 812 c 1,9,-1
 623 717 l 2,10,11
 644 707 644 707 675 706 c 2,12,-1
 991 698 l 2,13,0
 1004 698 1004 698 1004 677 c 128,-1,1
998 -173 m 1,14,-1
 990 -180 l 1,15,16
 907 -89 907 -89 794 52 c 0,17,18
 737 124 737 124 730 133 c 0,19,20
 693 180 693 180 670 220 c 1,21,22
 699 269 699 269 794 388 c 0,23,24
 907 529 907 529 990 620 c 1,25,-1
 998 613 l 1,26,27
 969 522 969 522 949 454 c 0,28,29
 916 343 916 343 915 339 c 0,30,31
 896 272 896 272 888 220 c 1,32,33
 897 158 897 158 949 -14 c 0,34,35
 969 -82 969 -82 998 -173 c 1,14,-1
698 -173 m 1,36,-1
 690 -180 l 1,37,38
 607 -89 607 -89 494 52 c 0,39,40
 437 124 437 124 430 133 c 0,41,42
 393 180 393 180 370 220 c 1,43,44
 399 269 399 269 494 388 c 0,45,46
 607 529 607 529 690 620 c 1,47,-1
 698 613 l 1,48,49
 669 522 669 522 649 454 c 0,50,51
 616 343 616 343 615 339 c 0,52,53
 596 272 596 272 588 220 c 1,54,55
 597 158 597 158 649 -14 c 0,56,57
 669 -82 669 -82 698 -173 c 1,36,-1
255 -180 m 2,58,59
 255 -196 255 -196 235 -196 c 128,-1,60
 215 -196 215 -196 215 -180 c 2,61,-1
 206 511 l 2,62,63
 205 549 205 549 194 576 c 2,64,-1
 100 798 l 1,65,66
 193 812 193 812 235 812 c 128,-1,67
 277 812 277 812 370 798 c 1,68,-1
 276 576 l 2,69,70
 265 549 265 549 264 511 c 2,71,-1
 255 -180 l 2,58,59
1396 627 m 1,72,73
 1379 621 1379 621 1306.5 598.5 c 128,-1,74
 1234 576 1234 576 1195 564 c 0,75,76
 1171 556 1171 556 1142 527 c 0,77,78
 1135 521 1135 521 1110.5 497 c 128,-1,79
 1086 473 1086 473 1072 460 c 1,80,81
 1061 456 1061 456 1050 468 c 128,-1,82
 1039 480 1039 480 1046 490 c 0,83,84
 1053 498 1053 498 1083.5 529 c 128,-1,85
 1114 560 1114 560 1130 577 c 0,86,87
 1139 589 1139 589 1145 603 c 128,-1,88
 1151 617 1151 617 1157.5 639 c 128,-1,89
 1164 661 1164 661 1166 668 c 2,90,-1
 1211 812 l 1,91,92
 1311 733 1311 733 1352 682 c 0,93,94
 1371 658 1371 658 1396 627 c 1,72,73
EndSplineSet
EndChar

StartChar: uni3053
Encoding: 12371 12371 108
Width: 1024
GlyphClass: 2
Flags: W
LayerCount: 2
Fore
SplineSet
215 -180 m 2,0,1
 215 -196 215 -196 195 -196 c 128,-1,2
 175 -196 175 -196 175 -180 c 2,3,-1
 166 511 l 2,4,5
 165 549 165 549 154 576 c 2,6,-1
 60 798 l 1,7,8
 153 812 153 812 195 812 c 128,-1,9
 237 812 237 812 330 798 c 1,10,-1
 236 576 l 2,11,12
 225 549 225 549 224 511 c 2,13,-1
 215 -180 l 2,0,1
958 19 m 1,14,-1
 950 12 l 1,15,16
 867 103 867 103 754 244 c 0,17,18
 697 316 697 316 690 325 c 0,19,20
 653 372 653 372 630 412 c 1,21,22
 659 461 659 461 754 580 c 0,23,24
 867 721 867 721 950 812 c 1,25,-1
 958 805 l 1,26,27
 929 714 929 714 909 646 c 0,28,29
 876 535 876 535 875 531 c 0,30,31
 856 464 856 464 848 412 c 1,32,33
 857 350 857 350 909 178 c 0,34,35
 929 110 929 110 958 19 c 1,14,-1
658 19 m 1,36,-1
 650 12 l 1,37,38
 567 103 567 103 454 244 c 0,39,40
 397 316 397 316 390 325 c 0,41,42
 353 372 353 372 330 412 c 1,43,44
 359 461 359 461 454 580 c 0,45,46
 567 721 567 721 650 812 c 1,47,-1
 658 805 l 1,48,49
 629 714 629 714 609 646 c 0,50,51
 576 535 576 535 575 531 c 0,52,53
 556 464 556 464 548 412 c 1,54,55
 557 350 557 350 609 178 c 0,56,57
 629 110 629 110 658 19 c 1,36,-1
964 -61 m 128,-1,59
 964 -82 964 -82 951 -82 c 2,60,-1
 552 -90 l 2,61,62
 521 -91 521 -91 500 -102 c 2,63,-1
 321 -196 l 1,64,65
 310 -103 310 -103 310 -61 c 128,-1,66
 310 -19 310 -19 321 74 c 1,67,-1
 500 -21 l 2,68,69
 521 -32 521 -32 552 -32 c 2,70,-1
 951 -40 l 2,71,58
 964 -40 964 -40 964 -61 c 128,-1,59
EndSplineSet
EndChar

StartChar: uni3054
Encoding: 12372 12372 109
Width: 1465
GlyphClass: 2
Flags: W
LayerCount: 2
Fore
SplineSet
255 -180 m 2,0,1
 255 -196 255 -196 235 -196 c 128,-1,2
 215 -196 215 -196 215 -180 c 2,3,-1
 206 511 l 2,4,5
 205 549 205 549 194 576 c 2,6,-1
 100 798 l 1,7,8
 193 812 193 812 235 812 c 128,-1,9
 277 812 277 812 370 798 c 1,10,-1
 276 576 l 2,11,12
 265 549 265 549 264 511 c 2,13,-1
 255 -180 l 2,0,1
998 19 m 1,14,-1
 990 12 l 1,15,16
 907 103 907 103 794 244 c 0,17,18
 737 316 737 316 730 325 c 0,19,20
 693 372 693 372 670 412 c 1,21,22
 699 461 699 461 794 580 c 0,23,24
 907 721 907 721 990 812 c 1,25,-1
 998 805 l 1,26,27
 969 714 969 714 949 646 c 0,28,29
 916 535 916 535 915 531 c 0,30,31
 896 464 896 464 888 412 c 1,32,33
 897 350 897 350 949 178 c 0,34,35
 969 110 969 110 998 19 c 1,14,-1
698 19 m 1,36,-1
 690 12 l 1,37,38
 607 103 607 103 494 244 c 0,39,40
 437 316 437 316 430 325 c 0,41,42
 393 372 393 372 370 412 c 1,43,44
 399 461 399 461 494 580 c 0,45,46
 607 721 607 721 690 812 c 1,47,-1
 698 805 l 1,48,49
 669 714 669 714 649 646 c 0,50,51
 616 535 616 535 615 531 c 0,52,53
 596 464 596 464 588 412 c 1,54,55
 597 350 597 350 649 178 c 0,56,57
 669 110 669 110 698 19 c 1,36,-1
1004 -61 m 128,-1,59
 1004 -82 1004 -82 991 -82 c 2,60,-1
 592 -90 l 2,61,62
 561 -91 561 -91 540 -102 c 2,63,-1
 361 -196 l 1,64,65
 350 -103 350 -103 350 -61 c 128,-1,66
 350 -19 350 -19 361 74 c 1,67,-1
 540 -21 l 2,68,69
 561 -32 561 -32 592 -32 c 2,70,-1
 991 -40 l 2,71,58
 1004 -40 1004 -40 1004 -61 c 128,-1,59
1365 627 m 1,72,73
 1348 621 1348 621 1275.5 598.5 c 128,-1,74
 1203 576 1203 576 1164 564 c 0,75,76
 1139 556 1139 556 1110 527 c 0,77,78
 1104 521 1104 521 1079.5 497 c 128,-1,79
 1055 473 1055 473 1041 460 c 1,80,81
 1030 456 1030 456 1018.5 468 c 128,-1,82
 1007 480 1007 480 1015 490 c 0,83,84
 1022 498 1022 498 1052.5 529 c 128,-1,85
 1083 560 1083 560 1099 577 c 0,86,87
 1108 589 1108 589 1114 603 c 128,-1,88
 1120 617 1120 617 1126.5 639 c 128,-1,89
 1133 661 1133 661 1135 668 c 2,90,-1
 1180 812 l 1,91,92
 1280 733 1280 733 1320 682 c 0,93,94
 1340 658 1340 658 1365 627 c 1,72,73
EndSplineSet
EndChar

StartChar: uni3055
Encoding: 12373 12373 110
Width: 1024
GlyphClass: 2
Flags: W
LayerCount: 2
Fore
SplineSet
839 -188 m 1,0,-1
 828 -196 l 1,1,2
 767 -122 767 -122 651 62 c 128,-1,3
 535 246 535 246 511 308 c 1,4,5
 535 370 535 370 651 554 c 128,-1,6
 767 738 767 738 828 812 c 1,7,-1
 839 804 l 1,8,9
 810 707 810 707 768 529 c 0,10,11
 722 339 722 339 722 308 c 128,-1,12
 722 277 722 277 768 87 c 0,13,14
 810 -91 810 -91 839 -188 c 1,15,-1
 839 -188 l 1,0,-1
455 798 m 1,16,-1
 361 576 l 2,17,18
 352 556 352 556 350 524 c 1,19,20
 382 522 382 522 452 511 c 1,21,-1
 358 289 l 2,22,23
 346 261 346 261 345 220 c 1,24,25
 372 219 372 219 450 207 c 1,26,-1
 356 -16 l 2,27,28
 342 -48 342 -48 342 -70 c 2,29,-1
 340 -180 l 2,30,31
 340 -196 340 -196 320 -196 c 128,-1,32
 300 -196 300 -196 300 -180 c 2,33,-1
 298 -70 l 2,34,35
 298 -48 298 -48 284 -16 c 2,36,-1
 190 207 l 1,37,38
 225 213 225 213 295 220 c 1,39,40
 294 261 294 261 282 289 c 2,41,-1
 188 511 l 1,42,43
 222 516 222 516 291 524 c 1,44,45
 288 556 288 556 280 576 c 2,46,-1
 185 798 l 1,47,48
 278 812 278 812 320 812 c 128,-1,49
 362 812 362 812 455 798 c 1,50,-1
 455 798 l 1,16,-1
EndSplineSet
EndChar

StartChar: uni3056
Encoding: 12374 12374 111
Width: 1258
GlyphClass: 2
Flags: W
LayerCount: 2
Fore
SplineSet
754 -188 m 1,0,-1
 743 -196 l 1,1,2
 682 -122 682 -122 566 62 c 128,-1,3
 450 246 450 246 426 308 c 1,4,5
 450 370 450 370 566 554 c 128,-1,6
 682 738 682 738 743 812 c 1,7,-1
 754 804 l 1,8,9
 725 707 725 707 683 529 c 0,10,11
 638 339 638 339 638 308 c 128,-1,12
 638 277 638 277 683 87 c 0,13,14
 726 -91 726 -91 754 -188 c 1,15,-1
 754 -188 l 1,0,-1
370 798 m 1,16,-1
 276 576 l 2,17,18
 267 556 267 556 264 524 c 1,19,20
 297 522 297 522 368 511 c 1,21,-1
 273 289 l 2,22,23
 261 261 261 261 260 220 c 1,24,25
 287 219 287 219 365 207 c 1,26,-1
 270 -16 l 2,27,28
 257 -48 257 -48 257 -70 c 2,29,-1
 255 -180 l 2,30,31
 255 -196 255 -196 235 -196 c 128,-1,32
 215 -196 215 -196 215 -180 c 2,33,-1
 214 -70 l 2,34,35
 213 -48 213 -48 200 -16 c 2,36,-1
 105 207 l 1,37,38
 140 213 140 213 210 220 c 1,39,40
 209 261 209 261 197 289 c 2,41,-1
 103 511 l 1,42,43
 137 516 137 516 206 524 c 1,44,45
 203 556 203 556 195 576 c 2,46,-1
 100 798 l 1,47,48
 193 812 193 812 235 812 c 128,-1,49
 277 812 277 812 370 798 c 1,50,-1
 370 798 l 1,16,-1
1159 627 m 1,51,52
 1141 621 1141 621 1068.5 598.5 c 128,-1,53
 996 576 996 576 957 564 c 0,54,55
 933 556 933 556 904 527 c 0,56,57
 898 521 898 521 873 497 c 128,-1,58
 848 473 848 473 834 460 c 1,59,60
 823 456 823 456 812 468 c 128,-1,61
 801 480 801 480 808 490 c 0,62,63
 816 498 816 498 846 529 c 128,-1,64
 876 560 876 560 892 577 c 0,65,66
 901 589 901 589 907 603 c 128,-1,67
 913 617 913 617 919.5 639 c 128,-1,68
 926 661 926 661 929 668 c 2,69,-1
 973 812 l 1,70,71
 1073 733 1073 733 1114 682 c 0,72,73
 1134 658 1134 658 1159 627 c 1,51,52
EndSplineSet
EndChar

StartChar: uni3057
Encoding: 12375 12375 112
Width: 1024
GlyphClass: 2
Flags: W
LayerCount: 2
Fore
SplineSet
705 -188 m 1,0,-1
 694 -196 l 1,1,2
 633 -122 633 -122 517 62 c 128,-1,3
 401 246 401 246 377 308 c 1,4,5
 401 370 401 370 517 554 c 128,-1,6
 633 738 633 738 694 812 c 1,7,-1
 705 804 l 1,8,9
 676 707 676 707 634 529 c 0,10,11
 588 339 588 339 588 308 c 128,-1,12
 588 277 588 277 634 87 c 0,13,14
 676 -91 676 -91 705 -188 c 1,0,-1
964 -188 m 1,15,-1
 954 -196 l 1,16,17
 892 -122 892 -122 776 62 c 128,-1,18
 660 246 660 246 636 308 c 1,19,20
 660 370 660 370 776 554 c 128,-1,21
 892 738 892 738 954 812 c 1,22,-1
 964 804 l 1,23,24
 935 707 935 707 893 529 c 0,25,26
 847 339 847 339 847.5 308 c 128,-1,27
 848 277 848 277 893 87 c 0,28,29
 936 -91 936 -91 964 -188 c 1,15,-1
330 798 m 1,30,-1
 236 576 l 2,31,32
 227 556 227 556 225 524 c 1,33,34
 257 522 257 522 328 511 c 1,35,-1
 233 289 l 2,36,37
 221 261 221 261 220 220 c 1,38,39
 246 219 246 219 325 207 c 1,40,-1
 230 -16 l 2,41,42
 217 -48 217 -48 216 -70 c 2,43,-1
 215 -180 l 2,44,45
 215 -196 215 -196 195 -196 c 128,-1,46
 175 -196 175 -196 175 -180 c 2,47,-1
 173 -70 l 2,48,49
 173 -48 173 -48 159 -16 c 2,50,-1
 65 207 l 1,51,52
 100 213 100 213 170 220 c 1,53,54
 169 261 169 261 157 289 c 2,55,-1
 62 511 l 1,56,57
 97 516 97 516 165 524 c 1,58,59
 163 556 163 556 154 576 c 2,60,-1
 60 798 l 1,61,62
 153 812 153 812 195 812 c 128,-1,63
 237 812 237 812 330 798 c 1,30,-1
EndSplineSet
EndChar

StartChar: uni3058
Encoding: 12376 12376 113
Width: 1469
GlyphClass: 2
Flags: W
LayerCount: 2
Fore
SplineSet
745 -188 m 1,0,-1
 735 -196 l 1,1,2
 673 -122 673 -122 557 62 c 128,-1,3
 441 246 441 246 417 308 c 1,4,5
 441 370 441 370 557 554 c 128,-1,6
 673 738 673 738 735 812 c 1,7,-1
 745 804 l 1,8,9
 717 707 717 707 674 529 c 0,10,11
 628 339 628 339 628 308 c 128,-1,12
 628 277 628 277 674 87 c 0,13,14
 717 -91 717 -91 745 -188 c 1,0,-1
1004 -188 m 1,15,-1
 994 -196 l 1,16,17
 932 -122 932 -122 816 62 c 128,-1,18
 700 246 700 246 676 308 c 1,19,20
 700 370 700 370 816 554 c 128,-1,21
 932 738 932 738 994 812 c 1,22,-1
 1004 804 l 1,23,24
 975 707 975 707 933 529 c 0,25,26
 888 339 888 339 888 308 c 128,-1,27
 888 277 888 277 933 87 c 0,28,29
 976 -91 976 -91 1004 -188 c 1,15,-1
370 798 m 1,30,-1
 276 576 l 2,31,32
 267 556 267 556 265 524 c 1,33,34
 297 522 297 522 368 511 c 1,35,-1
 273 289 l 2,36,37
 261 261 261 261 260 220 c 1,38,39
 287 219 287 219 365 207 c 1,40,-1
 270 -16 l 2,41,42
 257 -48 257 -48 257 -70 c 2,43,-1
 255 -180 l 2,44,45
 255 -196 255 -196 235 -196 c 128,-1,46
 215 -196 215 -196 215 -180 c 2,47,-1
 214 -70 l 2,48,49
 213 -48 213 -48 200 -16 c 2,50,-1
 105 207 l 1,51,52
 140 213 140 213 210 220 c 1,53,54
 209 261 209 261 197 289 c 2,55,-1
 102 511 l 1,56,57
 137 516 137 516 206 524 c 1,58,59
 203 556 203 556 195 576 c 2,60,-1
 100 798 l 1,61,62
 193 812 193 812 235 812 c 128,-1,63
 277 812 277 812 370 798 c 1,30,-1
1370 627 m 1,64,65
 1352 621 1352 621 1279.5 598.5 c 128,-1,66
 1207 576 1207 576 1168 564 c 0,67,68
 1144 556 1144 556 1115 527 c 0,69,70
 1109 521 1109 521 1084 497 c 128,-1,71
 1059 473 1059 473 1046 460 c 1,72,73
 1035 456 1035 456 1023.5 468 c 128,-1,74
 1012 480 1012 480 1020 490 c 0,75,76
 1027 498 1027 498 1057.5 529 c 128,-1,77
 1088 560 1088 560 1104 577 c 0,78,79
 1113 589 1113 589 1119 603 c 128,-1,80
 1125 617 1125 617 1131.5 639 c 128,-1,81
 1138 661 1138 661 1140 668 c 2,82,-1
 1185 812 l 1,83,84
 1285 733 1285 733 1325 682 c 0,85,86
 1345 658 1345 658 1370 627 c 1,64,65
EndSplineSet
EndChar

StartChar: uni3059
Encoding: 12377 12377 114
Width: 1024
GlyphClass: 2
Flags: W
LayerCount: 2
Fore
SplineSet
330 798 m 1,0,-1
 236 576 l 2,1,2
 227 556 227 556 225 524 c 1,3,4
 257 522 257 522 328 511 c 1,5,-1
 233 289 l 2,6,7
 221 261 221 261 220 220 c 1,8,9
 247 219 247 219 325 207 c 1,10,-1
 230 -16 l 2,11,12
 217 -48 217 -48 217 -70 c 2,13,-1
 215 -180 l 2,14,15
 215 -196 215 -196 195 -196 c 128,-1,16
 175 -196 175 -196 175 -180 c 2,17,-1
 173 -70 l 2,18,19
 173 -48 173 -48 160 -16 c 2,20,-1
 65 207 l 1,21,22
 100 213 100 213 170 220 c 1,23,24
 169 261 169 261 157 289 c 2,25,-1
 62 511 l 1,26,27
 97 516 97 516 166 524 c 1,28,29
 163 556 163 556 155 576 c 2,30,-1
 60 798 l 1,31,32
 153 812 153 812 195 812 c 128,-1,33
 237 812 237 812 330 798 c 1,34,-1
 330 798 l 1,0,-1
295 242 m 1,35,-1
 290 253 l 1,36,37
 340 314 340 314 463 430 c 128,-1,38
 586 546 586 546 627 570 c 1,39,40
 668 546 668 546 791 430 c 128,-1,41
 914 314 914 314 964 253 c 1,42,-1
 959 242 l 1,43,44
 894 271 894 271 774 313 c 0,45,46
 648 358 648 358 627 358 c 128,-1,47
 606 358 606 358 480 313 c 0,48,49
 360 270 360 270 295 242 c 1,50,-1
 295 242 l 1,35,-1
295 -58 m 1,51,-1
 290 -47 l 1,52,53
 340 14 340 14 463 130 c 128,-1,54
 586 246 586 246 627 270 c 1,55,56
 668 246 668 246 791 130 c 128,-1,57
 914 14 914 14 964 -47 c 1,58,-1
 959 -58 l 1,59,60
 894 -29 894 -29 774 13 c 0,61,62
 648 58 648 58 627 58 c 128,-1,63
 606 58 606 58 480 13 c 0,64,65
 360 -30 360 -30 295 -58 c 1,66,-1
 295 -58 l 1,51,-1
EndSplineSet
EndChar

StartChar: uni305A
Encoding: 12378 12378 115
Width: 1427
GlyphClass: 2
Flags: W
LayerCount: 2
Fore
SplineSet
370 798 m 1,0,-1
 276 576 l 2,1,2
 267 556 267 556 265 524 c 1,3,4
 297 522 297 522 368 511 c 1,5,-1
 273 289 l 2,6,7
 261 261 261 261 260 220 c 1,8,9
 287 219 287 219 365 207 c 1,10,-1
 270 -16 l 2,11,12
 257 -48 257 -48 257 -70 c 2,13,-1
 255 -180 l 2,14,15
 255 -196 255 -196 235 -196 c 128,-1,16
 215 -196 215 -196 215 -180 c 2,17,-1
 213 -70 l 2,18,19
 213 -48 213 -48 200 -16 c 2,20,-1
 105 207 l 1,21,22
 140 213 140 213 210 220 c 1,23,24
 209 261 209 261 197 289 c 2,25,-1
 102 511 l 1,26,27
 137 516 137 516 206 524 c 1,28,29
 203 556 203 556 195 576 c 2,30,-1
 100 798 l 1,31,32
 193 812 193 812 235 812 c 128,-1,33
 277 812 277 812 370 798 c 1,34,-1
 370 798 l 1,0,-1
335 242 m 1,35,-1
 330 253 l 1,36,37
 380 314 380 314 503 430 c 128,-1,38
 626 546 626 546 667 570 c 1,39,40
 708 546 708 546 831 430 c 128,-1,41
 954 314 954 314 1004 253 c 1,42,-1
 999 242 l 1,43,44
 934 271 934 271 814 313 c 0,45,46
 688 358 688 358 667 358 c 128,-1,47
 646 358 646 358 520 313 c 0,48,49
 400 270 400 270 335 242 c 1,50,-1
 335 242 l 1,35,-1
335 -58 m 1,51,-1
 330 -47 l 1,52,53
 380 14 380 14 503 130 c 128,-1,54
 626 246 626 246 667 270 c 1,55,56
 708 246 708 246 831 130 c 128,-1,57
 954 14 954 14 1004 -47 c 1,58,-1
 999 -58 l 1,59,60
 934 -29 934 -29 814 13 c 0,61,62
 688 58 688 58 667 58 c 128,-1,63
 646 58 646 58 520 13 c 0,64,65
 400 -30 400 -30 335 -58 c 1,66,-1
 335 -58 l 1,51,-1
1328 627 m 1,67,68
 1310 621 1310 621 1237.5 598.5 c 128,-1,69
 1165 576 1165 576 1126 564 c 0,70,71
 1102 556 1102 556 1073 527 c 0,72,73
 1067 521 1067 521 1042 497 c 128,-1,74
 1017 473 1017 473 1003 460 c 1,75,76
 992 456 992 456 981 468 c 128,-1,77
 970 480 970 480 977 490 c 0,78,79
 985 498 985 498 1015 529 c 128,-1,80
 1045 560 1045 560 1061 577 c 0,81,82
 1070 589 1070 589 1076 603 c 128,-1,83
 1082 617 1082 617 1088.5 639 c 128,-1,84
 1095 661 1095 661 1098 668 c 2,85,-1
 1142 812 l 1,86,87
 1242 733 1242 733 1283 682 c 0,88,89
 1303 658 1303 658 1328 627 c 1,67,68
EndSplineSet
EndChar

StartChar: uni305B
Encoding: 12379 12379 116
Width: 1024
GlyphClass: 2
Flags: W
LayerCount: 2
Fore
SplineSet
964 677 m 128,-1,1
 964 656 964 656 951 656 c 2,2,-1
 635 648 l 2,3,4
 604 648 604 648 583 636 c 2,5,-1
 404 542 l 1,6,7
 393 635 393 635 393 677 c 128,-1,8
 393 719 393 719 404 812 c 1,9,-1
 583 717 l 2,10,11
 604 707 604 707 635 706 c 2,12,-1
 951 698 l 2,13,0
 964 698 964 698 964 677 c 128,-1,1
958 -173 m 1,14,-1
 950 -180 l 1,15,16
 867 -89 867 -89 754 52 c 0,17,18
 697 124 697 124 690 133 c 0,19,20
 653 180 653 180 630 220 c 1,21,22
 659 269 659 269 754 388 c 0,23,24
 867 529 867 529 950 620 c 1,25,-1
 958 613 l 1,26,27
 929 522 929 522 909 454 c 0,28,29
 876 343 876 343 875 339 c 0,30,31
 856 272 856 272 848 220 c 1,32,33
 857 158 857 158 909 -14 c 0,34,35
 929 -82 929 -82 958 -173 c 1,14,-1
688 -173 m 1,36,-1
 680 -180 l 1,37,38
 597 -89 597 -89 484 52 c 0,39,40
 427 124 427 124 420 133 c 0,41,42
 383 180 383 180 360 220 c 1,43,44
 389 269 389 269 484 388 c 0,45,46
 597 529 597 529 680 620 c 1,47,-1
 688 613 l 1,48,49
 659 522 659 522 639 454 c 0,50,51
 606 343 606 343 605 339 c 0,52,53
 586 272 586 272 578 220 c 1,54,55
 587 158 587 158 639 -14 c 0,56,57
 659 -82 659 -82 688 -173 c 1,36,-1
330 798 m 1,58,-1
 236 576 l 2,59,60
 227 556 227 556 225 524 c 1,61,62
 257 522 257 522 328 511 c 1,63,-1
 233 289 l 2,64,65
 221 261 221 261 220 220 c 1,66,67
 247 219 247 219 325 207 c 1,68,-1
 230 -16 l 2,69,70
 217 -48 217 -48 217 -70 c 2,71,-1
 215 -180 l 2,72,73
 215 -196 215 -196 195 -196 c 128,-1,74
 175 -196 175 -196 175 -180 c 2,75,-1
 173 -70 l 2,76,77
 173 -48 173 -48 160 -16 c 2,78,-1
 65 207 l 1,79,80
 100 213 100 213 170 220 c 1,81,82
 169 261 169 261 157 289 c 2,83,-1
 62 511 l 1,84,85
 97 516 97 516 166 524 c 1,86,87
 163 556 163 556 155 576 c 2,88,-1
 60 798 l 1,89,90
 153 812 153 812 195 812 c 128,-1,91
 237 812 237 812 330 798 c 1,58,-1
EndSplineSet
EndChar

StartChar: uni305C
Encoding: 12380 12380 117
Width: 1460
GlyphClass: 2
Flags: W
LayerCount: 2
Fore
SplineSet
1004 677 m 128,-1,1
 1004 656 1004 656 991 656 c 2,2,-1
 675 648 l 2,3,4
 644 648 644 648 623 636 c 2,5,-1
 444 542 l 1,6,7
 433 635 433 635 433 677 c 128,-1,8
 433 719 433 719 444 812 c 1,9,-1
 623 717 l 2,10,11
 644 707 644 707 675 706 c 2,12,-1
 991 698 l 2,13,0
 1004 698 1004 698 1004 677 c 128,-1,1
998 -173 m 1,14,-1
 990 -180 l 1,15,16
 907 -89 907 -89 794 52 c 0,17,18
 737 124 737 124 730 133 c 0,19,20
 693 180 693 180 670 220 c 1,21,22
 699 269 699 269 794 388 c 0,23,24
 907 529 907 529 990 620 c 1,25,-1
 998 613 l 1,26,27
 969 522 969 522 949 454 c 0,28,29
 916 343 916 343 915 339 c 0,30,31
 896 272 896 272 888 220 c 1,32,33
 897 158 897 158 949 -14 c 0,34,35
 969 -82 969 -82 998 -173 c 1,14,-1
728 -173 m 1,36,-1
 720 -180 l 1,37,38
 637 -89 637 -89 524 52 c 0,39,40
 467 124 467 124 460 133 c 0,41,42
 423 180 423 180 400 220 c 1,43,44
 429 269 429 269 524 388 c 0,45,46
 637 529 637 529 720 620 c 1,47,-1
 728 613 l 1,48,49
 699 522 699 522 679 454 c 0,50,51
 646 343 646 343 645 339 c 0,52,53
 626 272 626 272 618 220 c 1,54,55
 627 158 627 158 679 -14 c 0,56,57
 699 -82 699 -82 728 -173 c 1,36,-1
370 798 m 1,58,-1
 276 576 l 2,59,60
 267 556 267 556 265 524 c 1,61,62
 297 522 297 522 368 511 c 1,63,-1
 273 289 l 2,64,65
 261 261 261 261 260 220 c 1,66,67
 287 219 287 219 365 207 c 1,68,-1
 270 -16 l 2,69,70
 257 -48 257 -48 257 -70 c 2,71,-1
 255 -180 l 2,72,73
 255 -196 255 -196 235 -196 c 128,-1,74
 215 -196 215 -196 215 -180 c 2,75,-1
 213 -70 l 2,76,77
 213 -48 213 -48 200 -16 c 2,78,-1
 105 207 l 1,79,80
 140 213 140 213 210 220 c 1,81,82
 209 261 209 261 197 289 c 2,83,-1
 102 511 l 1,84,85
 137 516 137 516 206 524 c 1,86,87
 203 556 203 556 195 576 c 2,88,-1
 100 798 l 1,89,90
 193 812 193 812 235 812 c 128,-1,91
 277 812 277 812 370 798 c 1,58,-1
1360 627 m 1,92,93
 1343 621 1343 621 1270.5 598.5 c 128,-1,94
 1198 576 1198 576 1159 564 c 0,95,96
 1134 556 1134 556 1105 527 c 0,97,98
 1099 521 1099 521 1074.5 497 c 128,-1,99
 1050 473 1050 473 1036 460 c 1,100,101
 1025 456 1025 456 1013.5 468 c 128,-1,102
 1002 480 1002 480 1010 490 c 0,103,104
 1017 498 1017 498 1047.5 529 c 128,-1,105
 1078 560 1078 560 1094 577 c 0,106,107
 1103 589 1103 589 1109 603 c 128,-1,108
 1115 617 1115 617 1121.5 639 c 128,-1,109
 1128 661 1128 661 1130 668 c 2,110,-1
 1175 812 l 1,111,112
 1275 733 1275 733 1315 682 c 0,113,114
 1335 658 1335 658 1360 627 c 1,92,93
EndSplineSet
EndChar

StartChar: uni305D
Encoding: 12381 12381 118
Width: 1024
GlyphClass: 2
Flags: W
LayerCount: 2
Fore
SplineSet
330 798 m 1,0,-1
 236 576 l 2,1,2
 227 556 227 556 224 524 c 1,3,4
 257 522 257 522 328 511 c 1,5,-1
 233 289 l 2,6,7
 221 261 221 261 220 220 c 1,8,9
 247 219 247 219 325 207 c 1,10,-1
 230 -16 l 2,11,12
 217 -48 217 -48 217 -70 c 2,13,-1
 215 -180 l 2,14,15
 215 -196 215 -196 195 -196 c 128,-1,16
 175 -196 175 -196 175 -180 c 2,17,-1
 173 -70 l 2,18,19
 173 -48 173 -48 160 -16 c 2,20,-1
 65 207 l 1,21,22
 100 213 100 213 170 220 c 1,23,24
 169 261 169 261 157 289 c 2,25,-1
 62 511 l 1,26,27
 97 516 97 516 166 524 c 1,28,29
 163 556 163 556 155 576 c 2,30,-1
 60 798 l 1,31,32
 153 812 153 812 195 812 c 128,-1,33
 237 812 237 812 330 798 c 1,34,-1
 330 798 l 1,0,-1
960 19 m 1,35,-1
 951 12 l 1,36,37
 869 103 869 103 756 244 c 0,38,39
 698 316 698 316 691 325 c 0,40,41
 655 372 655 372 632 412 c 1,42,43
 661 461 661 461 756 580 c 0,44,45
 869 721 869 721 951 812 c 1,46,-1
 960 805 l 1,47,48
 931 714 931 714 911 646 c 0,49,50
 877 535 877 535 876 531 c 0,51,52
 857 464 857 464 850 412 c 1,53,54
 859 350 859 350 911 178 c 0,55,56
 931 110 931 110 960 19 c 1,57,-1
 960 19 l 1,35,-1
661 19 m 1,58,-1
 652 12 l 1,59,60
 570 103 570 103 457 244 c 0,61,62
 399 316 399 316 393 325 c 0,63,64
 356 372 356 372 333 412 c 1,65,66
 362 461 362 461 457 580 c 0,67,68
 570 721 570 721 652 812 c 1,69,-1
 661 805 l 1,70,71
 632 714 632 714 612 646 c 0,72,73
 578 535 578 535 578 531 c 0,74,75
 559 464 559 464 551 412 c 1,76,77
 560 350 560 350 612 178 c 0,78,79
 632 110 632 110 661 19 c 1,80,-1
 661 19 l 1,58,-1
964 -61 m 128,-1,82
 964 -82 964 -82 951 -82 c 2,83,-1
 622 -90 l 2,84,85
 591 -91 591 -91 570 -102 c 2,86,-1
 391 -196 l 1,87,88
 380 -103 380 -103 380 -61 c 128,-1,89
 380 -19 380 -19 391 74 c 1,90,-1
 570 -21 l 2,91,92
 591 -32 591 -32 622 -32 c 2,93,-1
 951 -40 l 2,94,81
 964 -40 964 -40 964 -61 c 128,-1,82
EndSplineSet
EndChar

StartChar: uni305E
Encoding: 12382 12382 119
Width: 1430
GlyphClass: 2
Flags: W
LayerCount: 2
Fore
SplineSet
370 798 m 1,0,-1
 276 576 l 2,1,2
 267 556 267 556 264 524 c 1,3,4
 297 522 297 522 368 511 c 1,5,-1
 273 289 l 2,6,7
 261 261 261 261 260 220 c 1,8,9
 287 219 287 219 365 207 c 1,10,-1
 270 -16 l 2,11,12
 257 -48 257 -48 257 -70 c 2,13,-1
 255 -180 l 2,14,15
 255 -196 255 -196 235 -196 c 128,-1,16
 215 -196 215 -196 215 -180 c 2,17,-1
 213 -70 l 2,18,19
 213 -48 213 -48 200 -16 c 2,20,-1
 105 207 l 1,21,22
 140 213 140 213 210 220 c 1,23,24
 209 261 209 261 197 289 c 2,25,-1
 102 511 l 1,26,27
 137 516 137 516 206 524 c 1,28,29
 203 556 203 556 195 576 c 2,30,-1
 100 798 l 1,31,32
 193 812 193 812 235 812 c 128,-1,33
 277 812 277 812 370 798 c 1,34,-1
 370 798 l 1,0,-1
1000 19 m 1,35,-1
 991 12 l 1,36,37
 909 103 909 103 796 244 c 0,38,39
 738 316 738 316 731 325 c 0,40,41
 695 372 695 372 672 412 c 1,42,43
 701 461 701 461 796 580 c 0,44,45
 909 721 909 721 991 812 c 1,46,-1
 1000 805 l 1,47,48
 971 714 971 714 951 646 c 0,49,50
 917 535 917 535 916 531 c 0,51,52
 897 464 897 464 890 412 c 1,53,54
 899 350 899 350 951 178 c 0,55,56
 971 110 971 110 1000 19 c 1,57,-1
 1000 19 l 1,35,-1
701 19 m 1,58,-1
 692 12 l 1,59,60
 610 103 610 103 497 244 c 0,61,62
 439 316 439 316 433 325 c 0,63,64
 396 372 396 372 373 412 c 1,65,66
 402 461 402 461 497 580 c 0,67,68
 610 721 610 721 692 812 c 1,69,-1
 701 805 l 1,70,71
 672 714 672 714 652 646 c 0,72,73
 618 535 618 535 618 531 c 0,74,75
 599 464 599 464 591 412 c 1,76,77
 600 350 600 350 652 178 c 0,78,79
 672 110 672 110 701 19 c 1,80,-1
 701 19 l 1,58,-1
1004 -61 m 128,-1,82
 1004 -82 1004 -82 991 -82 c 2,83,-1
 662 -90 l 2,84,85
 631 -91 631 -91 610 -102 c 2,86,-1
 431 -196 l 1,87,88
 420 -103 420 -103 420 -61 c 128,-1,89
 420 -19 420 -19 431 74 c 1,90,-1
 610 -21 l 2,91,92
 631 -32 631 -32 662 -32 c 2,93,-1
 991 -40 l 2,94,81
 1004 -40 1004 -40 1004 -61 c 128,-1,82
1331 627 m 1,95,96
 1313 621 1313 621 1240.5 598.5 c 128,-1,97
 1168 576 1168 576 1129 564 c 0,98,99
 1105 556 1105 556 1076 527 c 0,100,101
 1070 521 1070 521 1045 497 c 128,-1,102
 1020 473 1020 473 1006 460 c 1,103,104
 995 456 995 456 984 468 c 128,-1,105
 973 480 973 480 980 490 c 0,106,107
 988 498 988 498 1018 529 c 128,-1,108
 1048 560 1048 560 1064 577 c 0,109,110
 1073 589 1073 589 1079 603 c 128,-1,111
 1085 617 1085 617 1091.5 639 c 128,-1,112
 1098 661 1098 661 1101 668 c 2,113,-1
 1145 812 l 1,114,115
 1245 733 1245 733 1286 682 c 0,116,117
 1306 658 1306 658 1331 627 c 1,95,96
EndSplineSet
EndChar

StartChar: uni305F
Encoding: 12383 12383 120
Width: 1024
GlyphClass: 2
Flags: W
LayerCount: 2
Fore
SplineSet
455 450 m 1,0,-1
 361 227 l 2,1,2
 345 190 345 190 344 162 c 2,3,-1
 340 -180 l 2,4,5
 340 -196 340 -196 320 -196 c 128,-1,6
 300 -196 300 -196 300 -180 c 2,7,-1
 296 162 l 2,8,9
 295 190 295 190 280 227 c 2,10,-1
 185 450 l 1,11,12
 220 455 220 455 292 463 c 1,13,-1
 291 511 l 2,14,15
 290 549 290 549 280 576 c 2,16,-1
 185 798 l 1,17,18
 278 812 278 812 320 812 c 128,-1,19
 362 812 362 812 455 798 c 1,20,-1
 361 576 l 2,21,22
 350 549 350 549 349 511 c 2,23,-1
 349 463 l 1,24,25
 378 461 378 461 455 450 c 1,26,-1
 455 450 l 1,0,-1
839 -188 m 1,27,-1
 828 -196 l 1,28,29
 767 -122 767 -122 651 62 c 128,-1,30
 535 246 535 246 511 308 c 1,31,32
 535 370 535 370 651 554 c 128,-1,33
 767 738 767 738 828 812 c 1,34,-1
 839 804 l 1,35,36
 810 707 810 707 768 529 c 0,37,38
 722 339 722 339 722 308 c 128,-1,39
 722 277 722 277 768 87 c 0,40,41
 810 -91 810 -91 839 -188 c 1,42,-1
 839 -188 l 1,27,-1
EndSplineSet
EndChar

StartChar: uni3060
Encoding: 12384 12384 121
Width: 1242
GlyphClass: 2
Flags: W
LayerCount: 2
Fore
SplineSet
370 450 m 1,0,-1
 276 227 l 2,1,2
 260 190 260 190 260 162 c 2,3,-1
 255 -180 l 2,4,5
 255 -196 255 -196 235 -196 c 128,-1,6
 215 -196 215 -196 215 -180 c 2,7,-1
 210 162 l 2,8,9
 210 190 210 190 194 227 c 2,10,-1
 100 450 l 1,11,12
 135 455 135 455 206 463 c 1,13,-1
 206 511 l 2,14,15
 206 549 206 549 194 576 c 2,16,-1
 100 798 l 1,17,18
 193 812 193 812 235 812 c 128,-1,19
 277 812 277 812 370 798 c 1,20,-1
 276 576 l 2,21,22
 264 549 264 549 264 511 c 2,23,-1
 264 463 l 1,24,25
 293 461 293 461 370 450 c 1,26,-1
 370 450 l 1,0,-1
754 -188 m 1,27,-1
 743 -196 l 1,28,29
 682 -122 682 -122 566 62 c 128,-1,30
 450 246 450 246 426 308 c 1,31,32
 450 370 450 370 566 554 c 128,-1,33
 682 738 682 738 743 812 c 1,34,-1
 754 804 l 1,35,36
 725 707 725 707 683 529 c 0,37,38
 638 339 638 339 638 308 c 128,-1,39
 638 277 638 277 683 87 c 0,40,41
 726 -91 726 -91 754 -188 c 1,42,-1
 754 -188 l 1,27,-1
1142 627 m 1,43,44
 1125 621 1125 621 1052.5 598.5 c 128,-1,45
 980 576 980 576 941 564 c 0,46,47
 916 556 916 556 887 527 c 0,48,49
 881 521 881 521 856.5 497 c 128,-1,50
 832 473 832 473 818 460 c 1,51,52
 807 456 807 456 795.5 468 c 128,-1,53
 784 480 784 480 792 490 c 0,54,55
 799 498 799 498 829.5 529 c 128,-1,56
 860 560 860 560 876 577 c 0,57,58
 885 589 885 589 891 603 c 128,-1,59
 897 617 897 617 903.5 639 c 128,-1,60
 910 661 910 661 912 668 c 2,61,-1
 957 812 l 1,62,63
 1057 733 1057 733 1097 682 c 0,64,65
 1117 658 1117 658 1142 627 c 1,43,44
EndSplineSet
EndChar

StartChar: uni3061
Encoding: 12385 12385 122
Width: 1024
GlyphClass: 2
Flags: W
LayerCount: 2
Fore
SplineSet
330 450 m 1,0,-1
 236 227 l 2,1,2
 220 190 220 190 220 162 c 2,3,-1
 215 -180 l 2,4,5
 215 -196 215 -196 195 -196 c 128,-1,6
 175 -196 175 -196 175 -180 c 2,7,-1
 170 162 l 2,8,9
 170 190 170 190 154 227 c 2,10,-1
 60 450 l 1,11,12
 95 455 95 455 166 463 c 1,13,-1
 166 511 l 2,14,15
 166 549 166 549 154 576 c 2,16,-1
 60 798 l 1,17,18
 153 812 153 812 195 812 c 128,-1,19
 237 812 237 812 330 798 c 1,20,-1
 236 576 l 2,21,22
 224 549 224 549 224 511 c 2,23,-1
 224 463 l 1,24,25
 253 461 253 461 330 450 c 1,0,-1
705 -188 m 1,26,-1
 695 -196 l 1,27,28
 633 -122 633 -122 517 62 c 128,-1,29
 401 246 401 246 377 308 c 1,30,31
 401 370 401 370 517 554 c 128,-1,32
 633 738 633 738 695 812 c 1,33,-1
 705 804 l 1,34,35
 677 707 677 707 634 529 c 0,36,37
 588 339 588 339 588 308 c 128,-1,38
 588 277 588 277 634 87 c 0,39,40
 677 -91 677 -91 705 -188 c 1,41,-1
 705 -188 l 1,26,-1
964 -188 m 1,42,-1
 953 -196 l 1,43,44
 892 -122 892 -122 776 62 c 128,-1,45
 660 246 660 246 636 308 c 1,46,47
 660 370 660 370 776 554 c 128,-1,48
 892 738 892 738 953 812 c 1,49,-1
 964 804 l 1,50,51
 935 707 935 707 893 529 c 0,52,53
 847 339 847 339 847.5 308 c 128,-1,54
 848 277 848 277 893 87 c 0,55,56
 935 -91 935 -91 964 -188 c 1,57,-1
 964 -188 l 1,42,-1
EndSplineSet
EndChar

StartChar: uni3062
Encoding: 12386 12386 123
Width: 1480
GlyphClass: 2
Flags: W
LayerCount: 2
Fore
SplineSet
370 450 m 1,0,-1
 276 227 l 2,1,2
 260 190 260 190 260 162 c 2,3,-1
 255 -180 l 2,4,5
 255 -196 255 -196 235 -196 c 128,-1,6
 215 -196 215 -196 215 -180 c 2,7,-1
 210 162 l 2,8,9
 210 190 210 190 194 227 c 2,10,-1
 100 450 l 1,11,12
 135 455 135 455 206 463 c 1,13,-1
 206 511 l 2,14,15
 206 549 206 549 194 576 c 2,16,-1
 100 798 l 1,17,18
 193 812 193 812 235 812 c 128,-1,19
 277 812 277 812 370 798 c 1,20,-1
 276 576 l 2,21,22
 264 549 264 549 264 511 c 2,23,-1
 264 463 l 1,24,25
 293 461 293 461 370 450 c 1,0,-1
745 -188 m 1,26,-1
 735 -196 l 1,27,28
 673 -122 673 -122 557 62 c 128,-1,29
 441 246 441 246 417 308 c 1,30,31
 441 370 441 370 557 554 c 128,-1,32
 673 738 673 738 735 812 c 1,33,-1
 745 804 l 1,34,35
 717 707 717 707 674 529 c 0,36,37
 628 339 628 339 628 308 c 128,-1,38
 628 277 628 277 674 87 c 0,39,40
 717 -91 717 -91 745 -188 c 1,41,-1
 745 -188 l 1,26,-1
1004 -188 m 1,42,-1
 993 -196 l 1,43,44
 932 -122 932 -122 816 62 c 128,-1,45
 700 246 700 246 676 308 c 1,46,47
 700 370 700 370 816 554 c 128,-1,48
 932 738 932 738 993 812 c 1,49,-1
 1004 804 l 1,50,51
 975 707 975 707 933 529 c 0,52,53
 887 339 887 339 887.5 308 c 128,-1,54
 888 277 888 277 933 87 c 0,55,56
 976 -91 976 -91 1004 -188 c 1,57,-1
 1004 -188 l 1,42,-1
1380 627 m 1,58,59
 1363 621 1363 621 1290.5 598.5 c 128,-1,60
 1218 576 1218 576 1179 564 c 0,61,62
 1154 556 1154 556 1125 527 c 0,63,64
 1119 521 1119 521 1094.5 497 c 128,-1,65
 1070 473 1070 473 1056 460 c 1,66,67
 1045 456 1045 456 1033.5 468 c 128,-1,68
 1022 480 1022 480 1030 490 c 0,69,70
 1037 498 1037 498 1067.5 529 c 128,-1,71
 1098 560 1098 560 1114 577 c 0,72,73
 1123 589 1123 589 1129 603 c 128,-1,74
 1135 617 1135 617 1141.5 639 c 128,-1,75
 1148 661 1148 661 1150 668 c 2,76,-1
 1195 812 l 1,77,78
 1295 733 1295 733 1335 682 c 0,79,80
 1355 658 1355 658 1380 627 c 1,58,59
EndSplineSet
EndChar

StartChar: uni3063
Encoding: 12387 12387 124
Width: 1024
GlyphClass: 2
Flags: W
LayerCount: 2
Fore
SplineSet
647 702 m 1,0,-1
 552 523 l 2,1,2
 542 502 542 502 541 471 c 2,3,-1
 532 -84 l 2,4,5
 532 -97 532 -97 512 -97 c 128,-1,6
 492 -97 492 -97 492 -84 c 2,7,-1
 483 471 l 2,8,9
 482 502 482 502 472 523 c 2,10,-1
 377 702 l 1,11,12
 470 713 470 713 512 713 c 128,-1,13
 554 713 554 713 647 702 c 1,0,-1
964 591 m 1,14,-1
 814 455 l 2,15,16
 796 440 796 440 786 410 c 2,17,-1
 596 -85 l 2,18,19
 593 -92 593 -92 584 -92 c 0,20,21
 557 -92 557 -92 557 -75 c 0,22,23
 557 -72 557 -72 558 -71 c 2,24,-1
 731 430 l 2,25,26
 738 452 738 452 738 474 c 0,27,28
 738 480 738 480 738 483 c 2,29,-1
 710 684 l 1,30,31
 754 673 754 673 841 648 c 0,32,33
 880 633 880 633 964 591 c 1,14,-1
60 591 m 1,34,35
 144 633 144 633 183 648 c 0,36,37
 270 673 270 673 314 684 c 1,38,-1
 286 483 l 2,39,40
 286 480 286 480 286 474 c 0,41,42
 286 452 286 452 293 430 c 2,43,-1
 466 -71 l 2,44,45
 467 -72 467 -72 467 -75 c 0,46,47
 467 -92 467 -92 440 -92 c 0,48,49
 431 -92 431 -92 428 -85 c 2,50,-1
 238 410 l 2,51,52
 228 440 228 440 210 455 c 2,53,-1
 60 591 l 1,34,35
EndSplineSet
EndChar

StartChar: uni3064
Encoding: 12388 12388 125
Width: 1024
GlyphClass: 2
Flags: W
LayerCount: 2
Fore
SplineSet
330 450 m 1,0,-1
 236 227 l 2,1,2
 220 190 220 190 220 162 c 2,3,-1
 215 -180 l 2,4,5
 215 -196 215 -196 195 -196 c 128,-1,6
 175 -196 175 -196 175 -180 c 2,7,-1
 170 162 l 2,8,9
 170 190 170 190 154 227 c 2,10,-1
 60 450 l 1,11,12
 95 455 95 455 166 463 c 1,13,-1
 166 511 l 2,14,15
 166 549 166 549 154 576 c 2,16,-1
 60 798 l 1,17,18
 153 812 153 812 195 812 c 128,-1,19
 237 812 237 812 330 798 c 1,20,-1
 236 576 l 2,21,22
 225 549 225 549 224 511 c 2,23,-1
 224 463 l 1,24,25
 253 461 253 461 330 450 c 1,26,-1
 330 450 l 1,0,-1
295 242 m 1,27,-1
 290 253 l 1,28,29
 340 314 340 314 463 430 c 128,-1,30
 586 546 586 546 627 570 c 1,31,32
 668 546 668 546 791 430 c 128,-1,33
 914 314 914 314 964 253 c 1,34,-1
 959 242 l 1,35,36
 894 271 894 271 774 313 c 0,37,38
 648 358 648 358 627 358 c 128,-1,39
 606 358 606 358 480 313 c 0,40,41
 360 270 360 270 295 242 c 1,42,-1
 295 242 l 1,27,-1
295 -58 m 1,43,-1
 290 -47 l 1,44,45
 340 14 340 14 463 130 c 128,-1,46
 586 246 586 246 627 270 c 1,47,48
 668 246 668 246 791 130 c 128,-1,49
 914 14 914 14 964 -47 c 1,50,-1
 959 -58 l 1,51,52
 894 -29 894 -29 774 13 c 0,53,54
 648 58 648 58 627 58 c 128,-1,55
 606 58 606 58 480 13 c 0,56,57
 360 -30 360 -30 295 -58 c 1,58,-1
 295 -58 l 1,43,-1
EndSplineSet
EndChar

StartChar: uni3065
Encoding: 12389 12389 126
Width: 1422
GlyphClass: 2
Flags: W
LayerCount: 2
Fore
SplineSet
370 450 m 1,0,-1
 276 227 l 2,1,2
 260 190 260 190 260 162 c 2,3,-1
 255 -180 l 2,4,5
 255 -196 255 -196 235 -196 c 128,-1,6
 215 -196 215 -196 215 -180 c 2,7,-1
 210 162 l 2,8,9
 210 190 210 190 194 227 c 2,10,-1
 100 450 l 1,11,12
 135 455 135 455 206 463 c 1,13,-1
 206 511 l 2,14,15
 206 549 206 549 194 576 c 2,16,-1
 100 798 l 1,17,18
 193 812 193 812 235 812 c 128,-1,19
 277 812 277 812 370 798 c 1,20,-1
 276 576 l 2,21,22
 265 549 265 549 264 511 c 2,23,-1
 264 463 l 1,24,25
 293 461 293 461 370 450 c 1,26,-1
 370 450 l 1,0,-1
335 242 m 1,27,-1
 330 253 l 1,28,29
 380 314 380 314 503 430 c 128,-1,30
 626 546 626 546 667 570 c 1,31,32
 708 546 708 546 831 430 c 128,-1,33
 954 314 954 314 1004 253 c 1,34,-1
 999 242 l 1,35,36
 934 271 934 271 814 313 c 0,37,38
 688 358 688 358 667 358 c 128,-1,39
 646 358 646 358 520 313 c 0,40,41
 400 270 400 270 335 242 c 1,42,-1
 335 242 l 1,27,-1
335 -58 m 1,43,-1
 330 -47 l 1,44,45
 380 14 380 14 503 130 c 128,-1,46
 626 246 626 246 667 270 c 1,47,48
 708 246 708 246 831 130 c 128,-1,49
 954 14 954 14 1004 -47 c 1,50,-1
 999 -58 l 1,51,52
 934 -29 934 -29 814 13 c 0,53,54
 688 58 688 58 667 58 c 128,-1,55
 646 58 646 58 520 13 c 0,56,57
 400 -30 400 -30 335 -58 c 1,58,-1
 335 -58 l 1,43,-1
1322 627 m 1,59,60
 1305 621 1305 621 1232.5 598.5 c 128,-1,61
 1160 576 1160 576 1121 564 c 0,62,63
 1096 556 1096 556 1068 527 c 0,64,65
 1061 521 1061 521 1036.5 497 c 128,-1,66
 1012 473 1012 473 998 460 c 1,67,68
 987 456 987 456 975.5 468 c 128,-1,69
 964 480 964 480 972 490 c 0,70,71
 979 498 979 498 1009.5 529 c 128,-1,72
 1040 560 1040 560 1056 577 c 0,73,74
 1065 589 1065 589 1071 603 c 128,-1,75
 1077 617 1077 617 1083.5 639 c 128,-1,76
 1090 661 1090 661 1092 668 c 2,77,-1
 1137 812 l 1,78,79
 1237 733 1237 733 1277 682 c 0,80,81
 1297 658 1297 658 1322 627 c 1,59,60
EndSplineSet
EndChar

StartChar: uni3066
Encoding: 12390 12390 127
Width: 1024
GlyphClass: 2
Flags: W
LayerCount: 2
Fore
SplineSet
963 677 m 128,-1,1
 963 656 963 656 950 656 c 2,2,-1
 636 648 l 2,3,4
 605 648 605 648 584 636 c 2,5,-1
 405 542 l 1,6,7
 394 635 394 635 394 677 c 128,-1,8
 394 719 394 719 405 812 c 1,9,-1
 584 717 l 2,10,11
 605 707 605 707 636 706 c 2,12,-1
 950 698 l 2,13,0
 963 698 963 698 963 677 c 128,-1,1
959 -173 m 1,14,-1
 950 -180 l 1,15,16
 868 -89 868 -89 755 52 c 0,17,18
 697 124 697 124 690 133 c 0,19,20
 654 180 654 180 631 220 c 1,21,22
 660 269 660 269 755 388 c 0,23,24
 868 529 868 529 950 620 c 1,25,-1
 959 613 l 1,26,27
 930 522 930 522 910 454 c 0,28,29
 876 343 876 343 875 339 c 0,30,31
 857 272 857 272 849 220 c 1,32,33
 858 158 858 158 910 -14 c 0,34,35
 930 -82 930 -82 959 -173 c 1,14,-1
659 -173 m 1,36,-1
 650 -180 l 1,37,38
 568 -89 568 -89 455 52 c 0,39,40
 397 124 397 124 390 133 c 0,41,42
 354 180 354 180 331 220 c 1,43,44
 360 269 360 269 455 388 c 0,45,46
 568 529 568 529 650 620 c 1,47,-1
 659 613 l 1,48,49
 630 522 630 522 610 454 c 0,50,51
 576 343 576 343 575 339 c 0,52,53
 557 272 557 272 549 220 c 1,54,55
 558 158 558 158 610 -14 c 0,56,57
 630 -82 630 -82 659 -173 c 1,36,-1
331 450 m 1,58,-1
 236 227 l 2,59,60
 221 190 221 190 220 162 c 2,61,-1
 216 -180 l 2,62,63
 216 -196 216 -196 196 -196 c 128,-1,64
 176 -196 176 -196 176 -180 c 2,65,-1
 171 162 l 2,66,67
 171 190 171 190 155 227 c 2,68,-1
 61 450 l 1,69,70
 96 455 96 455 167 463 c 1,71,-1
 167 511 l 2,72,73
 166 549 166 549 155 576 c 2,74,-1
 61 798 l 1,75,76
 154 812 154 812 196 812 c 128,-1,77
 238 812 238 812 331 798 c 1,78,-1
 236 576 l 2,79,80
 225 549 225 549 225 511 c 2,81,-1
 224 463 l 1,82,83
 254 461 254 461 331 450 c 1,58,-1
EndSplineSet
EndChar

StartChar: uni3067
Encoding: 12391 12391 128
Width: 1501
GlyphClass: 2
Flags: W
LayerCount: 2
Fore
SplineSet
1002.5 677 m 128,-1,1
 1002 656 1002 656 990 656 c 2,2,-1
 675 648 l 2,3,4
 644 648 644 648 623 636 c 2,5,-1
 444 542 l 1,6,7
 433 635 433 635 433 677 c 128,-1,8
 433 719 433 719 444 812 c 1,9,-1
 623 717 l 2,10,11
 644 707 644 707 675 706 c 2,12,-1
 990 698 l 2,13,0
 1003 698 1003 698 1002.5 677 c 128,-1,1
998 -173 m 1,14,-1
 990 -180 l 1,15,16
 907 -89 907 -89 794 52 c 0,17,18
 737 124 737 124 730 133 c 0,19,20
 693 180 693 180 670 220 c 1,21,22
 699 269 699 269 794 388 c 0,23,24
 907 529 907 529 990 620 c 1,25,-1
 998 613 l 1,26,27
 969 522 969 522 949 454 c 0,28,29
 916 343 916 343 915 339 c 0,30,31
 896 272 896 272 888 220 c 1,32,33
 897 158 897 158 949 -14 c 0,34,35
 969 -82 969 -82 998 -173 c 1,14,-1
698 -173 m 1,36,-1
 690 -180 l 1,37,38
 607 -89 607 -89 494 52 c 0,39,40
 437 124 437 124 430 133 c 0,41,42
 393 180 393 180 370 220 c 1,43,44
 399 269 399 269 494 388 c 0,45,46
 607 529 607 529 690 620 c 1,47,-1
 698 613 l 1,48,49
 669 522 669 522 649 454 c 0,50,51
 616 343 616 343 615 339 c 0,52,53
 596 272 596 272 588 220 c 1,54,55
 597 158 597 158 649 -14 c 0,56,57
 669 -82 669 -82 698 -173 c 1,36,-1
370 450 m 1,58,-1
 276 227 l 2,59,60
 260 190 260 190 260 162 c 2,61,-1
 255 -180 l 2,62,63
 255 -196 255 -196 235 -196 c 128,-1,64
 215 -196 215 -196 215 -180 c 2,65,-1
 210 162 l 2,66,67
 210 190 210 190 194 227 c 2,68,-1
 100 450 l 1,69,70
 135 455 135 455 206 463 c 1,71,-1
 206 511 l 2,72,73
 206 549 206 549 194 576 c 2,74,-1
 100 798 l 1,75,76
 193 812 193 812 235 812 c 128,-1,77
 277 812 277 812 370 798 c 1,78,-1
 276 576 l 2,79,80
 264 549 264 549 264 511 c 2,81,-1
 264 463 l 1,82,83
 293 461 293 461 370 450 c 1,58,-1
1401 627 m 1,84,85
 1384 621 1384 621 1311.5 598.5 c 128,-1,86
 1239 576 1239 576 1200 564 c 0,87,88
 1175 556 1175 556 1146 527 c 0,89,90
 1140 521 1140 521 1115.5 497 c 128,-1,91
 1091 473 1091 473 1077 460 c 1,92,93
 1066 456 1066 456 1054.5 468 c 128,-1,94
 1043 480 1043 480 1051 490 c 0,95,96
 1058 498 1058 498 1088.5 529 c 128,-1,97
 1119 560 1119 560 1135 577 c 0,98,99
 1144 589 1144 589 1150 603 c 128,-1,100
 1156 617 1156 617 1162.5 639 c 128,-1,101
 1169 661 1169 661 1171 668 c 2,102,-1
 1216 812 l 1,103,104
 1316 733 1316 733 1356 682 c 0,105,106
 1376 658 1376 658 1401 627 c 1,84,85
EndSplineSet
EndChar

StartChar: uni3068
Encoding: 12392 12392 129
Width: 1024
GlyphClass: 2
Flags: W
LayerCount: 2
Fore
SplineSet
330 450 m 1,0,-1
 235 227 l 2,1,2
 220 190 220 190 219 162 c 2,3,-1
 215 -180 l 2,4,5
 215 -196 215 -196 195 -196 c 128,-1,6
 175 -196 175 -196 175 -180 c 2,7,-1
 170 162 l 2,8,9
 170 190 170 190 154 227 c 2,10,-1
 60 450 l 1,11,12
 95 455 95 455 166 463 c 1,13,-1
 166 511 l 2,14,15
 165 549 165 549 154 576 c 2,16,-1
 60 798 l 1,17,18
 153 812 153 812 195 812 c 128,-1,19
 237 812 237 812 330 798 c 1,20,-1
 235 576 l 2,21,22
 224 549 224 549 224 511 c 2,23,-1
 223 463 l 1,24,25
 253 461 253 461 330 450 c 1,0,-1
960 19 m 1,26,-1
 951 12 l 1,27,28
 869 103 869 103 756 244 c 0,29,30
 698 316 698 316 691 325 c 0,31,32
 655 372 655 372 631 412 c 1,33,34
 661 461 661 461 756 580 c 0,35,36
 869 721 869 721 951 812 c 1,37,-1
 960 805 l 1,38,39
 931 714 931 714 911 646 c 0,40,41
 877 535 877 535 876 531 c 0,42,43
 857 464 857 464 850 412 c 1,44,45
 859 350 859 350 911 178 c 0,46,47
 931 110 931 110 960 19 c 1,48,-1
 960 19 l 1,26,-1
661 19 m 1,49,-1
 652 12 l 1,50,51
 570 103 570 103 457 244 c 0,52,53
 399 316 399 316 393 325 c 0,54,55
 356 372 356 372 333 412 c 1,56,57
 362 461 362 461 457 580 c 0,58,59
 570 721 570 721 652 812 c 1,60,-1
 661 805 l 1,61,62
 632 714 632 714 612 646 c 0,63,64
 578 535 578 535 577 531 c 0,65,66
 559 464 559 464 551 412 c 1,67,68
 560 350 560 350 612 178 c 0,69,70
 632 110 632 110 661 19 c 1,71,-1
 661 19 l 1,49,-1
964 -61 m 1,72,73
 964 -82 964 -82 951 -82 c 2,74,-1
 542 -90 l 2,75,76
 511 -91 511 -91 490 -102 c 2,77,-1
 311 -196 l 1,78,79
 300 -103 300 -103 300 -61 c 128,-1,80
 300 -19 300 -19 311 74 c 1,81,-1
 490 -21 l 2,82,83
 511 -32 511 -32 542 -32 c 2,84,-1
 951 -40 l 2,85,86
 964 -40 964 -40 964 -61 c 1,87,-1
 964 -61 l 1,72,73
EndSplineSet
EndChar

StartChar: uni3069
Encoding: 12393 12393 130
Width: 1435
GlyphClass: 2
Flags: W
LayerCount: 2
Fore
SplineSet
370 450 m 1,0,-1
 276 227 l 2,1,2
 260 190 260 190 260 162 c 2,3,-1
 255 -180 l 2,4,5
 255 -196 255 -196 235 -196 c 128,-1,6
 215 -196 215 -196 215 -180 c 2,7,-1
 210 162 l 2,8,9
 210 190 210 190 194 227 c 2,10,-1
 100 450 l 1,11,12
 135 455 135 455 206 463 c 1,13,-1
 206 511 l 2,14,15
 206 549 206 549 194 576 c 2,16,-1
 100 798 l 1,17,18
 193 812 193 812 235 812 c 128,-1,19
 277 812 277 812 370 798 c 1,20,-1
 276 576 l 2,21,22
 264 549 264 549 264 511 c 2,23,-1
 264 463 l 1,24,25
 293 461 293 461 370 450 c 1,0,-1
1000 19 m 1,26,-1
 991 12 l 1,27,28
 909 103 909 103 796 244 c 0,29,30
 738 316 738 316 731 325 c 0,31,32
 695 372 695 372 672 412 c 1,33,34
 701 461 701 461 796 580 c 0,35,36
 909 721 909 721 991 812 c 1,37,-1
 1000 805 l 1,38,39
 971 714 971 714 951 646 c 0,40,41
 917 535 917 535 916 531 c 0,42,43
 897 464 897 464 890 412 c 1,44,45
 899 350 899 350 951 178 c 0,46,47
 971 110 971 110 1000 19 c 1,48,-1
 1000 19 l 1,26,-1
701 19 m 1,49,-1
 692 12 l 1,50,51
 610 103 610 103 497 244 c 0,52,53
 439 316 439 316 433 325 c 0,54,55
 396 372 396 372 373 412 c 1,56,57
 402 461 402 461 497 580 c 0,58,59
 610 721 610 721 692 812 c 1,60,-1
 701 805 l 1,61,62
 672 714 672 714 652 646 c 0,63,64
 618 535 618 535 618 531 c 0,65,66
 599 464 599 464 591 412 c 1,67,68
 600 350 600 350 652 178 c 0,69,70
 672 110 672 110 701 19 c 1,71,-1
 701 19 l 1,49,-1
1004 -61 m 1,72,73
 1004 -82 1004 -82 991 -82 c 2,74,-1
 582 -90 l 2,75,76
 551 -91 551 -91 530 -102 c 2,77,-1
 351 -196 l 1,78,79
 340 -103 340 -103 340 -61 c 128,-1,80
 340 -19 340 -19 351 74 c 1,81,-1
 530 -21 l 2,82,83
 551 -32 551 -32 582 -32 c 2,84,-1
 991 -40 l 2,85,86
 1004 -40 1004 -40 1004 -61 c 1,87,-1
 1004 -61 l 1,72,73
1335 627 m 1,88,89
 1318 621 1318 621 1245.5 598.5 c 128,-1,90
 1173 576 1173 576 1134 564 c 0,91,92
 1109 556 1109 556 1081 527 c 0,93,94
 1074 521 1074 521 1049.5 497 c 128,-1,95
 1025 473 1025 473 1011 460 c 1,96,97
 1000 456 1000 456 988.5 468 c 128,-1,98
 977 480 977 480 985 490 c 0,99,100
 992 498 992 498 1022.5 529 c 128,-1,101
 1053 560 1053 560 1069 577 c 0,102,103
 1078 589 1078 589 1084 603 c 128,-1,104
 1090 617 1090 617 1096.5 639 c 128,-1,105
 1103 661 1103 661 1105 668 c 2,106,-1
 1150 812 l 1,107,108
 1250 733 1250 733 1290 682 c 0,109,110
 1310 658 1310 658 1335 627 c 1,88,89
EndSplineSet
EndChar

StartChar: uni306A
Encoding: 12394 12394 131
Width: 1024
GlyphClass: 2
Flags: W
LayerCount: 2
Fore
SplineSet
393 308 m 128,-1,1
 393 298 393 298 387.5 291 c 128,-1,2
 382 284 382 284 376 284 c 0,3,4
 374 284 374 284 322.5 257 c 128,-1,5
 271 230 271 230 221 203 c 2,6,-1
 171 176 l 1,7,8
 160 269 160 269 160 308 c 128,-1,9
 160 347 160 347 171 440 c 1,10,11
 371 332 371 332 376 332 c 0,12,13
 382 332 382 332 387.5 325 c 128,-1,0
 393 318 393 318 393 308 c 128,-1,1
560 798 m 1,14,-1
 465 576 l 2,15,16
 454 549 454 549 454 511 c 2,17,-1
 445 -180 l 2,18,19
 445 -196 445 -196 425 -196 c 128,-1,20
 405 -196 405 -196 405 -180 c 2,21,-1
 396 511 l 2,22,23
 396 549 396 549 384 576 c 2,24,-1
 290 798 l 1,25,26
 383 812 383 812 425 812 c 128,-1,27
 467 812 467 812 560 798 c 1,14,-1
864 -188 m 1,28,-1
 853 -196 l 1,29,30
 792 -122 792 -122 676 62 c 128,-1,31
 560 246 560 246 536 308 c 1,32,33
 560 370 560 370 676 554 c 128,-1,34
 792 738 792 738 853 812 c 1,35,-1
 864 804 l 1,36,37
 835 707 835 707 793 529 c 0,38,39
 748 339 748 339 748 308 c 128,-1,40
 748 277 748 277 793 87 c 0,41,42
 836 -91 836 -91 864 -188 c 1,28,-1
EndSplineSet
EndChar

StartChar: uni306B
Encoding: 12395 12395 132
Width: 1024
GlyphClass: 2
Flags: W
LayerCount: 2
Fore
SplineSet
704 -188 m 1,0,-1
 693 -196 l 1,1,2
 632 -122 632 -122 516 62 c 128,-1,3
 400 246 400 246 376 308 c 1,4,5
 400 370 400 370 516 554 c 128,-1,6
 632 738 632 738 693 812 c 1,7,-1
 704 804 l 1,8,9
 675 707 675 707 633 529 c 0,10,11
 587 339 587 339 587 308 c 128,-1,12
 587 277 587 277 633 87 c 0,13,14
 676 -91 676 -91 704 -188 c 1,0,-1
964 -188 m 1,15,-1
 953 -196 l 1,16,17
 892 -122 892 -122 776 62 c 128,-1,18
 660 246 660 246 636 308 c 1,19,20
 660 370 660 370 776 554 c 128,-1,21
 892 738 892 738 953 812 c 1,22,-1
 964 804 l 1,23,24
 935 707 935 707 893 529 c 0,25,26
 847 339 847 339 847.5 308 c 128,-1,27
 848 277 848 277 893 87 c 0,28,29
 935 -91 935 -91 964 -188 c 1,15,-1
293 308 m 128,-1,31
 293 298 293 298 287.5 291 c 128,-1,32
 282 284 282 284 277 284 c 0,33,34
 274 284 274 284 222.5 257 c 128,-1,35
 171 230 171 230 121 203 c 2,36,-1
 71 176 l 1,37,38
 60 269 60 269 60 308 c 128,-1,39
 60 347 60 347 71 440 c 1,40,41
 271 332 271 332 277 332 c 0,42,43
 282 332 282 332 287.5 325 c 128,-1,30
 293 318 293 318 293 308 c 128,-1,31
460 798 m 1,44,-1
 365 576 l 2,45,46
 355 549 355 549 354 511 c 2,47,-1
 345 -180 l 2,48,49
 345 -196 345 -196 325 -196 c 128,-1,50
 305 -196 305 -196 305 -180 c 2,51,-1
 296 511 l 2,52,53
 296 549 296 549 284 576 c 2,54,-1
 190 798 l 1,55,56
 283 812 283 812 325 812 c 128,-1,57
 367 812 367 812 460 798 c 1,44,-1
EndSplineSet
EndChar

StartChar: uni306C
Encoding: 12396 12396 133
Width: 1024
GlyphClass: 2
Flags: W
LayerCount: 2
Fore
SplineSet
330 798 m 1,0,-1
 236 576 l 2,1,2
 227 556 227 556 225 524 c 1,3,4
 257 522 257 522 328 511 c 1,5,-1
 233 289 l 2,6,7
 221 261 221 261 220 220 c 1,8,9
 247 219 247 219 325 207 c 1,10,-1
 230 -16 l 2,11,12
 217 -48 217 -48 217 -70 c 2,13,-1
 215 -180 l 2,14,15
 215 -196 215 -196 195 -196 c 128,-1,16
 175 -196 175 -196 175 -180 c 2,17,-1
 173 -70 l 2,18,19
 173 -48 173 -48 160 -16 c 2,20,-1
 65 207 l 1,21,22
 100 213 100 213 170 220 c 1,23,24
 169 261 169 261 157 289 c 2,25,-1
 62 511 l 1,26,27
 97 516 97 516 166 524 c 1,28,29
 163 556 163 556 155 576 c 2,30,-1
 60 798 l 1,31,32
 153 812 153 812 195 812 c 128,-1,33
 237 812 237 812 330 798 c 1,34,-1
 330 798 l 1,0,-1
295 54 m 1,35,-1
 290 65 l 1,36,37
 340 126 340 126 463 242 c 128,-1,38
 586 358 586 358 627 382 c 1,39,40
 668 358 668 358 791 242 c 128,-1,41
 914 126 914 126 964 65 c 1,42,-1
 959 54 l 1,43,44
 894 83 894 83 774 125 c 0,45,46
 648 170 648 170 627 170 c 128,-1,47
 606 170 606 170 480 125 c 0,48,49
 360 83 360 83 295 54 c 1,50,-1
 295 54 l 1,35,-1
295 -196 m 1,51,-1
 290 -185 l 1,52,53
 340 -124 340 -124 463 -8 c 128,-1,54
 586 108 586 108 627 132 c 1,55,56
 668 108 668 108 791 -8 c 128,-1,57
 914 -124 914 -124 964 -185 c 1,58,-1
 959 -196 l 1,59,60
 894 -167 894 -167 774 -125 c 0,61,62
 648 -80 648 -80 627 -80 c 128,-1,63
 606 -80 606 -80 480 -125 c 0,64,65
 360 -168 360 -168 295 -196 c 1,66,-1
 295 -196 l 1,51,-1
295 304 m 1,67,-1
 290 315 l 1,68,69
 340 376 340 376 463 492 c 128,-1,70
 586 608 586 608 627 632 c 1,71,72
 668 608 668 608 791 492 c 128,-1,73
 914 376 914 376 964 315 c 1,74,-1
 959 304 l 1,75,76
 894 333 894 333 774 375 c 0,77,78
 648 420 648 420 627 420 c 128,-1,79
 606 420 606 420 480 375 c 0,80,81
 360 332 360 332 295 304 c 1,82,-1
 295 304 l 1,67,-1
EndSplineSet
EndChar

StartChar: uni306D
Encoding: 12397 12397 134
Width: 1024
GlyphClass: 2
Flags: W
LayerCount: 2
Fore
SplineSet
478 798 m 1,0,-1
 383 576 l 2,1,2
 372 549 372 549 372 511 c 2,3,-1
 363 -180 l 2,4,5
 363 -196 363 -196 343 -196 c 128,-1,6
 323 -196 323 -196 323 -180 c 2,7,-1
 314 511 l 2,8,9
 313 549 313 549 302 576 c 2,10,-1
 208 798 l 1,11,12
 301 812 301 812 343 812 c 128,-1,13
 385 812 385 812 478 798 c 1,0,-1
301 319.5 m 128,-1,15
 301 309 301 309 295 302 c 128,-1,16
 289 295 289 295 284 295 c 0,17,18
 282 295 282 295 230.5 268 c 128,-1,19
 179 241 179 241 129 214 c 2,20,-1
 79 188 l 1,21,22
 68 280 68 280 68 319 c 128,-1,23
 68 358 68 358 79 451 c 1,24,25
 279 343 279 343 284 343 c 256,26,27
 289 343 289 343 295 336.5 c 128,-1,14
 301 330 301 330 301 319.5 c 128,-1,15
692 -173 m 1,28,-1
 685 -180 l 1,29,30
 609 -89 609 -89 506 52 c 0,31,32
 453 124 453 124 447 133 c 0,33,34
 413 180 413 180 392 220 c 1,35,36
 419 269 419 269 506 388 c 0,37,38
 609 529 609 529 685 620 c 1,39,-1
 692 613 l 1,40,41
 666 522 666 522 648 454 c 0,42,43
 617 343 617 343 616 339 c 0,44,45
 599 272 599 272 592 220 c 1,46,47
 600 158 600 158 648 -14 c 0,48,49
 666 -82 666 -82 692 -173 c 1,28,-1
954 -173 m 1,50,-1
 946 -180 l 1,51,52
 871 -89 871 -89 767 52 c 0,53,54
 715 124 715 124 708 133 c 0,55,56
 675 180 675 180 654 220 c 1,57,58
 680 269 680 269 767 388 c 0,59,60
 871 529 871 529 946 620 c 1,61,-1
 954 613 l 1,62,63
 928 522 928 522 909 454 c 0,64,65
 878 343 878 343 877 339 c 0,66,67
 860 272 860 272 853 220 c 1,68,69
 862 158 862 158 909 -14 c 0,70,71
 928 -82 928 -82 954 -173 c 1,50,-1
956 677 m 128,-1,73
 956 656 956 656 943 656 c 2,74,-1
 723 648 l 2,75,76
 692 648 692 648 671 636 c 2,77,-1
 492 542 l 1,78,79
 481 635 481 635 481 677 c 128,-1,80
 481 719 481 719 492 812 c 1,81,-1
 671 717 l 2,82,83
 692 707 692 707 723 706 c 2,84,-1
 943 698 l 2,85,72
 956 698 956 698 956 677 c 128,-1,73
EndSplineSet
EndChar

StartChar: uni306E
Encoding: 12398 12398 135
Width: 1024
GlyphClass: 2
Flags: W
LayerCount: 2
Fore
SplineSet
478 800 m 1,0,-1
 383 600 l 2,1,2
 372 577 372 577 372 542 c 2,3,-1
 363 -182 l 2,4,5
 363 -196 363 -196 343 -196 c 128,-1,6
 323 -196 323 -196 323 -182 c 2,7,-1
 314 542 l 2,8,9
 313 577 313 577 302 600 c 2,10,-1
 208 800 l 1,11,12
 301 812 301 812 343 812 c 128,-1,13
 385 812 385 812 478 800 c 1,0,-1
301 319.5 m 128,-1,15
 301 309 301 309 295 302 c 128,-1,16
 289 295 289 295 284 295 c 0,17,18
 282 295 282 295 230.5 268 c 128,-1,19
 179 241 179 241 129 214 c 2,20,-1
 79 188 l 1,21,22
 68 280 68 280 68 319 c 128,-1,23
 68 358 68 358 79 451 c 1,24,25
 279 343 279 343 284 343 c 256,26,27
 289 343 289 343 295 336.5 c 128,-1,14
 301 330 301 330 301 319.5 c 128,-1,15
954 19 m 1,28,-1
 946 12 l 1,29,30
 871 103 871 103 767 244 c 0,31,32
 715 316 715 316 708 325 c 0,33,34
 675 372 675 372 654 412 c 1,35,36
 680 461 680 461 767 580 c 0,37,38
 871 721 871 721 946 812 c 1,39,-1
 954 805 l 1,40,41
 928 714 928 714 909 646 c 0,42,43
 878 535 878 535 877 531 c 0,44,45
 860 464 860 464 853 412 c 1,46,47
 862 350 862 350 909 178 c 0,48,49
 928 110 928 110 954 19 c 1,28,-1
689 19 m 1,50,-1
 681 12 l 1,51,52
 606 103 606 103 502 244 c 0,53,54
 450 316 450 316 443 325 c 0,55,56
 410 372 410 372 389 412 c 1,57,58
 415 461 415 461 502 580 c 0,59,60
 606 721 606 721 681 812 c 1,61,-1
 689 805 l 1,62,63
 663 714 663 714 644 646 c 0,64,65
 613 535 613 535 612 531 c 0,66,67
 595 464 595 464 588 412 c 1,68,69
 597 350 597 350 644 178 c 0,70,71
 663 110 663 110 689 19 c 1,50,-1
956 -61 m 128,-1,73
 956 -82 956 -82 943 -82 c 2,74,-1
 673 -90 l 2,75,76
 642 -91 642 -91 621 -102 c 2,77,-1
 442 -196 l 1,78,79
 431 -103 431 -103 431 -61 c 128,-1,80
 431 -19 431 -19 442 74 c 1,81,-1
 621 -21 l 2,82,83
 642 -32 642 -32 673 -32 c 2,84,-1
 943 -40 l 2,85,72
 956 -40 956 -40 956 -61 c 128,-1,73
EndSplineSet
EndChar

StartChar: uni306F
Encoding: 12399 12399 136
Width: 1024
GlyphClass: 2
Flags: W
LayerCount: 2
Fore
SplineSet
946 -188 m 1,0,-1
 936 -196 l 1,1,2
 874 -122 874 -122 758 62 c 128,-1,3
 642 246 642 246 618 308 c 1,4,5
 642 370 642 370 758 554 c 128,-1,6
 874 738 874 738 936 812 c 1,7,-1
 946 804 l 1,8,9
 918 707 918 707 876 529 c 0,10,11
 830 339 830 339 830 308 c 128,-1,12
 830 277 830 277 876 87 c 0,13,14
 918 -91 918 -91 946 -188 c 1,15,-1
 946 -188 l 1,0,-1
347 798 m 1,16,-1
 253 576 l 2,17,18
 242 549 242 549 241 511 c 2,19,-1
 232 -180 l 2,20,21
 232 -196 232 -196 212 -196 c 128,-1,22
 192 -196 192 -196 192 -180 c 2,23,-1
 183 511 l 2,24,25
 183 549 183 549 172 576 c 2,26,-1
 78 798 l 1,27,28
 170 812 170 812 212 812 c 128,-1,29
 254 812 254 812 348 798 c 1,30,-1
 347 798 l 1,16,-1
625 798 m 1,31,-1
 531 576 l 2,32,33
 520 549 520 549 519 511 c 2,34,-1
 510 -180 l 2,35,36
 510 -196 510 -196 490 -196 c 128,-1,37
 470 -196 470 -196 470 -180 c 2,38,-1
 462 511 l 2,39,40
 461 549 461 549 450 576 c 2,41,-1
 356 798 l 1,42,43
 448 812 448 812 490 812 c 128,-1,44
 532 812 532 812 626 798 c 1,45,-1
 625 798 l 1,31,-1
EndSplineSet
EndChar

StartChar: uni3070
Encoding: 12400 12400 137
Width: 1445
GlyphClass: 2
Flags: W
LayerCount: 2
Fore
SplineSet
370 450 m 1,0,-1
 276 227 l 2,1,2
 260 190 260 190 260 162 c 2,3,-1
 255 -180 l 2,4,5
 255 -196 255 -196 235 -196 c 128,-1,6
 215 -196 215 -196 215 -180 c 2,7,-1
 210 162 l 2,8,9
 210 190 210 190 194 227 c 2,10,-1
 100 450 l 1,11,12
 135 455 135 455 206 463 c 1,13,-1
 206 511 l 2,14,15
 206 549 206 549 194 576 c 2,16,-1
 100 798 l 1,17,18
 193 812 193 812 235 812 c 128,-1,19
 277 812 277 812 370 798 c 1,20,-1
 276 576 l 2,21,22
 264 549 264 549 264 511 c 2,23,-1
 264 463 l 1,24,25
 293 461 293 461 370 450 c 1,26,-1
 370 450 l 1,0,-1
1004 -183 m 1,27,-1
 993 -191 l 1,28,29
 932 -118 932 -118 816 64.5 c 128,-1,30
 700 247 700 247 676 308 c 1,31,32
 700 369 700 369 816 551.5 c 128,-1,33
 932 734 932 734 993 807 c 1,34,-1
 1004 799 l 1,35,36
 975 703 975 703 933 526 c 0,37,38
 888 338 888 338 888 308 c 128,-1,39
 888 278 888 278 933 90 c 0,40,41
 976 -87 976 -87 1004 -183 c 1,42,-1
 1004 -183 l 1,27,-1
687 450 m 1,43,-1
 592 227 l 2,44,45
 577 190 577 190 576 162 c 2,46,-1
 572 -180 l 2,47,48
 572 -196 572 -196 552 -196 c 128,-1,49
 532 -196 532 -196 532 -180 c 2,50,-1
 528 162 l 2,51,52
 527 190 527 190 512 227 c 2,53,-1
 417 450 l 1,54,55
 452 455 452 455 523 463 c 1,56,-1
 523 511 l 2,57,58
 522 549 522 549 512 576 c 2,59,-1
 417 798 l 1,60,61
 510 812 510 812 552 812 c 128,-1,62
 594 812 594 812 687 798 c 1,63,-1
 592 576 l 2,64,65
 582 549 582 549 581 511 c 2,66,-1
 580 463 l 1,67,68
 610 461 610 461 687 450 c 1,69,-1
 687 450 l 1,43,-1
1345 627 m 1,70,71
 1328 621 1328 621 1255.5 598.5 c 128,-1,72
 1183 576 1183 576 1144 564 c 0,73,74
 1119 556 1119 556 1090 527 c 0,75,76
 1084 521 1084 521 1059.5 497 c 128,-1,77
 1035 473 1035 473 1021 460 c 1,78,79
 1010 456 1010 456 998.5 468 c 128,-1,80
 987 480 987 480 995 490 c 0,81,82
 1002 498 1002 498 1032.5 529 c 128,-1,83
 1063 560 1063 560 1079 577 c 0,84,85
 1088 589 1088 589 1094 603 c 128,-1,86
 1100 617 1100 617 1106.5 639 c 128,-1,87
 1113 661 1113 661 1115 668 c 2,88,-1
 1160 812 l 1,89,90
 1260 733 1260 733 1300 682 c 0,91,92
 1320 658 1320 658 1345 627 c 1,70,71
EndSplineSet
EndChar

StartChar: uni3071
Encoding: 12401 12401 138
Width: 1104
GlyphClass: 2
Flags: W
LayerCount: 2
Fore
SplineSet
370 450 m 1,0,-1
 276 227 l 2,1,2
 260 190 260 190 260 162 c 2,3,-1
 255 -180 l 2,4,5
 255 -196 255 -196 235 -196 c 128,-1,6
 215 -196 215 -196 215 -180 c 2,7,-1
 210 162 l 2,8,9
 210 190 210 190 194 227 c 2,10,-1
 100 450 l 1,11,12
 135 455 135 455 206 463 c 1,13,-1
 206 511 l 2,14,15
 206 549 206 549 194 576 c 2,16,-1
 100 798 l 1,17,18
 193 812 193 812 235 812 c 128,-1,19
 277 812 277 812 370 798 c 1,20,-1
 276 576 l 2,21,22
 264 549 264 549 264 511 c 2,23,-1
 264 463 l 1,24,25
 293 461 293 461 370 450 c 1,26,-1
 370 450 l 1,0,-1
1004 -183 m 1,27,-1
 993 -191 l 1,28,29
 932 -118 932 -118 816 64.5 c 128,-1,30
 700 247 700 247 676 308 c 1,31,32
 700 369 700 369 816 551.5 c 128,-1,33
 932 734 932 734 993 807 c 1,34,-1
 1004 799 l 1,35,36
 975 703 975 703 933 526 c 0,37,38
 888 338 888 338 888 308 c 128,-1,39
 888 278 888 278 933 90 c 0,40,41
 976 -87 976 -87 1004 -183 c 1,42,-1
 1004 -183 l 1,27,-1
687 450 m 1,43,-1
 592 227 l 2,44,45
 577 190 577 190 576 162 c 2,46,-1
 572 -180 l 2,47,48
 572 -196 572 -196 552 -196 c 128,-1,49
 532 -196 532 -196 532 -180 c 2,50,-1
 528 162 l 2,51,52
 527 190 527 190 512 227 c 2,53,-1
 417 450 l 1,54,55
 452 455 452 455 523 463 c 1,56,-1
 523 511 l 2,57,58
 522 549 522 549 512 576 c 2,59,-1
 417 798 l 1,60,61
 510 812 510 812 552 812 c 128,-1,62
 594 812 594 812 687 798 c 1,63,-1
 592 576 l 2,64,65
 582 549 582 549 581 511 c 2,66,-1
 580 463 l 1,67,68
 610 461 610 461 687 450 c 1,69,-1
 687 450 l 1,43,-1
EndSplineSet
EndChar

StartChar: uni3072
Encoding: 12402 12402 139
Width: 1024
GlyphClass: 2
Flags: W
LayerCount: 2
Fore
SplineSet
964 -188 m 1,0,-1
 954 -196 l 1,1,2
 892 -122 892 -122 776 62 c 128,-1,3
 660 246 660 246 636 308 c 1,4,5
 660 370 660 370 776 554 c 128,-1,6
 892 738 892 738 954 812 c 1,7,-1
 964 804 l 1,8,9
 935 707 935 707 893 529 c 0,10,11
 847 339 847 339 847.5 308 c 128,-1,12
 848 277 848 277 893 87 c 0,13,14
 936 -91 936 -91 964 -188 c 1,0,-1
734 -188 m 1,15,-1
 724 -196 l 1,16,17
 662 -122 662 -122 546 62 c 128,-1,18
 430 246 430 246 406 308 c 1,19,20
 430 370 430 370 546 554 c 128,-1,21
 662 738 662 738 724 812 c 1,22,-1
 734 804 l 1,23,24
 706 707 706 707 663 529 c 0,25,26
 618 339 618 339 618 308 c 128,-1,27
 618 277 618 277 663 87 c 0,28,29
 706 -91 706 -91 734 -188 c 1,15,-1
460 169 m 128,-1,31
 460 149 460 149 448 149 c 2,32,-1
 302 140 l 2,33,34
 271 140 271 140 250 128 c 2,35,-1
 71 34 l 1,36,37
 60 127 60 127 60 169 c 128,-1,38
 60 211 60 211 71 304 c 1,39,-1
 250 210 l 2,40,41
 271 199 271 199 302 198 c 2,42,-1
 447 189 l 2,43,30
 460 189 460 189 460 169 c 128,-1,31
460 447 m 128,-1,45
 460 427 460 427 448 427 c 2,46,-1
 302 418 l 2,47,48
 271 418 271 418 250 407 c 2,49,-1
 71 312 l 1,50,51
 60 405 60 405 60 447 c 128,-1,52
 60 489 60 489 71 582 c 1,53,-1
 250 488 l 2,54,55
 271 477 271 477 302 476 c 2,56,-1
 447 467 l 2,57,44
 460 467 460 467 460 447 c 128,-1,45
EndSplineSet
EndChar

StartChar: uni3073
Encoding: 12403 12403 140
Width: 1352
GlyphClass: 2
Flags: W
LayerCount: 2
Fore
SplineSet
107 -196 m 1,0,-1
 100 -185 l 1,1,2
 159 -124 159 -124 305.5 -8 c 128,-1,3
 452 108 452 108 501 132 c 1,4,5
 550 108 550 108 696.5 -8 c 128,-1,6
 843 -124 843 -124 902 -185 c 1,7,-1
 895 -196 l 1,8,9
 819 -167 819 -167 676 -125 c 0,10,11
 525 -79 525 -79 501 -79.5 c 128,-1,12
 477 -80 477 -80 326 -125 c 0,13,14
 184 -168 184 -168 107 -196 c 1,0,-1
107 90 m 1,15,-1
 100 100 l 1,16,17
 159 162 159 162 305.5 278 c 128,-1,18
 452 394 452 394 501 418 c 1,19,20
 550 394 550 394 696.5 278 c 128,-1,21
 843 162 843 162 902 100 c 1,22,-1
 895 90 l 1,23,24
 819 118 819 118 676 161 c 0,25,26
 525 206 525 206 501 206 c 128,-1,27
 477 206 477 206 326 161 c 0,28,29
 184 118 184 118 107 90 c 1,15,-1
358 412 m 128,-1,31
 338 412 338 412 338 424 c 2,32,-1
 329 570 l 2,33,34
 328 601 328 601 318 622 c 2,35,-1
 223 801 l 1,36,37
 316 812 316 812 358 812 c 128,-1,38
 400 812 400 812 493 801 c 1,39,-1
 399 622 l 2,40,41
 388 601 388 601 387 570 c 2,42,-1
 378 424 l 2,43,30
 378 412 378 412 358 412 c 128,-1,31
636 412 m 128,-1,45
 616 412 616 412 616 424 c 2,46,-1
 607 570 l 2,47,48
 607 601 607 601 596 622 c 2,49,-1
 501 801 l 1,50,51
 594 812 594 812 636 812 c 128,-1,52
 678 812 678 812 771 801 c 1,53,-1
 676 622 l 2,54,55
 666 601 666 601 665 570 c 2,56,-1
 656 424 l 2,57,44
 656 412 656 412 636 412 c 128,-1,45
1253 627 m 1,58,59
 1235 621 1235 621 1162.5 598.5 c 128,-1,60
 1090 576 1090 576 1051 564 c 0,61,62
 1027 556 1027 556 998 527 c 0,63,64
 992 521 992 521 967 497 c 128,-1,65
 942 473 942 473 928 460 c 1,66,67
 917 456 917 456 906 468 c 128,-1,68
 895 480 895 480 902 490 c 0,69,70
 910 498 910 498 940 529 c 128,-1,71
 970 560 970 560 986 577 c 0,72,73
 996 589 996 589 1002 603 c 128,-1,74
 1008 617 1008 617 1014 639 c 128,-1,75
 1020 661 1020 661 1023 668 c 2,76,-1
 1067 812 l 1,77,78
 1167 733 1167 733 1208 682 c 0,79,80
 1228 658 1228 658 1253 627 c 1,58,59
EndSplineSet
EndChar

StartChar: uni3074
Encoding: 12404 12404 141
Width: 1002
GlyphClass: 2
Flags: W
LayerCount: 2
Fore
SplineSet
107 -196 m 1,0,-1
 100 -185 l 1,1,2
 159 -124 159 -124 305.5 -8 c 128,-1,3
 452 108 452 108 501 132 c 1,4,5
 550 108 550 108 696.5 -8 c 128,-1,6
 843 -124 843 -124 902 -185 c 1,7,-1
 895 -196 l 1,8,9
 819 -167 819 -167 676 -125 c 0,10,11
 526 -79 526 -79 501 -79.5 c 128,-1,12
 476 -80 476 -80 326 -125 c 0,13,14
 184 -168 184 -168 107 -196 c 1,0,-1
107 90 m 1,15,-1
 100 100 l 1,16,17
 159 162 159 162 305.5 278 c 128,-1,18
 452 394 452 394 501 418 c 1,19,20
 550 394 550 394 696.5 278 c 128,-1,21
 843 162 843 162 902 100 c 1,22,-1
 895 90 l 1,23,24
 819 118 819 118 676 161 c 0,25,26
 526 206 526 206 501 206 c 128,-1,27
 476 206 476 206 326 161 c 0,28,29
 184 118 184 118 107 90 c 1,15,-1
358 412 m 128,-1,31
 338 412 338 412 338 424 c 2,32,-1
 329 570 l 2,33,34
 328 601 328 601 318 622 c 2,35,-1
 223 801 l 1,36,37
 316 812 316 812 358 812 c 128,-1,38
 400 812 400 812 493 801 c 1,39,-1
 399 622 l 2,40,41
 388 601 388 601 387 570 c 2,42,-1
 378 424 l 2,43,30
 378 412 378 412 358 412 c 128,-1,31
636 412 m 128,-1,45
 616 412 616 412 616 424 c 2,46,-1
 607 570 l 2,47,48
 607 601 607 601 596 622 c 2,49,-1
 501 801 l 1,50,51
 594 812 594 812 636 812 c 128,-1,52
 678 812 678 812 771 801 c 1,53,-1
 676 622 l 2,54,55
 666 601 666 601 665 570 c 2,56,-1
 656 424 l 2,57,44
 656 412 656 412 636 412 c 128,-1,45
EndSplineSet
EndChar

StartChar: uni3075
Encoding: 12405 12405 142
Width: 1024
GlyphClass: 2
Flags: W
LayerCount: 2
Fore
SplineSet
118 -196 m 1,0,-1
 111 -186 l 1,1,2
 170 -124 170 -124 316.5 -8 c 128,-1,3
 463 108 463 108 512 132 c 1,4,5
 561 108 561 108 707.5 -8 c 128,-1,6
 854 -124 854 -124 913 -186 c 1,7,-1
 906 -196 l 1,8,9
 830 -168 830 -168 688 -125 c 0,10,11
 536 -80 536 -80 512 -80 c 128,-1,12
 488 -80 488 -80 336 -125 c 0,13,14
 194 -168 194 -168 118 -196 c 1,0,-1
377 134 m 128,-1,16
 357 134 357 134 357 147 c 2,17,-1
 354 572 l 2,18,19
 353 598 353 598 338 626 c 2,20,-1
 246 802 l 1,21,22
 334 812 334 812 377 812 c 128,-1,23
 420 812 420 812 508 802 c 1,24,-1
 416 626 l 2,25,26
 401 598 401 598 400 572 c 2,27,-1
 397 147 l 2,28,15
 397 134 397 134 377 134 c 128,-1,16
647 134 m 128,-1,30
 627 134 627 134 627 147 c 2,31,-1
 624 572 l 2,32,33
 623 598 623 598 608 626 c 2,34,-1
 516 802 l 1,35,36
 604 812 604 812 647 812 c 128,-1,37
 690 812 690 812 778 802 c 1,38,-1
 686 626 l 2,39,40
 671 598 671 598 670 572 c 2,41,-1
 667 147 l 2,42,29
 667 134 667 134 647 134 c 128,-1,30
EndSplineSet
EndChar

StartChar: uni3076
Encoding: 12406 12406 143
Width: 1498
GlyphClass: 2
Flags: W
LayerCount: 2
Fore
SplineSet
335 404 m 1,0,-1
 330 415 l 1,1,2
 380 476 380 476 503 592 c 128,-1,3
 626 708 626 708 667 732 c 1,4,5
 708 708 708 708 831 592 c 128,-1,6
 954 476 954 476 1004 415 c 1,7,-1
 999 404 l 1,8,9
 934 433 934 433 814 475 c 0,10,11
 688 520 688 520 667 520 c 128,-1,12
 646 520 646 520 520 475 c 0,13,14
 400 433 400 433 335 404 c 1,0,-1
335 -196 m 1,15,-1
 330 -185 l 1,16,17
 380 -124 380 -124 503 -8 c 128,-1,18
 626 108 626 108 667 132 c 1,19,20
 708 108 708 108 831 -8 c 128,-1,21
 954 -124 954 -124 1004 -185 c 1,22,-1
 999 -196 l 1,23,24
 934 -167 934 -167 814 -125 c 0,25,26
 688 -80 688 -80 667 -80 c 128,-1,27
 646 -80 646 -80 520 -125 c 0,28,29
 400 -168 400 -168 335 -196 c 1,15,-1
255 -180 m 0,30,31
 255 -196 255 -196 235 -196 c 128,-1,32
 215 -196 215 -196 215 -180 c 0,33,34
 212 41 212 41 206 463 c 1,35,-1
 206 511 l 2,36,37
 205 549 205 549 194 576 c 2,38,-1
 100 798 l 1,39,40
 193 812 193 812 235 812 c 128,-1,41
 277 812 277 812 370 798 c 1,42,-1
 276 576 l 2,43,44
 265 549 265 549 264 511 c 2,45,-1
 264 463 l 2,46,47
 261 272 261 272 255 -180 c 0,30,31
335 104 m 1,48,-1
 330 115 l 1,49,50
 380 176 380 176 503 292 c 128,-1,51
 626 408 626 408 667 432 c 1,52,53
 708 408 708 408 831 292 c 128,-1,54
 954 176 954 176 1004 115 c 1,55,-1
 999 104 l 1,56,57
 934 133 934 133 814 175 c 0,58,59
 688 220 688 220 667 220 c 128,-1,60
 646 220 646 220 520 175 c 0,61,62
 400 132 400 132 335 104 c 1,48,-1
1399 627 m 1,63,64
 1382 621 1382 621 1309 598.5 c 128,-1,65
 1236 576 1236 576 1197 564 c 0,66,67
 1173 556 1173 556 1144 527 c 0,68,69
 1138 521 1138 521 1113 497 c 128,-1,70
 1088 473 1088 473 1075 460 c 1,71,72
 1064 456 1064 456 1052.5 468 c 128,-1,73
 1041 480 1041 480 1049 490 c 0,74,75
 1056 498 1056 498 1086.5 529 c 128,-1,76
 1117 560 1117 560 1133 577 c 0,77,78
 1142 589 1142 589 1148 603 c 128,-1,79
 1154 617 1154 617 1160.5 639 c 128,-1,80
 1167 661 1167 661 1169 668 c 2,81,-1
 1214 812 l 1,82,83
 1314 733 1314 733 1354 682 c 0,84,85
 1374 658 1374 658 1399 627 c 1,63,64
EndSplineSet
EndChar

StartChar: uni3077
Encoding: 12407 12407 144
Width: 1104
GlyphClass: 2
Flags: W
LayerCount: 2
Fore
SplineSet
335 404 m 1,0,-1
 330 415 l 1,1,2
 380 476 380 476 503 592 c 128,-1,3
 626 708 626 708 667 732 c 1,4,5
 708 708 708 708 831 592 c 128,-1,6
 954 476 954 476 1004 415 c 1,7,-1
 999 404 l 1,8,9
 934 433 934 433 814 475 c 0,10,11
 688 520 688 520 667 520 c 128,-1,12
 646 520 646 520 520 475 c 0,13,14
 400 433 400 433 335 404 c 1,0,-1
335 -196 m 1,15,-1
 330 -185 l 1,16,17
 380 -124 380 -124 503 -8 c 128,-1,18
 626 108 626 108 667 132 c 1,19,20
 708 108 708 108 831 -8 c 128,-1,21
 954 -124 954 -124 1004 -185 c 1,22,-1
 999 -196 l 1,23,24
 934 -167 934 -167 814 -125 c 0,25,26
 688 -80 688 -80 667 -80 c 128,-1,27
 646 -80 646 -80 520 -125 c 0,28,29
 400 -168 400 -168 335 -196 c 1,15,-1
255 -180 m 0,30,31
 255 -196 255 -196 235 -196 c 128,-1,32
 215 -196 215 -196 215 -180 c 0,33,34
 212 41 212 41 206 463 c 1,35,-1
 206 511 l 2,36,37
 205 549 205 549 194 576 c 2,38,-1
 100 798 l 1,39,40
 193 812 193 812 235 812 c 128,-1,41
 277 812 277 812 370 798 c 1,42,-1
 276 576 l 2,43,44
 265 549 265 549 264 511 c 2,45,-1
 264 463 l 2,46,47
 261 272 261 272 255 -180 c 0,30,31
335 104 m 1,48,-1
 330 115 l 1,49,50
 380 176 380 176 503 292 c 128,-1,51
 626 408 626 408 667 432 c 1,52,53
 708 408 708 408 831 292 c 128,-1,54
 954 176 954 176 1004 115 c 1,55,-1
 999 104 l 1,56,57
 934 133 934 133 814 175 c 0,58,59
 688 220 688 220 667 220 c 128,-1,60
 646 220 646 220 520 175 c 0,61,62
 400 132 400 132 335 104 c 1,48,-1
EndSplineSet
EndChar

StartChar: uni3078
Encoding: 12408 12408 145
Width: 1024
GlyphClass: 2
Flags: W
LayerCount: 2
Fore
SplineSet
960 -188 m 1,0,-1
 950 -196 l 1,1,2
 888 -122 888 -122 772 62 c 128,-1,3
 656 246 656 246 632 308 c 1,4,5
 656 370 656 370 772 554 c 128,-1,6
 888 738 888 738 950 812 c 1,7,-1
 960 804 l 1,8,9
 932 707 932 707 889 529 c 0,10,11
 844 339 844 339 844 308 c 128,-1,12
 844 277 844 277 889 87 c 0,13,14
 932 -91 932 -91 960 -188 c 1,0,-1
355 443 m 1,15,-1
 534 348 l 2,16,17
 563 333 563 333 586 332 c 2,18,-1
 620 328 l 2,19,20
 632 328 632 328 632 308 c 128,-1,21
 632 288 632 288 620 288 c 2,22,-1
 586 284 l 2,23,24
 563 283 563 283 534 268 c 2,25,-1
 355 173 l 1,26,27
 350 208 350 208 344 280 c 1,28,-1
 306 279 l 2,29,30
 275 278 275 278 254 268 c 2,31,-1
 75 173 l 1,32,33
 64 266 64 266 64 308 c 128,-1,34
 64 350 64 350 75 443 c 1,35,-1
 254 348 l 2,36,37
 275 337 275 337 306 337 c 2,38,-1
 344 336 l 1,39,40
 346 366 346 366 355 443 c 1,15,-1
EndSplineSet
EndChar

StartChar: uni3079
Encoding: 12409 12409 146
Width: 1369
GlyphClass: 2
Flags: W
LayerCount: 2
Fore
SplineSet
516 30 m 128,-1,1
 516 10 516 10 504 10 c 2,2,-1
 342 1 l 2,3,4
 311 0 311 0 290 -10 c 2,5,-1
 111 -105 l 1,6,7
 100 -12 100 -12 100 30 c 128,-1,8
 100 72 100 72 111 165 c 1,9,-1
 290 71 l 2,10,11
 311 60 311 60 342 59 c 2,12,-1
 504 50 l 2,13,0
 516 50 516 50 516 30 c 128,-1,1
516 308 m 128,-1,15
 516 288 516 288 504 288 c 2,16,-1
 342 279 l 2,17,18
 311 278 311 278 290 268 c 2,19,-1
 111 173 l 1,20,21
 100 266 100 266 100 308 c 128,-1,22
 100 350 100 350 111 443 c 1,23,-1
 290 349 l 2,24,25
 311 338 311 338 342 337 c 2,26,-1
 504 328 l 2,27,14
 516 328 516 328 516 308 c 128,-1,15
516 586 m 128,-1,29
 516 566 516 566 504 566 c 2,30,-1
 342 557 l 2,31,32
 311 556 311 556 290 546 c 2,33,-1
 111 451 l 1,34,35
 100 544 100 544 100 586 c 128,-1,36
 100 628 100 628 111 721 c 1,37,-1
 290 626 l 2,38,39
 311 616 311 616 342 615 c 2,40,-1
 504 606 l 2,41,28
 516 606 516 606 516 586 c 128,-1,29
888 -186 m 1,42,-1
 877 -194 l 1,43,44
 816 -120 816 -120 700 64 c 128,-1,45
 584 248 584 248 560 310 c 1,46,47
 584 371 584 371 700 555 c 128,-1,48
 816 739 816 739 877 814 c 1,49,-1
 888 805 l 1,50,51
 859 709 859 709 817 530 c 0,52,53
 771 340 771 340 771.5 309.5 c 128,-1,54
 772 279 772 279 817 89 c 0,55,56
 860 -90 860 -90 888 -186 c 1,42,-1
1269 627 m 1,57,58
 1252 621 1252 621 1179.5 598.5 c 128,-1,59
 1107 576 1107 576 1068 564 c 0,60,61
 1043 556 1043 556 1014 527 c 0,62,63
 1008 521 1008 521 983.5 497 c 128,-1,64
 959 473 959 473 945 460 c 1,65,66
 934 456 934 456 922.5 468 c 128,-1,67
 911 480 911 480 919 490 c 0,68,69
 926 498 926 498 956.5 529 c 128,-1,70
 987 560 987 560 1003 577 c 0,71,72
 1012 589 1012 589 1018 603 c 128,-1,73
 1024 617 1024 617 1030.5 639 c 128,-1,74
 1037 661 1037 661 1039 668 c 2,75,-1
 1084 812 l 1,76,77
 1184 733 1184 733 1224 682 c 0,78,79
 1244 658 1244 658 1269 627 c 1,57,58
EndSplineSet
EndChar

StartChar: uni307A
Encoding: 12410 12410 147
Width: 988
GlyphClass: 2
Flags: W
LayerCount: 2
Fore
SplineSet
516 30 m 128,-1,1
 516 10 516 10 504 10 c 2,2,-1
 342 1 l 2,3,4
 311 0 311 0 290 -10 c 2,5,-1
 111 -105 l 1,6,7
 100 -12 100 -12 100 30 c 128,-1,8
 100 72 100 72 111 165 c 1,9,-1
 290 71 l 2,10,11
 311 60 311 60 342 59 c 2,12,-1
 504 50 l 2,13,0
 516 50 516 50 516 30 c 128,-1,1
516 308 m 128,-1,15
 516 288 516 288 504 288 c 2,16,-1
 342 279 l 2,17,18
 311 278 311 278 290 268 c 2,19,-1
 111 173 l 1,20,21
 100 266 100 266 100 308 c 128,-1,22
 100 350 100 350 111 443 c 1,23,-1
 290 349 l 2,24,25
 311 338 311 338 342 337 c 2,26,-1
 504 328 l 2,27,14
 516 328 516 328 516 308 c 128,-1,15
516 586 m 128,-1,29
 516 566 516 566 504 566 c 2,30,-1
 342 557 l 2,31,32
 311 556 311 556 290 546 c 2,33,-1
 111 451 l 1,34,35
 100 544 100 544 100 586 c 128,-1,36
 100 628 100 628 111 721 c 1,37,-1
 290 626 l 2,38,39
 311 616 311 616 342 615 c 2,40,-1
 504 606 l 2,41,28
 516 606 516 606 516 586 c 128,-1,29
888 -186 m 1,42,-1
 877 -194 l 1,43,44
 816 -120 816 -120 700 64 c 128,-1,45
 584 248 584 248 560 310 c 1,46,47
 584 371 584 371 700 555 c 128,-1,48
 816 739 816 739 877 814 c 1,49,-1
 888 805 l 1,50,51
 859 709 859 709 817 530 c 0,52,53
 771 340 771 340 771.5 309.5 c 128,-1,54
 772 279 772 279 817 89 c 0,55,56
 860 -90 860 -90 888 -186 c 1,42,-1
EndSplineSet
EndChar

StartChar: uni307B
Encoding: 12411 12411 148
Width: 1024
GlyphClass: 2
Flags: W
LayerCount: 2
Fore
SplineSet
67 -196 m 1,0,-1
 60 -186 l 1,1,2
 127 -124 127 -124 292 -8 c 128,-1,3
 457 108 457 108 512 132 c 1,4,5
 567 108 567 108 732 -8 c 128,-1,6
 897 -124 897 -124 964 -186 c 1,7,-1
 957 -196 l 1,8,9
 870 -168 870 -168 710 -125 c 0,10,11
 540 -79 540 -79 512 -79.5 c 128,-1,12
 484 -80 484 -80 314 -125 c 0,13,14
 154 -168 154 -168 67 -196 c 1,0,-1
486 521 m 1,15,-1
 392 342 l 2,16,17
 376 313 376 313 376 290 c 2,18,-1
 371 136 l 2,19,20
 371 124 371 124 351 124 c 128,-1,21
 331 124 331 124 331 136 c 2,22,-1
 326 290 l 2,23,24
 326 312 326 312 310 342 c 2,25,-1
 216 521 l 1,26,27
 251 526 251 526 322 532 c 1,28,-1
 322 570 l 2,29,30
 321 601 321 601 310 622 c 2,31,-1
 216 801 l 1,32,33
 309 812 309 812 351 812 c 128,-1,34
 393 812 393 812 486 801 c 1,35,-1
 392 622 l 2,36,37
 380 601 380 601 380 570 c 2,38,-1
 380 532 l 1,39,40
 409 530 409 530 486 521 c 1,15,-1
816 521 m 1,41,-1
 722 342 l 2,42,43
 706 313 706 313 706 290 c 2,44,-1
 701 136 l 2,45,46
 701 124 701 124 681 124 c 128,-1,47
 661 124 661 124 661 136 c 2,48,-1
 656 290 l 2,49,50
 656 312 656 312 640 342 c 2,51,-1
 546 521 l 1,52,53
 581 526 581 526 652 532 c 1,54,-1
 652 570 l 2,55,56
 651 601 651 601 640 622 c 2,57,-1
 546 801 l 1,58,59
 639 812 639 812 681 812 c 128,-1,60
 723 812 723 812 816 801 c 1,61,-1
 722 622 l 2,62,63
 710 601 710 601 710 570 c 2,64,-1
 710 532 l 1,65,66
 739 530 739 530 816 521 c 1,41,-1
EndSplineSet
EndChar

StartChar: uni307C
Encoding: 12412 12412 149
Width: 1464
GlyphClass: 2
Flags: W
LayerCount: 2
Fore
SplineSet
1004 -188 m 1,0,-1
 994 -196 l 1,1,2
 932 -122 932 -122 816 62 c 128,-1,3
 700 246 700 246 676 308 c 1,4,5
 700 370 700 370 816 554 c 128,-1,6
 932 738 932 738 994 812 c 1,7,-1
 1004 804 l 1,8,9
 976 707 976 707 933 529 c 0,10,11
 888 339 888 339 888 308 c 128,-1,12
 888 277 888 277 933 87 c 0,13,14
 976 -91 976 -91 1004 -188 c 1,0,-1
784 -188 m 1,15,-1
 774 -196 l 1,16,17
 712 -122 712 -122 596 62 c 128,-1,18
 480 246 480 246 456 308 c 1,19,20
 480 370 480 370 596 554 c 128,-1,21
 712 738 712 738 774 812 c 1,22,-1
 784 804 l 1,23,24
 756 707 756 707 713 529 c 0,25,26
 668 339 668 339 668 308 c 128,-1,27
 668 277 668 277 713 87 c 0,28,29
 756 -91 756 -91 784 -188 c 1,15,-1
449 30 m 128,-1,31
 449 10 449 10 436 10 c 2,32,-1
 342 1 l 2,33,34
 311 0 311 0 290 -10 c 2,35,-1
 111 -105 l 1,36,37
 100 -12 100 -12 100 30 c 128,-1,38
 100 72 100 72 111 165 c 1,39,-1
 290 71 l 2,40,41
 311 60 311 60 342 59 c 2,42,-1
 436 50 l 2,43,30
 449 50 449 50 449 30 c 128,-1,31
449 308 m 128,-1,45
 449 288 449 288 436 288 c 2,46,-1
 342 279 l 2,47,48
 311 278 311 278 290 268 c 2,49,-1
 111 173 l 1,50,51
 100 266 100 266 100 308 c 128,-1,52
 100 350 100 350 111 443 c 1,53,-1
 290 349 l 2,54,55
 311 338 311 338 342 337 c 2,56,-1
 436 328 l 2,57,44
 449 328 449 328 449 308 c 128,-1,45
449 586 m 128,-1,59
 449 566 449 566 436 566 c 2,60,-1
 342 557 l 2,61,62
 311 556 311 556 290 546 c 2,63,-1
 111 451 l 1,64,65
 100 544 100 544 100 586 c 128,-1,66
 100 628 100 628 111 721 c 1,67,-1
 290 626 l 2,68,69
 311 616 311 616 342 615 c 2,70,-1
 436 606 l 2,71,58
 449 606 449 606 449 586 c 128,-1,59
1364 627 m 1,72,73
 1347 621 1347 621 1274 598.5 c 128,-1,74
 1201 576 1201 576 1162 564 c 0,75,76
 1138 556 1138 556 1109 527 c 0,77,78
 1103 521 1103 521 1078 497 c 128,-1,79
 1053 473 1053 473 1040 460 c 1,80,81
 1029 456 1029 456 1017.5 468 c 128,-1,82
 1006 480 1006 480 1014 490 c 0,83,84
 1021 498 1021 498 1051.5 529 c 128,-1,85
 1082 560 1082 560 1098 577 c 0,86,87
 1107 589 1107 589 1113 603 c 128,-1,88
 1119 617 1119 617 1125.5 639 c 128,-1,89
 1132 661 1132 661 1134 668 c 2,90,-1
 1179 812 l 1,91,92
 1279 733 1279 733 1319 682 c 0,93,94
 1339 658 1339 658 1364 627 c 1,72,73
EndSplineSet
EndChar

StartChar: uni307D
Encoding: 12413 12413 150
Width: 1104
GlyphClass: 2
Flags: W
LayerCount: 2
Fore
SplineSet
1004 -188 m 1,0,-1
 994 -196 l 1,1,2
 932 -122 932 -122 816 62 c 128,-1,3
 700 246 700 246 676 308 c 1,4,5
 700 370 700 370 816 554 c 128,-1,6
 932 738 932 738 994 812 c 1,7,-1
 1004 804 l 1,8,9
 976 707 976 707 933 529 c 0,10,11
 887 339 887 339 887.5 308 c 128,-1,12
 888 277 888 277 933 87 c 0,13,14
 976 -91 976 -91 1004 -188 c 1,0,-1
784 -188 m 1,15,-1
 774 -196 l 1,16,17
 712 -122 712 -122 596 62 c 128,-1,18
 480 246 480 246 456 308 c 1,19,20
 480 370 480 370 596 554 c 128,-1,21
 712 738 712 738 774 812 c 1,22,-1
 784 804 l 1,23,24
 756 707 756 707 713 529 c 0,25,26
 668 339 668 339 668 308 c 128,-1,27
 668 277 668 277 713 87 c 0,28,29
 756 -91 756 -91 784 -188 c 1,15,-1
449 30 m 128,-1,31
 449 10 449 10 436 10 c 2,32,-1
 342 1 l 2,33,34
 311 0 311 0 290 -10 c 2,35,-1
 111 -105 l 1,36,37
 100 -12 100 -12 100 30 c 128,-1,38
 100 72 100 72 111 165 c 1,39,-1
 290 71 l 2,40,41
 311 60 311 60 342 59 c 2,42,-1
 436 50 l 2,43,30
 449 50 449 50 449 30 c 128,-1,31
449 308 m 128,-1,45
 449 288 449 288 436 288 c 2,46,-1
 342 279 l 2,47,48
 311 278 311 278 290 268 c 2,49,-1
 111 173 l 1,50,51
 100 266 100 266 100 308 c 128,-1,52
 100 350 100 350 111 443 c 1,53,-1
 290 349 l 2,54,55
 311 338 311 338 342 337 c 2,56,-1
 436 328 l 2,57,44
 449 328 449 328 449 308 c 128,-1,45
449 586 m 128,-1,59
 449 566 449 566 436 566 c 2,60,-1
 342 557 l 2,61,62
 311 556 311 556 290 546 c 2,63,-1
 111 451 l 1,64,65
 100 544 100 544 100 586 c 128,-1,66
 100 628 100 628 111 721 c 1,67,-1
 290 626 l 2,68,69
 311 616 311 616 342 615 c 2,70,-1
 436 606 l 2,71,58
 449 606 449 606 449 586 c 128,-1,59
EndSplineSet
EndChar

StartChar: uni307E
Encoding: 12414 12414 151
Width: 1024
GlyphClass: 2
Flags: W
LayerCount: 2
Fore
SplineSet
946 -188 m 1,0,-1
 935 -196 l 1,1,2
 874 -122 874 -122 758 62 c 128,-1,3
 642 246 642 246 618 308 c 1,4,5
 642 370 642 370 758 554 c 128,-1,6
 874 738 874 738 935 812 c 1,7,-1
 946 804 l 1,8,9
 917 707 917 707 875 529 c 0,10,11
 830 339 830 339 830 308 c 128,-1,12
 830 277 830 277 875 87 c 0,13,14
 918 -91 918 -91 946 -188 c 1,15,-1
 946 -188 l 1,0,-1
665 798 m 1,16,-1
 571 576 l 2,17,18
 560 549 560 549 559 511 c 2,19,-1
 550 -180 l 2,20,21
 550 -196 550 -196 530 -196 c 128,-1,22
 510 -196 510 -196 510 -180 c 2,23,-1
 501 511 l 2,24,25
 500 549 500 549 490 576 c 2,26,-1
 395 798 l 1,27,28
 488 812 488 812 530 812 c 128,-1,29
 572 812 572 812 665 798 c 1,30,-1
 665 798 l 1,16,-1
446 169 m 128,-1,32
 446 149 446 149 433 149 c 2,33,-1
 317 146 l 2,34,35
 292 145 292 145 265 130 c 2,36,-1
 88 38 l 1,37,38
 78 126 78 126 78 169 c 128,-1,39
 78 212 78 212 88 300 c 1,40,-1
 265 208 l 2,41,42
 292 193 292 193 317 193 c 2,43,-1
 433 189 l 2,44,31
 446 189 446 189 446 169 c 128,-1,32
446 439 m 128,-1,46
 446 419 446 419 433 419 c 2,47,-1
 317 416 l 2,48,49
 292 415 292 415 265 400 c 2,50,-1
 88 308 l 1,51,52
 78 396 78 396 78 438.5 c 128,-1,53
 78 481 78 481 88 570 c 1,54,-1
 265 477 l 2,55,56
 292 463 292 463 317 462 c 2,57,-1
 433 459 l 2,58,45
 446 459 446 459 446 439 c 128,-1,46
EndSplineSet
EndChar

StartChar: uni307F
Encoding: 12415 12415 152
Width: 1024
GlyphClass: 2
Flags: W
LayerCount: 2
Fore
SplineSet
704 -188 m 1,0,-1
 693 -196 l 1,1,2
 632 -122 632 -122 516 62 c 128,-1,3
 400 246 400 246 376 308 c 1,4,5
 400 370 400 370 516 554 c 128,-1,6
 632 738 632 738 693 812 c 1,7,-1
 704 804 l 1,8,9
 675 707 675 707 633 529 c 0,10,11
 587 339 587 339 587 308 c 128,-1,12
 587 277 587 277 633 87 c 0,13,14
 676 -91 676 -91 704 -188 c 1,0,-1
964 -188 m 1,15,-1
 953 -196 l 1,16,17
 892 -122 892 -122 776 62 c 128,-1,18
 660 246 660 246 636 308 c 1,19,20
 660 370 660 370 776 554 c 128,-1,21
 892 738 892 738 953 812 c 1,22,-1
 964 804 l 1,23,24
 935 707 935 707 893 529 c 0,25,26
 847 339 847 339 847.5 308 c 128,-1,27
 848 277 848 277 893 87 c 0,28,29
 935 -91 935 -91 964 -188 c 1,15,-1
298 173 m 128,-1,31
 298 164 298 164 293.5 158.5 c 128,-1,32
 289 153 289 153 285 152 c 2,33,-1
 70 42 l 1,34,35
 60 130 60 130 60 172.5 c 128,-1,36
 60 215 60 215 70 304 c 1,37,38
 281 194 281 194 285 194 c 0,39,40
 289 193 289 193 293.5 187.5 c 128,-1,30
 298 182 298 182 298 173 c 128,-1,31
298 443 m 128,-1,42
 298 434 298 434 293.5 428.5 c 128,-1,43
 289 423 289 423 285 422 c 2,44,-1
 70 312 l 1,45,46
 60 400 60 400 60 442.5 c 128,-1,47
 60 485 60 485 70 574 c 1,48,49
 281 464 281 464 285 464 c 0,50,51
 289 463 289 463 293.5 457.5 c 128,-1,41
 298 452 298 452 298 443 c 128,-1,42
466 798 m 1,52,-1
 372 576 l 2,53,54
 361 549 361 549 361 511 c 2,55,-1
 352 -180 l 2,56,57
 352 -196 352 -196 331.5 -196 c 128,-1,58
 311 -196 311 -196 311 -180 c 2,59,-1
 302 511 l 2,60,61
 302 549 302 549 291 576 c 2,62,-1
 196 798 l 1,63,64
 290 812 290 812 331.5 812 c 128,-1,65
 373 812 373 812 466 798 c 1,52,-1
EndSplineSet
EndChar

StartChar: uni3080
Encoding: 12416 12416 153
Width: 1024
GlyphClass: 2
Flags: W
LayerCount: 2
Fore
SplineSet
330 450 m 1,0,-1
 236 227 l 2,1,2
 220 190 220 190 220 162 c 2,3,-1
 215 -180 l 2,4,5
 215 -196 215 -196 195 -196 c 128,-1,6
 175 -196 175 -196 175 -180 c 2,7,-1
 170 162 l 2,8,9
 170 190 170 190 154 227 c 2,10,-1
 60 450 l 1,11,12
 95 455 95 455 166 463 c 1,13,-1
 166 511 l 2,14,15
 166 549 166 549 154 576 c 2,16,-1
 60 798 l 1,17,18
 153 812 153 812 195 812 c 128,-1,19
 237 812 237 812 330 798 c 1,20,-1
 236 576 l 2,21,22
 225 549 225 549 224 511 c 2,23,-1
 224 463 l 1,24,25
 253 461 253 461 330 450 c 1,26,-1
 330 450 l 1,0,-1
295 164 m 1,27,-1
 290 175 l 1,28,29
 340 236 340 236 463 352 c 128,-1,30
 586 468 586 468 627 492 c 1,31,32
 668 468 668 468 791 352 c 128,-1,33
 914 236 914 236 964 175 c 1,34,-1
 959 164 l 1,35,36
 894 193 894 193 774 235 c 0,37,38
 648 280 648 280 627 280 c 128,-1,39
 606 280 606 280 480 235 c 0,40,41
 360 192 360 192 295 164 c 1,42,-1
 295 164 l 1,27,-1
295 -136 m 1,43,-1
 290 -125 l 1,44,45
 340 -64 340 -64 463 52 c 128,-1,46
 586 168 586 168 627 192 c 1,47,48
 668 168 668 168 791 52 c 128,-1,49
 914 -64 914 -64 964 -125 c 1,50,-1
 959 -136 l 1,51,52
 894 -107 894 -107 774 -65 c 0,53,54
 648 -20 648 -20 627 -20 c 128,-1,55
 606 -20 606 -20 480 -65 c 0,56,57
 360 -108 360 -108 295 -136 c 1,58,-1
 295 -136 l 1,43,-1
295 464 m 1,59,-1
 290 475 l 1,60,61
 340 536 340 536 463 652 c 128,-1,62
 586 768 586 768 627 792 c 1,63,64
 668 768 668 768 791 652 c 128,-1,65
 914 536 914 536 964 475 c 1,66,-1
 959 464 l 1,67,68
 894 493 894 493 774 535 c 0,69,70
 648 580 648 580 627 580 c 128,-1,71
 606 580 606 580 480 535 c 0,72,73
 360 493 360 493 295 464 c 1,74,-1
 295 464 l 1,59,-1
EndSplineSet
EndChar

StartChar: uni3081
Encoding: 12417 12417 154
Width: 1024
GlyphClass: 2
Flags: W
LayerCount: 2
Fore
SplineSet
667 798 m 1,0,-1
 572 576 l 2,1,2
 564 556 564 556 562 524 c 1,3,4
 594 522 594 522 664 511 c 1,5,-1
 570 289 l 2,6,7
 558 261 558 261 557 220 c 1,8,9
 584 219 584 219 662 207 c 1,10,-1
 567 -16 l 2,11,12
 554 -48 554 -48 554 -70 c 2,13,-1
 552 -180 l 2,14,15
 552 -196 552 -196 532 -196 c 128,-1,16
 512 -196 512 -196 512 -180 c 2,17,-1
 510 -70 l 2,18,19
 510 -48 510 -48 496 -16 c 2,20,-1
 402 207 l 1,21,22
 437 213 437 213 507 220 c 1,23,24
 506 261 506 261 494 289 c 2,25,-1
 400 511 l 1,26,27
 434 516 434 516 502 524 c 1,28,29
 500 556 500 556 492 576 c 2,30,-1
 397 798 l 1,31,32
 490 812 490 812 532 812 c 128,-1,33
 574 812 574 812 667 798 c 1,34,-1
 667 798 l 1,0,-1
388 173 m 128,-1,36
 388 153 388 153 375 153 c 2,37,-1
 299 150 l 2,38,39
 274 149 274 149 247 134 c 2,40,-1
 70 42 l 1,41,42
 60 130 60 130 60 172.5 c 128,-1,43
 60 215 60 215 70 304 c 1,44,-1
 247 212 l 2,45,46
 274 197 274 197 299 197 c 2,47,-1
 375 193 l 2,48,35
 388 193 388 193 388 173 c 128,-1,36
388 443 m 128,-1,50
 388 423 388 423 375 423 c 2,51,-1
 299 420 l 2,52,53
 274 419 274 419 247 404 c 2,54,-1
 70 312 l 1,55,56
 60 400 60 400 60 442.5 c 128,-1,57
 60 485 60 485 70 574 c 1,58,-1
 247 482 l 2,59,60
 274 467 274 467 299 467 c 2,61,-1
 375 463 l 2,62,49
 388 463 388 463 388 443 c 128,-1,50
964 -188 m 1,63,-1
 953 -196 l 1,64,65
 892 -122 892 -122 776 62 c 128,-1,66
 660 246 660 246 636 308 c 1,67,68
 660 370 660 370 776 554 c 128,-1,69
 892 738 892 738 953 812 c 1,70,-1
 964 804 l 1,71,72
 935 707 935 707 893 529 c 0,73,74
 848 339 848 339 848 308 c 128,-1,75
 848 277 848 277 893 87 c 0,76,77
 936 -91 936 -91 964 -188 c 1,78,-1
 964 -188 l 1,63,-1
EndSplineSet
EndChar

StartChar: uni3082
Encoding: 12418 12418 155
Width: 1024
GlyphClass: 2
Flags: W
LayerCount: 2
Fore
SplineSet
960 -188 m 1,0,-1
 950 -196 l 1,1,2
 888 -122 888 -122 772 62 c 128,-1,3
 656 246 656 246 632 308 c 1,4,5
 656 370 656 370 772 554 c 128,-1,6
 888 738 888 738 950 812 c 1,7,-1
 960 804 l 1,8,9
 932 707 932 707 889 529 c 0,10,11
 844 339 844 339 844 308 c 128,-1,12
 844 277 844 277 889 87 c 0,13,14
 932 -91 932 -91 960 -188 c 1,0,-1
355 662 m 1,15,-1
 534 568 l 2,16,17
 563 552 563 552 586 552 c 2,18,-1
 720 547 l 2,19,20
 732 547 732 547 732 527 c 128,-1,21
 732 507 732 507 720 507 c 2,22,-1
 586 502 l 2,23,24
 563 502 563 502 534 486 c 2,25,-1
 355 392 l 1,26,27
 350 427 350 427 344 498 c 1,28,-1
 306 498 l 2,29,30
 275 497 275 497 254 486 c 2,31,-1
 75 392 l 1,32,33
 64 485 64 485 64 527 c 128,-1,34
 64 569 64 569 75 662 c 1,35,-1
 254 568 l 2,36,37
 275 556 275 556 306 556 c 2,38,-1
 344 556 l 1,39,40
 346 585 346 585 355 662 c 1,15,-1
355 204 m 1,41,-1
 534 110 l 2,42,43
 563 94 563 94 586 94 c 2,44,-1
 720 89 l 2,45,46
 732 89 732 89 732 69 c 128,-1,47
 732 49 732 49 720 49 c 2,48,-1
 586 44 l 2,49,50
 563 44 563 44 534 28 c 2,51,-1
 355 -66 l 1,52,53
 350 -31 350 -31 344 40 c 1,54,-1
 306 40 l 2,55,56
 275 39 275 39 254 28 c 2,57,-1
 75 -66 l 1,58,59
 64 27 64 27 64 69 c 128,-1,60
 64 111 64 111 75 204 c 1,61,-1
 254 110 l 2,62,63
 275 98 275 98 306 98 c 2,64,-1
 344 98 l 1,65,66
 346 127 346 127 355 204 c 1,41,-1
EndSplineSet
EndChar

StartChar: uni3083
Encoding: 12419 12419 156
Width: 768
GlyphClass: 2
Flags: W
LayerCount: 2
Fore
SplineSet
674 -190 m 1,0,-1
 666 -196 l 1,1,2
 583 -116 583 -116 470 7 c 0,3,4
 413 70 413 70 406 78 c 0,5,6
 369 119 369 119 346 154 c 1,7,8
 375 197 375 197 470 301 c 0,9,10
 583 424 583 424 666 504 c 1,11,-1
 674 498 l 1,12,13
 645 419 645 419 625 359 c 0,14,15
 592 262 592 262 591 258 c 0,16,17
 572 199 572 199 564 154 c 1,18,19
 573 100 573 100 625 -51 c 0,20,21
 645 -111 645 -111 674 -190 c 1,0,-1
374 -190 m 1,22,-1
 366 -196 l 1,23,24
 283 -116 283 -116 170 7 c 0,25,26
 113 70 113 70 106 78 c 0,27,28
 69 119 69 119 46 154 c 1,29,30
 75 197 75 197 170 301 c 0,31,32
 283 424 283 424 366 504 c 1,33,-1
 374 498 l 1,34,35
 345 419 345 419 325 359 c 0,36,37
 292 262 292 262 291 258 c 0,38,39
 272 199 272 199 264 154 c 1,40,41
 273 100 273 100 325 -51 c 0,42,43
 345 -111 345 -111 374 -190 c 1,22,-1
676 550 m 128,-1,45
 676 530 676 530 663 530 c 2,46,-1
 628 526 l 2,47,48
 606 525 606 525 576 510 c 2,49,-1
 397 415 l 1,50,51
 392 450 392 450 386 522 c 1,52,-1
 348 521 l 2,53,54
 317 520 317 520 296 510 c 2,55,-1
 117 415 l 1,56,57
 106 508 106 508 106 550 c 128,-1,58
 106 592 106 592 117 685 c 1,59,-1
 296 591 l 2,60,61
 317 580 317 580 348 579 c 2,62,-1
 386 579 l 1,63,64
 388 608 388 608 397 685 c 1,65,-1
 576 591 l 2,66,67
 605 575 605 575 628 574 c 2,68,-1
 663 570 l 2,69,44
 676 570 676 570 676 550 c 128,-1,45
EndSplineSet
EndChar

StartChar: uni3084
Encoding: 12420 12420 157
Width: 1024
GlyphClass: 2
Flags: W
LayerCount: 2
Fore
SplineSet
917 677 m 1,0,1
 917 657 917 657 904 657 c 2,2,-1
 629 653 l 2,3,4
 606 652 606 652 577 636 c 2,5,-1
 398 542 l 1,6,7
 394 578 394 578 388 648 c 1,8,-1
 349 648 l 2,9,10
 318 648 318 648 297 636 c 2,11,-1
 118 542 l 1,12,13
 107 635 107 635 107 677 c 128,-1,14
 107 719 107 719 118 812 c 1,15,-1
 297 718 l 2,16,17
 318 707 318 707 349 706 c 2,18,-1
 388 706 l 1,19,20
 389 735 389 735 398 812 c 1,21,-1
 577 718 l 2,22,23
 606 702 606 702 629 702 c 2,24,-1
 904 697 l 2,25,26
 917 697 917 697 917 677 c 1,27,-1
 917 677 l 1,0,1
514 -172 m 1,28,-1
 505 -178 l 1,29,30
 422 -93 422 -93 307 39 c 0,31,32
 249 107 249 107 242 116 c 0,33,34
 204 160 204 160 181 197 c 1,35,36
 210 243 210 243 307 355 c 0,37,38
 422 487 422 487 505 572 c 1,39,-1
 514 566 l 1,40,41
 485 481 485 481 464 417 c 0,42,43
 430 312 430 312 429 308 c 0,44,45
 410 246 410 246 402 197 c 1,46,47
 411 139 411 139 464 -23 c 0,48,49
 484 -87 484 -87 514 -172 c 1,28,-1
843 -172 m 1,50,-1
 835 -178 l 1,51,52
 751 -93 751 -93 637 39 c 0,53,54
 579 107 579 107 572 116 c 0,55,56
 534 160 534 160 511 197 c 1,57,58
 540 243 540 243 637 355 c 0,59,60
 751 487 751 487 835 572 c 1,61,-1
 843 566 l 1,62,63
 815 481 815 481 794 417 c 0,64,65
 760 312 760 312 759 308 c 0,66,67
 740 246 740 246 732 197 c 1,68,69
 741 139 741 139 794 -23 c 0,70,71
 814 -87 814 -87 843 -172 c 1,50,-1
EndSplineSet
EndChar

StartChar: uni3085
Encoding: 12421 12421 158
Width: 768
GlyphClass: 2
Flags: W
LayerCount: 2
Fore
SplineSet
669 497 m 128,-1,1
 669 477 669 477 656 477 c 2,2,-1
 284 468 l 2,3,4
 253 468 253 468 232 456 c 2,5,-1
 53 362 l 1,6,7
 42 455 42 455 42 497 c 128,-1,8
 42 539 42 539 53 632 c 1,9,-1
 232 537 l 2,10,11
 253 526 253 526 284 526 c 2,12,-1
 656 517 l 2,13,0
 669 517 669 517 669 497 c 128,-1,1
669 218 m 128,-1,15
 669 198 669 198 656 198 c 2,16,-1
 284 189 l 2,17,18
 253 188 253 188 232 177 c 2,19,-1
 53 83 l 1,20,21
 42 176 42 176 42 218 c 128,-1,22
 42 260 42 260 53 353 c 1,23,-1
 232 258 l 2,24,25
 253 248 253 248 284 247 c 2,26,-1
 656 238 l 2,27,14
 669 238 669 238 669 218 c 128,-1,15
28 -196 m 1,28,-1
 23 -184 l 1,29,30
 74 -115 74 -115 202 16 c 128,-1,31
 330 147 330 147 373 174 c 1,32,33
 415 147 415 147 543 16 c 128,-1,34
 671 -115 671 -115 723 -184 c 1,35,-1
 717 -196 l 1,36,37
 650 -164 650 -164 526 -116 c 0,38,39
 394 -65 394 -65 372.5 -65 c 128,-1,40
 351 -65 351 -65 219 -116 c 0,41,42
 96 -164 96 -164 28 -196 c 1,28,-1
EndSplineSet
EndChar

StartChar: uni3086
Encoding: 12422 12422 159
Width: 1024
GlyphClass: 2
Flags: W
LayerCount: 2
Fore
SplineSet
118 -196 m 1,0,-1
 111 -184 l 1,1,2
 170 -115 170 -115 316.5 16 c 128,-1,3
 463 147 463 147 512 174 c 1,4,5
 561 147 561 147 707.5 16 c 128,-1,6
 854 -115 854 -115 913 -184 c 1,7,-1
 906 -196 l 1,8,9
 830 -164 830 -164 688 -116 c 0,10,11
 537 -65 537 -65 512.5 -65 c 128,-1,12
 488 -65 488 -65 337 -116 c 0,13,14
 195 -164 195 -164 118 -196 c 1,15,-1
 118 -196 l 1,0,-1
847 358 m 128,-1,17
 847 338 847 338 834 338 c 2,18,-1
 399 329 l 2,19,20
 368 328 368 328 347 317 c 2,21,-1
 168 223 l 1,22,23
 157 316 157 316 157 358 c 128,-1,24
 157 400 157 400 168 493 c 1,25,-1
 347 398 l 2,26,27
 368 388 368 388 399 387 c 2,28,-1
 834 378 l 2,29,16
 847 378 847 378 847 358 c 128,-1,17
847 677 m 128,-1,31
 847 657 847 657 834 657 c 2,32,-1
 399 648 l 2,33,34
 368 648 368 648 347 636 c 2,35,-1
 168 542 l 1,36,37
 157 635 157 635 157 677 c 128,-1,38
 157 719 157 719 168 812 c 1,39,-1
 347 717 l 2,40,41
 368 706 368 706 399 706 c 2,42,-1
 834 697 l 2,43,30
 847 697 847 697 847 677 c 128,-1,31
EndSplineSet
EndChar

StartChar: uni3087
Encoding: 12423 12423 160
Width: 768
GlyphClass: 2
Flags: W
LayerCount: 2
Fore
SplineSet
718 468.5 m 128,-1,1
 718 445 718 445 702 444 c 0,2,3
 618 444 618 444 419.5 440 c 128,-1,4
 221 436 221 436 208 429 c 2,5,-1
 34 337 l 1,6,7
 23 429 23 429 23 468.5 c 128,-1,8
 23 508 23 508 34 600 c 1,9,-1
 208 508 l 2,10,11
 215 504 215 504 329.5 500.5 c 128,-1,12
 444 497 444 497 571 495 c 128,-1,13
 698 493 698 493 702 492 c 0,14,0
 718 492 718 492 718 468.5 c 128,-1,1
28 -195 m 1,15,-1
 23 -184 l 1,16,17
 74 -114 74 -114 202 17 c 128,-1,18
 330 148 330 148 373 175 c 1,19,20
 415 148 415 148 543 17 c 128,-1,21
 671 -114 671 -114 723 -184 c 1,22,-1
 717 -195 l 1,23,24
 650 -163 650 -163 526 -115 c 0,25,26
 394 -64 394 -64 372.5 -64 c 128,-1,27
 351 -64 351 -64 219 -115 c 0,28,29
 96 -163 96 -163 28 -195 c 1,15,-1
28 50 m 1,30,-1
 23 61 l 1,31,32
 74 131 74 131 202 262 c 128,-1,33
 330 393 330 393 373 420 c 1,34,35
 415 393 415 393 543 262 c 128,-1,36
 671 131 671 131 723 61 c 1,37,-1
 717 50 l 1,38,39
 650 82 650 82 526 130 c 0,40,41
 394 181 394 181 372.5 181 c 128,-1,42
 351 181 351 181 219 130 c 0,43,44
 96 82 96 82 28 50 c 1,30,-1
EndSplineSet
EndChar

StartChar: uni3088
Encoding: 12424 12424 161
Width: 1024
GlyphClass: 2
Flags: W
LayerCount: 2
Fore
SplineSet
67 150 m 1,0,-1
 60 161 l 1,1,2
 127 231 127 231 292 362 c 128,-1,3
 457 493 457 493 512 520 c 1,4,5
 567 493 567 493 732 362 c 128,-1,6
 897 231 897 231 964 161 c 1,7,-1
 957 150 l 1,8,9
 870 182 870 182 710 230 c 0,10,11
 540 281 540 281 512 281 c 128,-1,12
 484 281 484 281 314 230 c 0,13,14
 154 182 154 182 67 150 c 1,0,-1
67 -195 m 1,15,-1
 60 -184 l 1,16,17
 127 -114 127 -114 292 17 c 128,-1,18
 457 148 457 148 512 175 c 1,19,20
 567 148 567 148 732 17 c 128,-1,21
 897 -114 897 -114 964 -184 c 1,22,-1
 957 -195 l 1,23,24
 870 -163 870 -163 710 -115 c 0,25,26
 540 -64 540 -64 512 -64 c 128,-1,27
 484 -64 484 -64 314 -115 c 0,28,29
 154 -163 154 -163 67 -195 c 1,15,-1
896 680.5 m 128,-1,31
 896 657 896 657 879 656 c 0,32,33
 782 656 782 656 550 652 c 128,-1,34
 318 648 318 648 305 641 c 2,35,-1
 131 549 l 1,36,37
 120 641 120 641 120 680.5 c 128,-1,38
 120 720 120 720 131 812 c 1,39,-1
 305 720 l 2,40,41
 313 716 313 716 447.5 712.5 c 128,-1,42
 582 709 582 709 728 707 c 128,-1,43
 874 705 874 705 879 704 c 0,44,30
 896 704 896 704 896 680.5 c 128,-1,31
EndSplineSet
EndChar

StartChar: uni3089
Encoding: 12425 12425 162
Width: 1024
GlyphClass: 2
Flags: W
LayerCount: 2
Fore
SplineSet
839 -188 m 1,0,-1
 828 -196 l 1,1,2
 767 -122 767 -122 651 62 c 128,-1,3
 535 246 535 246 511 308 c 1,4,5
 535 370 535 370 651 554 c 128,-1,6
 767 738 767 738 828 812 c 1,7,-1
 839 804 l 1,8,9
 810 707 810 707 768 529 c 0,10,11
 722 339 722 339 722 308 c 128,-1,12
 722 277 722 277 768 87 c 0,13,14
 811 -91 811 -91 839 -188 c 1,0,-1
658 681 m 128,-1,16
 658 658 658 658 642 657 c 0,17,18
 635 656 635 656 576 655.5 c 128,-1,19
 517 655 517 655 462.5 654.5 c 128,-1,20
 408 654 408 654 405 654 c 0,21,22
 388 651 388 651 370 641 c 2,23,-1
 196 549 l 1,24,25
 185 642 185 642 185 681 c 128,-1,26
 185 720 185 720 196 812 c 1,27,-1
 370 720 l 2,28,29
 375 717 375 717 401 715 c 128,-1,30
 427 713 427 713 464.5 711 c 128,-1,31
 502 709 502 709 536.5 708 c 128,-1,32
 571 707 571 707 603.5 706 c 128,-1,33
 636 705 636 705 641 705 c 0,34,15
 658 704 658 704 658 681 c 128,-1,16
536 530 m 1,35,-1
 444 354 l 2,36,37
 432 332 432 332 432 300 c 2,38,-1
 425 -185 l 2,39,40
 425 -198 425 -198 405 -198 c 128,-1,41
 385 -198 385 -198 385 -185 c 2,42,-1
 379 300 l 2,43,44
 378 332 378 332 367 354 c 2,45,-1
 274 530 l 1,46,47
 363 540 363 540 405.5 540 c 128,-1,48
 448 540 448 540 536 530 c 1,35,-1
EndSplineSet
EndChar

StartChar: uni308A
Encoding: 12426 12426 163
Width: 1024
GlyphClass: 2
Flags: W
LayerCount: 2
Fore
SplineSet
964 -188 m 1,0,-1
 954 -196 l 1,1,2
 892 -122 892 -122 776 62 c 128,-1,3
 660 246 660 246 636 308 c 1,4,5
 660 370 660 370 776 554 c 128,-1,6
 892 738 892 738 954 812 c 1,7,-1
 964 804 l 1,8,9
 935 707 935 707 893 529 c 0,10,11
 847 339 847 339 847.5 308 c 128,-1,12
 848 277 848 277 893 87 c 0,13,14
 936 -91 936 -91 964 -188 c 1,0,-1
704 -188 m 1,15,-1
 694 -196 l 1,16,17
 632 -122 632 -122 516 62 c 128,-1,18
 400 246 400 246 376 308 c 1,19,20
 400 370 400 370 516 554 c 128,-1,21
 632 738 632 738 694 812 c 1,22,-1
 704 804 l 1,23,24
 676 707 676 707 633 529 c 0,25,26
 588 339 588 339 588 308 c 128,-1,27
 588 277 588 277 633 87 c 0,28,29
 676 -91 676 -91 704 -188 c 1,15,-1
543 681 m 128,-1,31
 543 658 543 658 526 657 c 0,32,33
 520 656 520 656 458.5 655.5 c 128,-1,34
 397 655 397 655 340 654.5 c 128,-1,35
 283 654 283 654 280 654 c 0,36,37
 263 651 263 651 245 641 c 2,38,-1
 71 549 l 1,39,40
 60 642 60 642 60 681 c 128,-1,41
 60 720 60 720 71 812 c 1,42,-1
 245 720 l 2,43,44
 250 717 250 717 277 715 c 128,-1,45
 304 713 304 713 343 711 c 128,-1,46
 382 709 382 709 418.5 708 c 128,-1,47
 455 707 455 707 488 706 c 128,-1,48
 521 705 521 705 526 705 c 0,49,30
 543 704 543 704 543 681 c 128,-1,31
391 513 m 1,50,-1
 298 336 l 2,51,52
 287 315 287 315 286 284 c 2,53,-1
 280 -185 l 2,54,55
 280 -198 280 -198 260 -198 c 128,-1,56
 240 -198 240 -198 240 -185 c 2,57,-1
 234 284 l 2,58,59
 233 314 233 314 222 336 c 2,60,-1
 129 513 l 1,61,62
 217 523 217 523 259.5 523 c 128,-1,63
 302 523 302 523 391 513 c 1,50,-1
EndSplineSet
EndChar

StartChar: uni308B
Encoding: 12427 12427 164
Width: 1024
GlyphClass: 2
Flags: W
LayerCount: 2
Fore
SplineSet
376 513 m 1,0,-1
 284 337 l 2,1,2
 272 315 272 315 272 284 c 2,3,-1
 265 -185 l 2,4,5
 265 -198 265 -198 245 -198 c 128,-1,6
 225 -198 225 -198 225 -185 c 2,7,-1
 218 284 l 2,8,9
 218 315 218 315 206 337 c 2,10,-1
 114 513 l 1,11,12
 202 523 202 523 245 523.5 c 128,-1,13
 288 524 288 524 376 513 c 1,0,-1
646 513 m 1,14,-1
 554 337 l 2,15,16
 542 315 542 315 542 284 c 2,17,-1
 535 -185 l 2,18,19
 535 -198 535 -198 515 -198 c 128,-1,20
 495 -198 495 -198 495 -185 c 2,21,-1
 488 284 l 2,22,23
 488 315 488 315 476 337 c 2,24,-1
 384 513 l 1,25,26
 472 523 472 523 515 523.5 c 128,-1,27
 558 524 558 524 646 513 c 1,14,-1
730 681 m 128,-1,29
 730 661 730 661 717 661 c 2,30,-1
 299 654 l 2,31,32
 268 654 268 654 247 642 c 2,33,-1
 70 550 l 1,34,35
 60 638 60 638 60 681 c 128,-1,36
 60 724 60 724 70 812 c 1,37,-1
 247 720 l 2,38,39
 268 708 268 708 299 708 c 2,40,-1
 717 701 l 2,41,28
 730 701 730 701 730 681 c 128,-1,29
964 -188 m 1,42,-1
 953 -196 l 1,43,44
 892 -122 892 -122 776 62 c 128,-1,45
 660 246 660 246 636 308 c 1,46,47
 660 370 660 370 776 554 c 128,-1,48
 892 738 892 738 953 812 c 1,49,-1
 964 804 l 1,50,51
 935 707 935 707 893 529 c 0,52,53
 848 339 848 339 848 308 c 128,-1,54
 848 277 848 277 893 87 c 0,55,56
 936 -91 936 -91 964 -188 c 1,42,-1
EndSplineSet
EndChar

StartChar: uni308C
Encoding: 12428 12428 165
Width: 1024
GlyphClass: 2
Flags: W
LayerCount: 2
Fore
SplineSet
530 801 m 1,0,-1
 437 626 l 2,1,2
 426 604 426 604 425 573 c 2,3,-1
 418 82 l 2,4,5
 418 70 418 70 398 70 c 128,-1,6
 378 70 378 70 379 82 c 2,7,-1
 372 573 l 2,8,9
 371 604 371 604 360 626 c 2,10,-1
 268 801 l 1,11,12
 356 812 356 812 398.5 812 c 128,-1,13
 441 812 441 812 530 801 c 1,0,-1
625.5 -57 m 128,-1,15
 626 -80 626 -80 609 -82 c 0,16,17
 602 -82 602 -82 548.5 -82.5 c 128,-1,18
 495 -83 495 -83 445 -83.5 c 128,-1,19
 395 -84 395 -84 393 -85 c 0,20,21
 376 -87 376 -87 358 -97 c 2,22,-1
 184 -189 l 1,23,24
 173 -96 173 -96 172.5 -57.5 c 128,-1,25
 172 -19 172 -19 183 74 c 1,26,-1
 358 -18 l 2,27,28
 362 -21 362 -21 386.5 -23 c 128,-1,29
 411 -25 411 -25 445.5 -27 c 128,-1,30
 480 -29 480 -29 511 -30 c 128,-1,31
 542 -31 542 -31 573.5 -32 c 128,-1,32
 605 -33 605 -33 609 -34 c 0,33,14
 625 -34 625 -34 625.5 -57 c 128,-1,15
852 -188 m 1,34,-1
 841 -196 l 1,35,36
 780 -122 780 -122 663.5 62 c 128,-1,37
 547 246 547 246 523 308 c 1,38,39
 548 370 548 370 664 554 c 128,-1,40
 780 738 780 738 841 812 c 1,41,-1
 852 804 l 1,42,43
 823 707 823 707 780 529 c 0,44,45
 735 339 735 339 735 308 c 128,-1,46
 735 277 735 277 780 87 c 0,47,48
 823 -91 823 -91 852 -188 c 1,34,-1
EndSplineSet
EndChar

StartChar: uni308D
Encoding: 12429 12429 166
Width: 1024
GlyphClass: 2
Flags: W
LayerCount: 2
Fore
SplineSet
964 -188 m 1,0,-1
 953 -196 l 1,1,2
 892 -122 892 -122 776 62 c 128,-1,3
 660 246 660 246 636 308 c 1,4,5
 660 370 660 370 776 554 c 128,-1,6
 892 738 892 738 953 812 c 1,7,-1
 964 804 l 1,8,9
 935 707 935 707 893 529 c 0,10,11
 848 339 848 339 848 308 c 128,-1,12
 848 277 848 277 893 87 c 0,13,14
 936 -91 936 -91 964 -188 c 1,15,-1
 964 -188 l 1,0,-1
710 -57 m 128,-1,17
 710 -77 710 -77 698 -77 c 2,18,-1
 299 -84 l 2,19,20
 268 -84 268 -84 247 -96 c 2,21,-1
 70 -188 l 1,22,23
 60 -100 60 -100 60 -57.5 c 128,-1,24
 60 -15 60 -15 70 74 c 1,25,-1
 247 -19 l 2,26,27
 268 -30 268 -30 299 -31 c 2,28,-1
 698 -37 l 2,29,16
 710 -37 710 -37 710 -57 c 128,-1,17
646 801 m 1,30,-1
 554 626 l 2,31,32
 542 604 542 604 542 573 c 2,33,-1
 535 112 l 2,34,35
 535 100 535 100 515 100 c 128,-1,36
 495 100 495 100 495 112 c 2,37,-1
 488 572 l 2,38,39
 488 604 488 604 476 626 c 2,40,-1
 384 801 l 1,41,42
 472 812 472 812 515 812 c 128,-1,43
 558 812 558 812 646 801 c 1,30,-1
376 801 m 1,44,-1
 284 626 l 2,45,46
 272 604 272 604 272 573 c 2,47,-1
 265 112 l 2,48,49
 265 100 265 100 245 100 c 128,-1,50
 225 100 225 100 225 112 c 2,51,-1
 218 572 l 2,52,53
 218 604 218 604 206 626 c 2,54,-1
 114 801 l 1,55,56
 202 812 202 812 245 812 c 128,-1,57
 288 812 288 812 376 801 c 1,44,-1
EndSplineSet
EndChar

StartChar: uni308E
Encoding: 12430 12430 167
Width: 1024
GlyphClass: 2
Flags: W
LayerCount: 2
Fore
SplineSet
919 -198 m 1,0,-1
 908 -204 l 1,1,2
 847 -145 847 -145 731 1 c 128,-1,3
 615 147 615 147 591 196 c 1,4,5
 615 245 615 245 731 391 c 128,-1,6
 847 537 847 537 908 596 c 1,7,-1
 919 590 l 1,8,9
 890 513 890 513 848 371 c 0,10,11
 802 220 802 220 802 196 c 128,-1,12
 802 172 802 172 848 21 c 0,13,14
 891 -121 891 -121 919 -198 c 1,15,-1
 919 -198 l 1,0,-1
375 585 m 1,16,-1
 280 408 l 2,17,18
 272 393 272 393 270 367 c 1,19,20
 302 366 302 366 372 357 c 1,21,-1
 278 181 l 2,22,23
 266 158 266 158 265 126 c 1,24,25
 292 125 292 125 370 116 c 1,26,-1
 276 -61 l 2,27,28
 262 -86 262 -86 262 -104 c 2,29,-1
 260 -192 l 2,30,31
 260 -204 260 -204 240 -204 c 128,-1,32
 220 -204 220 -204 220 -192 c 2,33,-1
 218 -104 l 2,34,35
 218 -86 218 -86 204 -61 c 2,36,-1
 110 116 l 1,37,38
 145 120 145 120 215 126 c 1,39,40
 214 158 214 158 202 181 c 2,41,-1
 108 357 l 1,42,43
 142 361 142 361 211 367 c 1,44,45
 208 393 208 393 200 408 c 2,46,-1
 105 585 l 1,47,48
 198 596 198 596 240 596 c 128,-1,49
 282 596 282 596 375 585 c 1,50,-1
 375 585 l 1,16,-1
642 585 m 1,51,-1
 548 408 l 2,52,53
 539 393 539 393 536 367 c 1,54,55
 569 366 569 366 640 357 c 1,56,-1
 545 181 l 2,57,58
 533 158 533 158 532 126 c 1,59,60
 559 125 559 125 637 116 c 1,61,-1
 542 -61 l 2,62,63
 529 -86 529 -86 529 -104 c 2,64,-1
 527 -192 l 2,65,66
 527 -204 527 -204 507 -204 c 128,-1,67
 487 -204 487 -204 487 -192 c 2,68,-1
 485 -104 l 2,69,70
 485 -86 485 -86 472 -61 c 2,71,-1
 377 116 l 1,72,73
 412 120 412 120 482 126 c 1,74,75
 481 158 481 158 469 181 c 2,76,-1
 375 357 l 1,77,78
 409 361 409 361 478 367 c 1,79,80
 475 393 475 393 467 408 c 2,81,-1
 372 585 l 1,82,83
 465 596 465 596 507 596 c 128,-1,84
 549 596 549 596 642 585 c 1,85,-1
 642 585 l 1,51,-1
EndSplineSet
EndChar

StartChar: uni308F
Encoding: 12431 12431 168
Width: 1024
GlyphClass: 2
Flags: W
LayerCount: 2
Fore
SplineSet
647 798 m 1,0,-1
 552 576 l 2,1,2
 544 556 544 556 542 524 c 1,3,4
 574 522 574 522 644 511 c 1,5,-1
 550 289 l 2,6,7
 538 261 538 261 537 220 c 1,8,9
 564 219 564 219 642 207 c 1,10,-1
 548 -16 l 2,11,12
 534 -48 534 -48 534 -70 c 2,13,-1
 532 -180 l 2,14,15
 532 -196 532 -196 512 -196 c 128,-1,16
 492 -196 492 -196 492 -180 c 2,17,-1
 490 -70 l 2,18,19
 490 -48 490 -48 476 -16 c 2,20,-1
 382 207 l 1,21,22
 417 213 417 213 487 220 c 1,23,24
 486 261 486 261 474 289 c 2,25,-1
 380 511 l 1,26,27
 414 516 414 516 483 524 c 1,28,29
 480 556 480 556 472 576 c 2,30,-1
 377 798 l 1,31,32
 470 812 470 812 512 812 c 128,-1,33
 554 812 554 812 647 798 c 1,34,-1
 647 798 l 1,0,-1
330 798 m 1,35,-1
 236 576 l 2,36,37
 227 556 227 556 224 524 c 1,38,39
 257 522 257 522 328 511 c 1,40,-1
 233 289 l 2,41,42
 221 261 221 261 220 220 c 1,43,44
 247 219 247 219 325 207 c 1,45,-1
 230 -16 l 2,46,47
 217 -48 217 -48 217 -70 c 2,48,-1
 215 -180 l 2,49,50
 215 -196 215 -196 195 -196 c 128,-1,51
 175 -196 175 -196 175 -180 c 2,52,-1
 173 -70 l 2,53,54
 173 -48 173 -48 160 -16 c 2,55,-1
 65 207 l 1,56,57
 100 213 100 213 170 220 c 1,58,59
 169 261 169 261 157 289 c 2,60,-1
 63 511 l 1,61,62
 97 516 97 516 166 524 c 1,63,64
 163 556 163 556 155 576 c 2,65,-1
 60 798 l 1,66,67
 153 812 153 812 195 812 c 128,-1,68
 237 812 237 812 330 798 c 1,69,-1
 330 798 l 1,35,-1
964 -188 m 1,70,-1
 953 -196 l 1,71,72
 892 -122 892 -122 776 62 c 128,-1,73
 660 246 660 246 636 308 c 1,74,75
 660 370 660 370 776 554 c 128,-1,76
 892 738 892 738 953 812 c 1,77,-1
 964 804 l 1,78,79
 935 707 935 707 893 529 c 0,80,81
 848 339 848 339 848 308 c 128,-1,82
 848 277 848 277 893 87 c 0,83,84
 936 -91 936 -91 964 -188 c 1,85,-1
 964 -188 l 1,70,-1
EndSplineSet
EndChar

StartChar: uni3090
Encoding: 12432 12432 169
Width: 1024
GlyphClass: 2
Flags: W
LayerCount: 2
Fore
SplineSet
207 812 m 1,0,-1
 252 667 l 1,1,-1
 277 587 l 1,2,-1
 307 552 l 1,3,-1
 282 527 l 1,4,-1
 247 557 l 1,5,-1
 167 582 l 1,6,-1
 22 627 l 1,7,8
 97 725 97 725 207 812 c 1,0,-1
1002 -188 m 1,9,-1
 992 -196 l 1,10,11
 936 -122 936 -122 830 62 c 128,-1,12
 724 246 724 246 702 308 c 1,13,14
 724 370 724 370 830 554 c 128,-1,15
 936 738 936 738 992 812 c 1,16,-1
 1002 804 l 1,17,18
 976 707 976 707 937 529 c 0,19,20
 895 339 895 339 895 308 c 128,-1,21
 895 277 895 277 937 87 c 0,22,23
 976 -91 976 -91 1002 -188 c 1,9,-1
785 791 m 1,24,-1
 690 592 l 2,25,26
 679 568 679 568 679 534 c 2,27,-1
 670 -185 l 2,28,29
 670 -198 670 -198 650 -198 c 128,-1,30
 630 -198 630 -198 630 -185 c 2,31,-1
 621 534 l 2,32,33
 620 568 620 568 609 592 c 2,34,-1
 515 791 l 1,35,36
 608 804 608 804 650 804 c 128,-1,37
 692 804 692 804 785 791 c 1,24,-1
490 -188 m 1,38,-1
 480 -196 l 1,39,40
 424 -122 424 -122 318 62 c 128,-1,41
 212 246 212 246 190 308 c 1,42,43
 212 370 212 370 318 554 c 128,-1,44
 424 738 424 738 480 812 c 1,45,-1
 490 804 l 1,46,47
 464 707 464 707 425 529 c 0,48,49
 383 339 383 339 383 308 c 128,-1,50
 383 277 383 277 425 87 c 0,51,52
 464 -91 464 -91 490 -188 c 1,38,-1
EndSplineSet
EndChar

StartChar: uni3091
Encoding: 12433 12433 170
Width: 1024
GlyphClass: 2
Flags: W
LayerCount: 2
Fore
SplineSet
761 677 m 128,-1,1
 761 657 761 657 749 657 c 2,2,-1
 587 652 l 2,3,4
 565 652 565 652 535 636 c 2,5,-1
 356 542 l 1,6,7
 352 577 352 577 345 648 c 1,8,-1
 307 648 l 2,9,10
 276 647 276 647 255 636 c 2,11,-1
 76 542 l 1,12,13
 65 635 65 635 65 677 c 128,-1,14
 65 719 65 719 76 812 c 1,15,-1
 255 718 l 2,16,17
 276 707 276 707 307 706 c 2,18,-1
 345 706 l 1,19,20
 347 735 347 735 356 812 c 1,21,-1
 535 718 l 2,22,23
 564 702 564 702 587 702 c 2,24,-1
 749 697 l 2,25,0
 761 697 761 697 761 677 c 128,-1,1
635 502 m 1,26,-1
 540 323 l 2,27,28
 530 302 530 302 529 271 c 2,29,-1
 520 -180 l 2,30,31
 520 -193 520 -193 500 -193 c 128,-1,32
 480 -193 480 -193 480 -180 c 2,33,-1
 471 271 l 2,34,35
 470 302 470 302 460 323 c 2,36,-1
 365 502 l 1,37,38
 458 513 458 513 500 513 c 128,-1,39
 542 513 542 513 635 502 c 1,26,-1
335 502 m 1,40,-1
 240 323 l 2,41,42
 230 302 230 302 229 271 c 2,43,-1
 220 -180 l 2,44,45
 220 -193 220 -193 200 -193 c 128,-1,46
 180 -193 180 -193 180 -180 c 2,47,-1
 171 271 l 2,48,49
 170 302 170 302 159 323 c 2,50,-1
 65 502 l 1,51,52
 158 513 158 513 200 513 c 128,-1,53
 242 513 242 513 335 502 c 1,40,-1
959 -188 m 1,54,-1
 948 -196 l 1,55,56
 887 -122 887 -122 771 62 c 128,-1,57
 655 246 655 246 631 308 c 1,58,59
 655 370 655 370 771 554 c 128,-1,60
 887 738 887 738 948 812 c 1,61,-1
 959 804 l 1,62,63
 930 707 930 707 888 529 c 0,64,65
 843 339 843 339 842.5 308 c 128,-1,66
 842 277 842 277 888 87 c 0,67,68
 930 -91 930 -91 959 -188 c 1,54,-1
EndSplineSet
EndChar

StartChar: uni3092
Encoding: 12434 12434 171
Width: 1024
GlyphClass: 2
Flags: W
LayerCount: 2
Fore
SplineSet
67 -196 m 1,0,-1
 60 -186 l 1,1,2
 127 -124 127 -124 292 -8 c 128,-1,3
 457 108 457 108 512 132 c 1,4,5
 567 108 567 108 732 -8 c 128,-1,6
 897 -124 897 -124 964 -186 c 1,7,-1
 957 -196 l 1,8,9
 870 -168 870 -168 710 -125 c 0,10,11
 540 -79 540 -79 512 -79.5 c 128,-1,12
 484 -80 484 -80 314 -125 c 0,13,14
 154 -168 154 -168 67 -196 c 1,0,-1
647 521 m 1,15,-1
 552 342 l 2,16,17
 537 313 537 313 536 290 c 2,18,-1
 532 156 l 2,19,20
 532 144 532 144 512 144 c 128,-1,21
 492 144 492 144 492 156 c 2,22,-1
 488 290 l 2,23,24
 487 312 487 312 472 342 c 2,25,-1
 377 521 l 1,26,27
 412 526 412 526 484 532 c 1,28,-1
 483 570 l 2,29,30
 482 601 482 601 472 622 c 2,31,-1
 377 801 l 1,32,33
 470 812 470 812 512 812 c 128,-1,34
 554 812 554 812 647 801 c 1,35,-1
 552 622 l 2,36,37
 541 601 541 601 541 570 c 2,38,-1
 540 532 l 1,39,40
 570 530 570 530 647 521 c 1,15,-1
EndSplineSet
EndChar

StartChar: uni3093
Encoding: 12435 12435 172
Width: 1024
GlyphClass: 2
Flags: W
LayerCount: 2
Fore
SplineSet
512 713 m 128,-1,1
 554 713 554 713 647 702 c 1,2,-1
 552 523 l 2,3,4
 541 502 541 502 541 471 c 2,5,-1
 539 335 l 1,6,-1
 721 337 l 2,7,8
 752 338 752 338 773 348 c 2,9,-1
 952 443 l 1,10,11
 963 350 963 350 963 308 c 128,-1,12
 963 266 963 266 952 173 c 1,13,-1
 773 268 l 2,14,15
 752 279 752 279 721 279 c 2,16,-1
 538 281 l 1,17,-1
 532 -84 l 2,18,19
 532 -97 532 -97 512 -97 c 128,-1,20
 492 -97 492 -97 492 -84 c 2,21,-1
 486 281 l 1,22,-1
 303 279 l 2,23,24
 272 278 272 278 251 268 c 2,25,-1
 72 173 l 1,26,27
 61 266 61 266 61 308 c 128,-1,28
 61 350 61 350 72 443 c 1,29,-1
 251 348 l 2,30,31
 272 337 272 337 303 337 c 2,32,-1
 485 335 l 1,33,-1
 483 471 l 2,34,35
 482 502 482 502 472 523 c 2,36,-1
 377 702 l 1,37,0
 470 713 470 713 512 713 c 128,-1,1
EndSplineSet
EndChar

StartChar: uni3094
Encoding: 12436 12436 173
Width: 1238
GlyphClass: 2
Flags: W
LayerCount: 2
Fore
SplineSet
106 -196 m 1,0,-1
 100 -186 l 1,1,2
 159 -124 159 -124 305.5 -8 c 128,-1,3
 452 108 452 108 501 132 c 1,4,5
 550 108 550 108 696.5 -8 c 128,-1,6
 843 -124 843 -124 902 -186 c 1,7,-1
 896 -196 l 1,8,9
 818 -168 818 -168 676 -125 c 0,10,11
 526 -80 526 -80 501 -80 c 128,-1,12
 476 -80 476 -80 326 -125 c 0,13,14
 184 -168 184 -168 106 -196 c 1,0,-1
366 134 m 128,-1,16
 346 134 346 134 346 147 c 2,17,-1
 342 572 l 2,18,19
 342 598 342 598 328 626 c 2,20,-1
 235 802 l 1,21,22
 324 812 324 812 366.5 812 c 128,-1,23
 409 812 409 812 497 802 c 1,24,-1
 404 626 l 2,25,26
 390 598 390 598 390 572 c 2,27,-1
 386 147 l 2,28,15
 386 134 386 134 366 134 c 128,-1,16
636 134 m 128,-1,30
 616 134 616 134 616 147 c 2,31,-1
 612 572 l 2,32,33
 612 598 612 598 598 626 c 2,34,-1
 505 802 l 1,35,36
 594 812 594 812 636.5 812 c 128,-1,37
 679 812 679 812 767 802 c 1,38,-1
 674 626 l 2,39,40
 660 598 660 598 660 572 c 2,41,-1
 656 147 l 2,42,29
 656 134 656 134 636 134 c 128,-1,30
1139 627 m 1,43,44
 1121 621 1121 621 1048.5 598.5 c 128,-1,45
 976 576 976 576 937 564 c 0,46,47
 913 556 913 556 884 527 c 0,48,49
 878 521 878 521 853 497 c 128,-1,50
 828 473 828 473 814 460 c 1,51,52
 803 456 803 456 792 468 c 128,-1,53
 781 480 781 480 788 490 c 0,54,55
 796 498 796 498 826 529 c 128,-1,56
 856 560 856 560 872 577 c 0,57,58
 882 589 882 589 888 603 c 128,-1,59
 894 617 894 617 900 639 c 128,-1,60
 906 661 906 661 909 668 c 2,61,-1
 953 812 l 1,62,63
 1053 733 1053 733 1094 682 c 0,64,65
 1114 658 1114 658 1139 627 c 1,43,44
EndSplineSet
EndChar

StartChar: uni3095
Encoding: 12437 12437 174
Width: 512
GlyphClass: 2
Flags: W
LayerCount: 2
Fore
SplineSet
387 168 m 1,0,-1
 294 -8 l 2,1,2
 278 -38 278 -38 278 -61 c 2,3,-1
 276 -176 l 2,4,5
 276 -189 276 -189 256 -189 c 128,-1,6
 236 -189 236 -189 236 -176 c 2,7,-1
 234 -61 l 2,8,9
 234 -38 234 -38 218 -8 c 2,10,-1
 125 168 l 1,11,12
 214 178 214 178 256 178 c 128,-1,13
 298 178 298 178 387 168 c 1,0,-1
EndSplineSet
EndChar

StartChar: uni3096
Encoding: 12438 12438 175
Width: 512
GlyphClass: 2
Flags: W
LayerCount: 2
Fore
SplineSet
387 168 m 1,0,-1
 294 -8 l 2,1,2
 278 -38 278 -38 278 -61 c 2,3,-1
 276 -176 l 2,4,5
 276 -189 276 -189 256 -189 c 128,-1,6
 236 -189 236 -189 236 -176 c 2,7,-1
 234 -61 l 2,8,9
 234 -38 234 -38 218 -8 c 2,10,-1
 125 168 l 1,11,12
 214 178 214 178 256 178 c 128,-1,13
 298 178 298 178 387 168 c 1,0,-1
EndSplineSet
EndChar

StartChar: uni3099
Encoding: 12441 12441 176
Width: 512
GlyphClass: 2
Flags: W
LayerCount: 2
Fore
SplineSet
356 627 m 1,0,1
 339 621 339 621 266 598.5 c 128,-1,2
 193 576 193 576 154 564 c 0,3,4
 130 556 130 556 101 527 c 0,5,6
 95 521 95 521 70 497 c 128,-1,7
 45 473 45 473 32 460 c 1,8,9
 21 456 21 456 9.5 468 c 128,-1,10
 -2 480 -2 480 6 490 c 0,11,12
 13 498 13 498 43.5 529 c 128,-1,13
 74 560 74 560 90 577 c 0,14,15
 99 589 99 589 105 603 c 128,-1,16
 111 617 111 617 117.5 639 c 128,-1,17
 124 661 124 661 126 668 c 2,18,-1
 171 812 l 1,19,20
 271 733 271 733 311 682 c 0,21,22
 331 658 331 658 356 627 c 1,0,1
EndSplineSet
EndChar

StartChar: uni309A
Encoding: 12442 12442 177
Width: 512
GlyphClass: 2
Flags: W
LayerCount: 2
Fore
SplineSet
171 459 m 1,0,1
 165 476 165 476 142.5 549 c 128,-1,2
 120 622 120 622 108 661 c 0,3,4
 100 685 100 685 71 714 c 0,5,6
 65 720 65 720 41 745 c 128,-1,7
 17 770 17 770 4 783 c 1,8,9
 0 794 0 794 12 805.5 c 128,-1,10
 24 817 24 817 34 809 c 0,11,12
 42 802 42 802 73 771.5 c 128,-1,13
 104 741 104 741 121 725 c 0,14,15
 133 716 133 716 147 710 c 128,-1,16
 161 704 161 704 183 697.5 c 128,-1,17
 205 691 205 691 212 689 c 2,18,-1
 356 644 l 1,19,20
 277 544 277 544 226 504 c 0,21,22
 202 484 202 484 171 459 c 1,0,1
EndSplineSet
EndChar

StartChar: uni309B
Encoding: 12443 12443 178
Width: 512
GlyphClass: 2
Flags: W
LayerCount: 2
Fore
SplineSet
356 627 m 1,0,1
 339 621 339 621 266 598.5 c 128,-1,2
 193 576 193 576 154 564 c 0,3,4
 130 556 130 556 101 527 c 0,5,6
 95 521 95 521 70 497 c 128,-1,7
 45 473 45 473 32 460 c 1,8,9
 21 456 21 456 9.5 468 c 128,-1,10
 -2 480 -2 480 6 490 c 0,11,12
 13 498 13 498 43.5 529 c 128,-1,13
 74 560 74 560 90 577 c 0,14,15
 99 589 99 589 105 603 c 128,-1,16
 111 617 111 617 117.5 639 c 128,-1,17
 124 661 124 661 126 668 c 2,18,-1
 171 812 l 1,19,20
 271 733 271 733 311 682 c 0,21,22
 331 658 331 658 356 627 c 1,0,1
EndSplineSet
EndChar

StartChar: uni309C
Encoding: 12444 12444 179
Width: 512
GlyphClass: 2
Flags: W
LayerCount: 2
Fore
SplineSet
171 459 m 1,0,1
 165 476 165 476 142.5 549 c 128,-1,2
 120 622 120 622 108 661 c 0,3,4
 100 685 100 685 71 714 c 0,5,6
 65 720 65 720 41 745 c 128,-1,7
 17 770 17 770 4 783 c 1,8,9
 0 794 0 794 12 805.5 c 128,-1,10
 24 817 24 817 34 809 c 0,11,12
 42 802 42 802 73 771.5 c 128,-1,13
 104 741 104 741 121 725 c 0,14,15
 133 716 133 716 147 710 c 128,-1,16
 161 704 161 704 183 697.5 c 128,-1,17
 205 691 205 691 212 689 c 2,18,-1
 356 644 l 1,19,20
 277 544 277 544 226 504 c 0,21,22
 202 484 202 484 171 459 c 1,0,1
EndSplineSet
EndChar

StartChar: uni309F
Encoding: 12447 12447 180
Width: 1024
GlyphClass: 3
Flags: W
LayerCount: 2
Fore
SplineSet
964 -86 m 1,0,-1
 954 -93 l 1,1,2
 892 -34 892 -34 776 112.5 c 128,-1,3
 660 259 660 259 636 308 c 1,4,5
 660 357 660 357 776 503.5 c 128,-1,6
 892 650 892 650 954 709 c 1,7,-1
 964 702 l 1,8,9
 936 626 936 626 893 483 c 0,10,11
 848 332 848 332 848 308 c 128,-1,12
 848 284 848 284 893 132 c 0,13,14
 936 -9 936 -9 964 -86 c 1,15,-1
 964 -86 l 1,0,-1
647 798 m 1,16,-1
 553 576 l 2,17,18
 542 549 542 549 541 511 c 2,19,-1
 532 -180 l 2,20,21
 532 -196 532 -196 512 -196 c 128,-1,22
 492 -196 492 -196 492 -180 c 2,23,-1
 483 511 l 2,24,25
 483 549 483 549 472 576 c 2,26,-1
 377 798 l 1,27,28
 470 812 470 812 512 812 c 128,-1,29
 554 812 554 812 647 798 c 1,30,-1
 647 798 l 1,16,-1
390 30 m 1,31,32
 390 10 390 10 378 10 c 2,33,-1
 302 1 l 2,34,35
 271 0 271 0 250 -10 c 2,36,-1
 71 -105 l 1,37,38
 60 -12 60 -12 60 30 c 128,-1,39
 60 72 60 72 71 165 c 1,40,-1
 250 71 l 2,41,42
 271 60 271 60 302 59 c 2,43,-1
 377 50 l 2,44,45
 390 50 390 50 390 30 c 1,46,-1
 390 30 l 1,31,32
390 308 m 1,47,48
 390 288 390 288 378 288 c 2,49,-1
 302 279 l 2,50,51
 271 278 271 278 250 268 c 2,52,-1
 71 173 l 1,53,54
 60 266 60 266 60 308 c 128,-1,55
 60 350 60 350 71 443 c 1,56,-1
 250 349 l 2,57,58
 271 338 271 338 302 337 c 2,59,-1
 377 328 l 2,60,61
 390 328 390 328 390 308 c 1,62,-1
 390 308 l 1,47,48
390 586 m 1,63,64
 390 566 390 566 378 566 c 2,65,-1
 302 557 l 2,66,67
 271 556 271 556 250 546 c 2,68,-1
 71 451 l 1,69,70
 60 544 60 544 60 586 c 128,-1,71
 60 628 60 628 71 721 c 1,72,-1
 250 626 l 2,73,74
 271 616 271 616 302 615 c 2,75,-1
 377 606 l 2,76,77
 390 606 390 606 390 586 c 1,78,-1
 390 586 l 1,63,64
EndSplineSet
Ligature2: "'liga' Standard Ligatures lookup 0 subtable" halfkana_YO halfkana_RI
EndChar

StartChar: uni30A0
Encoding: 12448 12448 181
Width: 1024
GlyphClass: 2
Flags: W
LayerCount: 2
Fore
SplineSet
303 514 m 2,0,-1
 721 514 l 2,1,2
 752 515 752 515 773 526 c 2,3,-1
 952 620 l 1,4,5
 963 527 963 527 963 485 c 128,-1,6
 963 443 963 443 952 350 c 1,7,-1
 773 444 l 2,8,9
 752 456 752 456 721 456 c 2,10,-1
 303 456 l 2,11,12
 272 455 272 455 251 444 c 2,13,-1
 72 350 l 1,14,15
 61 443 61 443 61 485 c 128,-1,16
 61 527 61 527 72 620 c 1,17,-1
 251 526 l 2,18,19
 272 514 272 514 303 514 c 2,0,-1
303 160 m 2,20,-1
 721 160 l 2,21,22
 752 161 752 161 773 172 c 2,23,-1
 952 266 l 1,24,25
 963 173 963 173 963 131 c 128,-1,26
 963 89 963 89 952 -4 c 1,27,-1
 773 90 l 2,28,29
 752 102 752 102 721 102 c 2,30,-1
 303 102 l 2,31,32
 272 101 272 101 251 90 c 2,33,-1
 72 -4 l 1,34,35
 61 89 61 89 61 131 c 128,-1,36
 61 173 61 173 72 266 c 1,37,-1
 251 172 l 2,38,39
 272 160 272 160 303 160 c 2,20,-1
EndSplineSet
EndChar

StartChar: uni30A1
Encoding: 12449 12449 182
Width: 512
GlyphClass: 2
Flags: W
LayerCount: 2
Fore
SplineSet
389 -190 m 1,0,-1
 379 -196 l 1,1,2
 317 -137 317 -137 201 9 c 128,-1,3
 85 155 85 155 61 204 c 1,4,5
 85 253 85 253 201 399 c 128,-1,6
 317 545 317 545 379 604 c 1,7,-1
 389 598 l 1,8,9
 361 521 361 521 318 379 c 0,10,11
 273 228 273 228 273 204 c 128,-1,12
 273 180 273 180 318 29 c 0,13,14
 361 -113 361 -113 389 -190 c 1,15,-1
 389 -190 l 1,0,-1
EndSplineSet
EndChar

StartChar: uni30A2
Encoding: 12450 12450 183
Width: 1024
GlyphClass: 2
Flags: W
LayerCount: 2
Fore
SplineSet
375 812 m 1,0,1
 380 795 380 795 402.5 722 c 128,-1,2
 425 649 425 649 438 610 c 0,3,4
 445 586 445 586 475 557 c 0,5,6
 481 551 481 551 505 526 c 128,-1,7
 529 501 529 501 542 488 c 1,8,9
 546 477 546 477 533.5 465.5 c 128,-1,10
 521 454 521 454 512 462 c 0,11,12
 504 469 504 469 472.5 499.5 c 128,-1,13
 441 530 441 530 424 546 c 0,14,15
 412 555 412 555 398 561 c 128,-1,16
 384 567 384 567 362 573.5 c 128,-1,17
 340 580 340 580 333 582 c 2,18,-1
 190 627 l 1,19,20
 269 727 269 727 319 767 c 0,21,22
 343 787 343 787 375 812 c 1,0,1
834 -188 m 1,23,-1
 824 -196 l 1,24,25
 762 -122 762 -122 646 62 c 128,-1,26
 530 246 530 246 506 308 c 1,27,28
 530 370 530 370 646 554 c 128,-1,29
 762 738 762 738 824 812 c 1,30,-1
 834 804 l 1,31,32
 806 707 806 707 764 529 c 0,33,34
 718 339 718 339 718 308 c 128,-1,35
 718 277 718 277 764 87 c 0,36,37
 806 -91 806 -91 834 -188 c 1,23,-1
EndSplineSet
EndChar

